/* XPM */
static char *wall[] = {
/* columns rows colors chars-per-pixel */
"64 64 41 1 ",
"  c #764E36",
". c #774E39",
"X c #794F3A",
"o c #775037",
"O c #775038",
"+ c #7D543B",
"@ c #7F583D",
"# c #80573D",
"$ c #82593E",
"% c #865C40",
"& c #885D42",
"* c #876042",
"= c #8D6345",
"- c #8F6847",
"; c #8F6548",
": c #916546",
"> c #906847",
", c #936748",
"< c #956A4A",
"1 c #996C4C",
"2 c #9C714E",
"3 c #9E7350",
"4 c #A0724F",
"5 c #A47552",
"6 c #A57A54",
"7 c #AB7B56",
"8 c #AE7F58",
"9 c #A98057",
"0 c #AC8359",
"q c #B1835A",
"w c #B58A5E",
"e c #B88A5F",
"r c #B78D60",
"t c #BB8D61",
"y c #BE9164",
"u c #C39767",
"i c #C39867",
"p c #C69A69",
"a c #C99D6B",
"s c #CDA26E",
"d c #D1A670",
/* pixels */
".+,0pddssddp7=@;qadddsssdsdssssssdsssddsi5*$2waddddsssdsdddu8>#o",
".@,7ussssssu7=@;qpssassssassssssasssssssy4$$20adsaaassassssu8>#o",
".#;6tppppput3*@;7yppuuupuuuuuuuuuuuuuuaue4$#>0iiiiiiuuuuuuuy5:#o",
".+=38tttttt83%+*4eeeeeeeeeeeeeeeeeeteeteq:$#*6wrtttteeeeetyq4&#o",
"X+&178888q06<%+%17q8q7q9q979q7888888qqq85:$#*47qq878887788871=#o",
"X+&<57777775<$O%1577777777777757775777774:$#*1777777777777751$##",
"X+&157877775<$+*1777777777777777777777874:##*1797777777778751$# ",
"X#&<57777775<$O%1577777977777777777777774:##$4797777777777751## ",
"X+$,24544542:#+#>244444454444444444444441*$#$>44545435335554,$##",
"+#$$=---:::*#oo+$->>:>::::>=>>>=::::=>>>*$  #*>>::=====;,$,$$###",
"X++++#@@###@oo oo@@@$##$$$#+##@+####o$$$#o  o@$$#+@@@@@+#####.#.",
"X++@##@@######@#@@@@$#oooo+###$$####@$@$####@ooo+#@##@@@#$#####.",
"X+%&<2<<<2<222122<22<-*o+$>1211<:112<2111222*oo$=22<<122111<$%#.",
"X#&50wrrwrwwwrwwwwrrw9-@#>9weerreeeewwwwrrr02*o*2qrrrrwwrrr84&#.",
"X+;7ysspsiapppsiaaaaiw2@$2wisauuiaiaaaiaiaay6*$>0yssppaaaapu7,#.",
".@;6tpiiiiiiiiiiiiiiiw<$$1qiauuuiiiiiiiiiaiy6*@*9yiyiipypput7&#.",
"X+&48ttrttqtttu8t8u8u5,##:7eeeeeeeeeeeeeeeeq4$#=3qeteeeeeee84=#X",
"X+&1788777777777788774=##=48q787877778777q77<$+$26q0777788851&#X",
"X%%1477757777577777774=##=477777777777577774>$#$157777777775,&#.",
"X+%,577777577775777751&##$477757775777777775:$#$157757777775,%#.",
"XX&,577776777777777774&##$477777577777777775,$#$<578777777751&#.",
"X%&,577777777777777774&##=477777777777777775,$o$1577777777751&#.",
"X%&<777777777777777774&##$477777777777777775<$$$157777777775,&#.",
"XX&<577777777777777774&##=477777777777777775,$#$<77777777775,&#.",
"XX&,577777777777777874=++=468777777777777875,$o$,777777777751&%.",
"X%&1778777787787778874=+#=478877777778877787,$#=1788777788751&%.",
"..&1577777777777777874=+#=479877777777777775,$#$177777777777,&..",
"X%&;457555555555555551*++=145555455555556654:$o$,45557555754:%%.",
"X%%&&;;;,,,,,,>,,,,,:=@oo#*><<<<,:>>,,,,>>>:$oo+&:::,,,1:::&&%..",
"...%%%%X%%+%######$###oo o##$$$$$$$#####$@$#+ooo######$$%%%%%.%X",
"X.%.X%X%%%X+@O@@#####@++#+#+#ooo########@@@+@+++@####+#..X%%X..X",
"X%%%;,;<=;,,<<<>,,,>>,<<><>>$#o#$:,,>:,,<--<-<<<>,,<,&#..%&,&%%X",
"o+*29qqqq0qqqeqqqqqqwqqq0ww9<$+*20ww0w00qqqqqeqeqqqwq9=@@-991*+o",
"o+-6ypsppaappuuuspapiaapppiy6*@-9yaaipppupappuppppiaue1$$1wy9-#o",
"o#>7ysapaippppaaiippiipppspy6*#=9yaapppiapaupappppaapq1$$2wr7:#o",
"X#=4qettteteteeeteeyeettrrew2*+=5wyeeeyeteeeeeeterrye9:#$<9w4=#o",
"X+&178q7q7q7888807q87787qqq71$+*1787q7q778888887qqqq84:##,552=+X",
"X+&,477777775777777777776774,$+$<777777777777777957774$#@&451&+X",
"X#&1577775767777577777777774,$+$<577777775577577757774&#+=451&+X",
"XX&1577777775777757657777775,#+&,777776777777777777754=##=451&+X",
"X#&1577777777777777777777875,$+$1777777777777777777774$#+=451&#.",
"XX&,577777777777777777777775,$+$1577777777777777777874=#+:251&#.",
"XX&1777777777777777777777775,$+%1777777777777777777774&#+=451&XX",
"X%&,577777777777777777777775<$+$1577777777777777777754&#+:451&#X",
".%&1577778778777777788777877<@+%1578777877778777778874=#%:551&%.",
".%&,778778787787777777777785<@+*1787787778777777787874=#X:451&%.",
".X%,477755755555755775756755-%+@,575555555577555557571&##&14;%X.",
".%&=;11,<<<111111111,1<<<1<,&OO@$1111111111111111111,:#..%:,&%%X",
".%X%@@&@%%@@**%%&&%&%%@%@%%@@. O@$$$$$$#%%*%%%%%###$$#OooO@##++O",
"XXX.+++@++@@+OOOXXX++X@X@@+++XOO++@@#+@@O+O+X+XX####@O@OO++@++++",
"XX%%=;;;;;=-@+O+&&;;;;;;;*;**;;;=====-==*@OO$%;;======-=>-=*%#+X",
"X%&;66889093<$O*1788869909000800909999093-@+*2680077909900061&#X",
"X%;5tppuipit9*@-7tppuuuuyyypypypiiiipupir3*+<8yppiuuuuuupppt6;@.",
".X;7yaappasy3*+-7ysppaaaaapaaaapppppppapy3*@<8paapaappaapapt6;+X",
"XX&5tuyuyyyw3*+-5eyyttttyyyyyyyyueyytyuy02@@,78uuttttttttyyr5;+X",
"X%&15888qqq9<$+$47e8e88800088q888qq0qqq06<@+;588q8qqqqqq8rq71&+X",
".%&,77777777,$#$1577777777777777777777774;%%%,777777777777751&+X",
".%&157777775,$#$1577777777777777777777775;%.&177777777777775<&+X",
"..&,57777775,$o$,777777777777777777777874;X%&177777777777775,&%.",
".%&145556654:$#$,575755555555555455555571&%X&147575555555755<&X.",
"..%&;,111,1,$$##&,,1,1111,11,,,1,1,,111,;&X&&&111,1,,,111,1,&%..",
".%X%%&&&&&&#$#X#&&&&&&&&&&&&&&&&&&&&&&&&&&XXX&&&&&&&&&&&&&&&&%XX",
"XXX%%.######X##XX&X&XX##X#XX%.%X%%%XX%%X&XXXXX&XXXX&%XX%X%%XX%%.",
"%X..X..X..XXXX#XXXXXXXXXXXXX......XX.XXXXXXX&XXXXX..X.....XXXXXX"
};
