/* XPM */
static char *_923f03e70ec484de8056d71e6670821uqD3KEiV7VVGjM1I[] = {
/* columns rows colors chars-per-pixel */
"64 64 236 2 ",
"   c None",
".  c #0E142C",
"X  c #11162D",
"o  c #151B2E",
"O  c #191F2F",
"+  c #0B0E2B",
"@  c #1B222F",
"#  c #1D2431",
"$  c #1E2833",
"%  c #222632",
"&  c #232C33",
"*  c #2A2C34",
"=  c #252F3A",
"-  c #2C3434",
";  c #2B3938",
":  c #343436",
">  c #333D35",
",  c #383A38",
"<  c #2B2E30",
"1  c #463C3C",
"2  c #364236",
"3  c #3B4335",
"4  c #33443C",
"5  c #3C423A",
"6  c #3D4A39",
"7  c #3D4A37",
"8  c #3D513D",
"9  c #354336",
"0  c #474838",
"q  c #554B3D",
"w  c #44543A",
"e  c #4C553C",
"r  c #4C5A3C",
"t  c #485436",
"y  c #56583A",
"u  c #62553D",
"i  c #53643E",
"p  c #5A673E",
"a  c #5D703F",
"s  c #676639",
"d  c #76783A",
"f  c #6C723B",
"g  c #2F3547",
"h  c #384D41",
"j  c #3E5544",
"k  c #445A44",
"l  c #5B5C41",
"z  c #555E47",
"x  c #524F4C",
"c  c #755A47",
"v  c #675044",
"b  c #4C6244",
"n  c #4B674B",
"m  c #566945",
"M  c #5D7243",
"N  c #58774E",
"B  c #5A7B52",
"V  c #557651",
"C  c #5B605D",
"Z  c #636443",
"A  c #666B43",
"S  c #7B6743",
"D  c #637542",
"F  c #667B43",
"G  c #677847",
"H  c #787A48",
"J  c #697E54",
"K  c #565A67",
"L  c #847D3D",
"P  c #89664C",
"I  c #967A49",
"U  c #92774C",
"Y  c #AC7A58",
"T  c #A67755",
"R  c #B07F57",
"E  c #A07A4F",
"W  c #805E4B",
"Q  c #5E8356",
"!  c #6C8243",
"~  c #66834B",
"^  c #6C884A",
"/  c #738A45",
"(  c #768847",
")  c #7C9446",
"_  c #7E994B",
"`  c #7B9546",
"'  c #638452",
"]  c #688A56",
"[  c #6D9559",
"{  c #749858",
"}  c #7EAB5F",
"|  c #7CA55B",
" . c #6D9B6D",
".. c #6B9469",
"X. c #729E61",
"o. c #749B6B",
"O. c #7B9C6D",
"+. c #799A66",
"@. c #6C9671",
"#. c #689574",
"$. c #6A8F6F",
"%. c #76A664",
"&. c #7CA464",
"*. c #77A863",
"=. c #7BA962",
"-. c #77A368",
";. c #5E826A",
":. c #97993C",
">. c #8F923D",
",. c #9DA23C",
"<. c #ACB33D",
"1. c #C9D03D",
"2. c #8B8A4D",
"3. c #86864B",
"4. c #968A4A",
"5. c #829D49",
"6. c #869949",
"7. c #93984E",
"8. c #908F51",
"9. c #879557",
"0. c #999952",
"q. c #A8874D",
"w. c #B7964E",
"e. c #B68955",
"r. c #BC9452",
"t. c #BE9A51",
"y. c #AA9249",
"u. c #86A24A",
"i. c #8AA44A",
"p. c #8DAA4C",
"a. c #92AD4C",
"s. c #99AA4E",
"d. c #95B34D",
"f. c #9AB64E",
"g. c #9CB94E",
"h. c #8BAD54",
"j. c #84AD5C",
"k. c #8AAE5B",
"l. c #83A657",
"z. c #92AE5E",
"x. c #99A855",
"c. c #8DB256",
"v. c #87B05B",
"b. c #8AB159",
"n. c #94B553",
"m. c #9AB653",
"M. c #97B953",
"N. c #9BB950",
"B. c #94B15B",
"V. c #9CB25D",
"C. c #93BA59",
"Z. c #A1BA4F",
"A. c #A8B54E",
"S. c #ABAB55",
"D. c #A7A856",
"F. c #A3B654",
"G. c #ABB454",
"H. c #A4BA51",
"J. c #ABBA54",
"K. c #A3B45C",
"L. c #ACB55C",
"P. c #AFB85A",
"I. c #B3BA56",
"U. c #B4B65D",
"Y. c #B9B75D",
"T. c #B5B959",
"R. c #BCBA5A",
"E. c #B6B657",
"W. c #B5AF49",
"Q. c #839E6C",
"!. c #849C63",
"~. c #82A562",
"^. c #83AB61",
"/. c #8BAD61",
"(. c #84A169",
"). c #8CA26B",
"_. c #8AA565",
"`. c #93AD61",
"'. c #9BAA65",
"]. c #94A569",
"[. c #97A666",
"{. c #83B263",
"}. c #9BB260",
"|. c #A4AD63",
" X c #A9AF63",
".X c #ADB161",
"XX c #A7B561",
"oX c #B2B360",
"OX c #BD977F",
"+X c #C39B53",
"@X c #C39855",
"#X c #CBB94B",
"$X c #CCA354",
"%X c #CDA852",
"&X c #D2AC53",
"*X c #C2BB5B",
"=X c #CABB55",
"-X c #D5B851",
";X c #CCB04E",
":X c #CAAB7A",
">X c #A4C350",
",X c #AACB52",
"<X c #B8C357",
"1X c #A0C04F",
"2X c #9EC155",
"3X c #DBCB4B",
"4X c #D6C44C",
"5X c #DED449",
"6X c #D9D946",
"7X c #C8C45D",
"8X c #CDCC44",
"9X c #E2DC48",
"0X c #E1DF52",
"qX c #DEE343",
"wX c #E4E545",
"eX c #E6EC44",
"rX c #E8EE43",
"tX c #E1E04A",
"yX c #E9F143",
"uX c #EDF35B",
"iX c #D1D475",
"pX c #EFF376",
"aX c #787B82",
"sX c #AEB0B3",
"dX c #9EA195",
"fX c #C7AE9B",
"gX c #BCC082",
"hX c #D0D292",
"jX c #EEF187",
"kX c #F5F7B5",
"lX c #ECEFA7",
"zX c #E2D0C6",
"xX c #F7F7D4",
"cX c #FCFBE7",
"vX c #FDFDF6",
"bX c #E5E6E8",
/* pixels */
"                  o # o                 # @ X #                   O # o o @ # X     % #         O O       # %                   ",
"    > ( 6 o #   O 4 X.; , 0 . A A o h ; 8.H 2 5.& 0 * w % n h   X 2.0.V n H 0.; j Z R.8.X , 8.0 r ` # ; X 8.D.@     o D r       ",
"    2 >X5.! i.2 _ ( /.D U.0.l 7X2.& X.{ S.D.u.i.G <X9.N.5.c.n H Z 2.7XK.K.*X3.A K.S.J.H./ Z R.S.D g.~ /.Z D.2.A 8., b >Xm.&     ",
"  ; ; b C.g.1X/ a.I.I.R.*Xx.S.R.0.2.G *XR.*XJ.s.f.g.M.M.g.g.s.I.*XD.I.R.R.R.0.E.*X*XR.J.H.m.g.g.f.g.M.J.G.E.S.R.S.k | p.i %     ",
"  B {.u.n.g.g.g.g.g.g.g.J.g.J.Z.g.H.H.R.T.T.T.R.I.F.F.H.g.g.g.g.g.J.g.H.Z.g.H.H.R.T.T.T.R.I.H.F.H.g.g.g.g.g.J.Z./ ^ =.u.i.i.%   ",
"  h n _ n.k.j.j.n.H.I.J.g.m.M.c.g.g.g.g.g.g.g.g.b.=.=.j.j.c.H.I.J.g.M.M.c.g.g.g.g.g.g.g.g.c.=.=.j.j.b.H.I.P.g.m.M.=.v.p./ m O   ",
"  - ! ^ n.b.=.j.j.V.R.P.V.k.b.b.c.g.k.b.M.n.M.k.} n.c.=.j.j.V.R.T.V.j.b.b.b.g.b.k.M.n.M.k.=.c.n.=.j.j.B.T.T.K.k.b.c.k.Z._ o     ",
"  6 p.i.g.i.p.N.k.j.n.j.v.v.c.j.k.c.=.k.=.j.n.g.n.M.M.n.g.k.j.n.j.k.k.c.j.j.n.=.k.=.j.n.g.n.M.M.n.g.k.&.n.j.k.k.c.k.=.v.l.=     ",
"  . , e e A ( *XY.Q.@.'.(./.=.j.j.=.b.M.M.g.n.k.).(.(._.R.Y.).@.'.(./.=.j.j.=.k.M.M.g.M.k.).(.(._.R.Y.].@.[._./.=.j.k.=.} G 5   ",
"# 2.S.L.x.*XY.L./.L.|.J.R.R.P.g.g.j./.V.V.K.'.U.U.K.Y.Y.L./.L.|.J.T.R.P.g.g.j.^.V.V.K.'.U.U.K.Y.Y.U./.L.|.J.I.R.T.Z.g.j.k.7X3.  ",
"O l D M.c.b.^.*.%.=.j.k.n.c.B.M.g.m.H.H.H.H.Z.Z.M.b.B.^.=.%.=.j.k.n.n.B.M.g.m.H.H.H.H.Z.g.M.c.b.j.=.%.=.^.k.n.n.B.M.g.M.k.m %   ",
"  . p g.M.c.j.j.n.=.=.j.b.B.L.m.g.g.g.Z.P.R.T.J.g.M.c.j.j.n.} =.j.b.B.L.m.g.g.g.g.J.R.T.J.g.M.c.j.j.n.j.=.} b.b.L.m.g.g.g.p.2   ",
"# ( D.m.g.g.g.g.g.M.M.F.U.L.K.T.J.H.M.M.H.Z.H.I.H.g.g.g.g.g.M.M.F.U.L.K.T.J.H.N.m.H.H.Z.I.H.f.g.g.g.g.m.M.m.U.L.K.T.P.H.N.>X/   ",
"# w ' {.c.g.g.g.g.g.c.j.n.j.*.^./.^.=.=.} b.c.n.g.g.g.g.g.g.g.c.j.n.j.*.^./.^.^.=.} v.c.c.g.g.g.g.g.g.g.n.j.n.k.*.^././.&.{ 6   ",
"  i >XN.M.M.j.~.M.j.~.M.Z.J.k.v.n.k.j.k.b.n.M.g.g.g.g.j.~.M.j.~.M.Z.J.b.j.n.k.j.k.b.n.M.g.g.g.g.k.&.n.k.&.n.g.J.n.j.n.v.| 4 +   ",
"  p / F j.o.|.[.o.[. Xz.T.*XU.m.g.H.P.I.R.H.f.~.j.j.o.'.'.O.)..X'.I.*XT.m.g.Z.J.I.R.J.g.j.j.k.o.[.'.O._..X'.P.*XR.m.g.g.<XH #   ",
"  # m 3.0.'.Y.*XY.*XR.R.*XU.*XT.H.J.P.P.H.~.O.'.Q.).'..X*XY.*XR.R.*XU.*XR.H.H.P.P.J.~.O.[.).).|..X*XR.*XR.R.*XY.R.R.H.g.J.H 8.# ",
"  ! >XR.R.J.L./.z.I.g.m.V.=.L.R.P.g.g.P.K. XY.P.R.R.J.L././.P.Z.m.V.=.L.R.P.g.g.J.L. XY.P.R.R.P.L.`./.P.Z.m.V.=.K.R.I.H.H.G.0 . ",
"  2 p.J.m.=.=.%.=.b.c.=.j.j.j.M.g.H.I.H.I.I.H.f.H.F.} *.%.=.b.c.=.} j.j.M.g.g.I.H.I.I.H.g.H.F.} *.%.=.k.c.=.} j.j.M.g.g.L.s.! @ ",
"  2 n.v.=.b.c.j.k.=.=.j.n.g.M.M.g.g.b.M.g.g.g.M.b.=.k.n.j.b.=.=.j.c.g.M.m.g.g.b.n.g.g.g.f.b.} j.n.j.b.=.=.j.c.g.M.M.g.g.k ~ p.@ ",
"> p.Z.P.F.P.N.g.g.n.n.g.M.g.g.k.j.j.%.k.M.g.H.I.J.F.P.H.g.g.n.n.g.M.g.g.b.j.j.*.j.m.g.N.I.P.F.P.H.g.g.M.n.g.M.g.g.b.j.b.V = >   ",
"> ` d.*XR.V.j.k.=.=.=.j.j.j.=.=.=.=.%.*.j.c.H.R.*XR.V.k.k.=.=.=.j.j.j.~.=.=.=.*.*.=.b.H.R.*XR.K.k.k.} =.=.j.j.j.^.=.=.=.] | p.2 ",
"  % 2.R.M.f.n.j.%.=.=.-. .@.#.o.&.~.O. .n.J.T.R.R.N.M.n.j.*.=.=.%. .@.#...' ] ]  .c.J.T.R.R.N.M.n.j.=.=.=.%. .@.#.o.{ F k ^ Z.> ",
". 2.7XR.J.Z.g.n.b.=.*.@.[.Y._.'..X XR.'.L.H.H.I.R.J.H.g.n.b.=.=.@.].Y.!.m - * : z 9.J.Z.P.R.P.H.g.M.c.=.=.@.).Y.].].S.2.8.- 2   ",
"X y 8.F.H.g.g.g.g.F.L..X*XR.R.R.R.R.R.*XR.R.H.g.H.H.H.g.g.g.F.L..X*XR.G.Z y d i 0 5 0.J.g.J.H.H.g.g.g.F.L..X*XR.R.R.R.7XG.l l O ",
"O i p ( J.H.H.g.g.g.g.Z.P.g.J.H.g.H.H.R.R.R.T.R.I.H.H.H.g.g.g.g.Z.P.g.s.r s 8X8X<.d p 0.R.I.H.H.H.g.g.g.g.Z.P.g.H.H.g.H.d.P.R.& ",
"# u.5.c.=.=.k.k.M.Z.I.H.g.g.M.n.g.g.g.Z.g.g.H.Z.n.=.=.j.k.n.Z.P.H.g.` w @ s #X3X9X6XU e i.n.j.=.j.k.c.Z.P.J.g.g.g.n.g.g.a.) l X ",
"  o a N.c.k.=.} j.K.R.T.V.k.b.k.c.g.b.c.M.M.M.k.=.c.b.=.} j.V.R.T.x.b = g x I +X9X3Xw.q 8 { b.c.=.} j.V.R.T.K.k.k.b.b.M.c.V .   ",
"  4 M k.k.f.n.g.k.j.m.j.b.b.n.k.b.n.=.j.=.j.n.M.n.g.g.n.d.G m m m k & K sXsXC 0 y.t.S q > 5.f.g.n.g.k.j.M.k.b.v.n.b.j.c.=.B o   ",
"$ X...;./.(./.R.oXO.o.[.&.^.=.=.j.=.b.g.M.g.M.k._.Q.+.J y * 2 t t t < g dXbXsXC - 0 : e ^ !.Q.(.~.I.Y.).@.].(.^.=.=.j.=.j._ ! o ",
"o 4 h G XXR.Y.U.B.L.'.I.T.R.L.g.g.^.^.z.V.V.`..XU.x.Z : & s A.hXhXiXD.p x aXgX7Xy # r 9.K.Y.XXY.Y.U.B.L.'.I.T.R.L.N.g.j.^.B.F @ ",
"  D 6._ b.B.^.=.%.=.j.b.M.M.V.g.g.m.H.J.H.H.g.H.M.~ ; # d 1.lXcXvXcXkXiX:.q p >.f # p Z.Z.m.b.B.^.=.%.=.j.b.M.M.V.m.g.M.F.J.A   ",
"  M g.g.g.n.j.j.c.=.%.} k.k.K.m.g.g.g.g.J.R.I.H.f.i % 3 <.rXkXvXvXvXcXpX8Xf - 3 3 - ( I.H.g.M.c.j.} c.} %.=.k.k.K.m.g.g.5.` M   ",
"@ D d.g.g.g.m.g.g.n.n.F.T.T.L.I.H.Z.g.g.J.H.H.s.! - t ,.qXyXkXcXzXzXxXjXeXW.q * % a s.Z.I.H.M.M.m.g.g.M.n.m.T.T.L.T.J.H.F h 4 o ",
"o ! _ k.j.c.c.g.g.g.c.j.n.j.*./././.^.=.[ G M 8 - - :.1.,.:.dXfXOXfXxXpXrX3Xw.S - b h.c.n.g.g.g.g.g.g.g.n.j.n.j.*.^.`./.[ } a.# ",
"  O ^ N.M.C.j.j.g.j.j.f.g.H.k.k.c.j.} [ w & > t q S y.f , 0 , c T :XjXuXyX5X&Xq.* 4 h.n.g.g.g.g.k.j.M.k.~.n.g.H.b.j.c.j.j.m >   ",
"  X p 5./ V ].).o.).|.z.I.*XL.M.g.Z.7.e 0 G 7.W.t.+XP * , U L >.y.+X5XyXrX5X&Xw.0 2 A.g.k.k.h.+.].[.O.Q.|.`.J.*XT.M.g.g.H.A o   ",
"X l 2., l 8.E.*XY.*X*XR.*XR.*XI.N.7.y 0 |.lXkXpX9X-XS # : U #XqX6X3X6XyXwX4X&X+XS 2 l.+.).Q.Q.[. X*XY.R.*XR.*XR.*XR.H.H.J.7.D.% ",
"& R.<XR.R.I.U.`.V.I.Z.H.K.^.U.R.G.i > ,.lXvXvXjXtX9X4.3 O , s ,.8XeXrXrX5X&X$Xr.c , [.oXP.R.R.I.Y.V.`.I.H.N.K.^.K.R.I.g.g.a.A O ",
"O m d.J.F.} =.%.=.c.n.=.} =.j.M.p.> t 6XxXvXxXpX#X3XW.s < : * 0 >.3X9X9X4X$X@Xe.c 2 G.H.g.H.J.} =.%.*.b.n.=.=.} j.m.g.g.G./ w X ",
"  r h.b.=.k.c.j.j.=.=.j.n.g.n.m.5.% s 6XlXkXpX0Xe.r.W.y t :.s # u +X$X$X+Xe.R T v 2 d.g.M.b.} } c.j.k.=.=.j.b.g.n.M.g.g.n.2X! . ",
"6 >XZ.N.F.J.g.g.g.n.M.g.M.g.g.b.{ % q.5XrXyXyXeX;Xe.c : d W.d * s $Xr.Y Y Y T P 1 w d.g.I.J.m.J.Z.g.g.M.c.g.M.g.g.c.j.b.=.Q ;   ",
"2 u._ 7.*XK.k.k.j.=.=.b.j.k.j.=.] & I 3XrXyXyXyXwXt.T P c u % 3 :.6X-Xe.Y T c : & N b.H.R.R.R.L.k.b.j.=.=.k.j.k.j.=.*.=.C.n.k.6 ",
"  & # 3.H.M.c.j.%.=.=.%. .@.#.o.] & 4.4XwXrXyXyX4Xe.e.r.+X4.t >.8XyX3X@XR P 1 % = ~ H.I.R.R.H.n.n.j.=.=.=.%. .@.#.Q 6 h V F f.> ",
"# { ' b c.g.g.c.k.=.*.@.)..XQ.[.9.; I $X3XwXrXyX#Xt.#XwXwXqX6XqXrXrX3X@XR T P v & m F.H.I.R.J.H.g.n.b.=.=. .Q..X].9.S.2.3.Z & X ",
"# V l.n.k.n.g.g.g.F.L. X*XR.Y.*XE.y y r.%X3XwXeXwX6XeXyXyXyXyXyXyXwX4X@XR Y Y P % 5 G.H.g.J.J.H.g.g.g.F.F.|.R.R.R.R.R.*X7XS.,   ",
". 2 G.I.H.H.H.g.g.g.g.H.I.g.P.H.g.a : 4.$X%X4X5XeXeXrXeXeXeXrXeXeX3X%Xr.Y Y U v # 0 U.T.R.I.H.H.H.g.g.g.g.Z.I.H.H.J.g.H.g.<X3.  ",
"@ ) F M.j.=.b.b.M.Z.J.H.g.g.g.M.g.5.- u t.$X$X$X-X-X5X9X9X9X9X3X-X%X@Xe.Y Y c : & D g.H.H.m.j.=.k.b.n.g.J.H.g.g.g.M.g.g.g.! #   ",
"  @ V {.b.j.*.=.^.K.R.T.V.k.b.k.c._ w & S r.$X$X$X$X$X$X$X$X$X$X$X@Xe.Y T W : O > ! p.f.b.=.k.b.=.=.=.V.R.R.F.k.b.k.b.g.M.d.i   ",
"  + 4 ` f.M.c.g.k.k.m.k.c.b.n.b.l.^ B 8 & v I r.+X$X$X$X$X$X$X@Xe.Y T P q % # & k ' [ c.M.M.g.g.c.g.k.k.m.B.c.b.n.c.k.M.=.c.i   ",
"  0 8.l p !.B.T..XO.o.).&.^.=.=.| Q ~ / w & * 0 q P E q.w.q.E c x 1 1 * # & 4 b ! ^ u.g.k.(.O.&.~.I.U.Q. ._.(.^.=.=.} =.v./ h # ",
"  2.<XR.U.R.R.Y.K.L.'.I.Y.Y.K.g.g.{ ' ~ ^ G 5 , & * : : , : : * - , , e D F B ' ^ _ V.`. XY..XY.Y.Y.V.U.[.I.U.Y.F.N.g.j.=.{ B # ",
"  2 p.M.k.B.^.=.%.^.k.c.N.m.K.g.g.M.s.7.6.) ) 3.D b b b k k k b M / ( ( / / ( 6.s.F.H.H.J.m.b.B./.^.%.=.k.c.M.m.K.m.g.n.M.b .   ",
"  % m g.M.c.j.} b.=.%.=.j.k.V.M.g.g.g.g.F.D.7.6._ / ^ ' ' ^ ' Q Q ~ ] 9._ i.f.f.g.H.T.I.H.g.M.c.j.=.b.=.%.=.j.j.}.M.g.g.g.D r O ",
"  ( <Xg.M.M.M.g.g.n.n.F.T.T.Y.I.H.g.g.g.P.J.J.I.f.p.p.p.p.a.h.l.s.D.G.Y.I.H.Z.g.g.J.J.J.T.H.M.M.M.M.g.M.c.m.T.T.Y.I.H.Z.f.i./ @ ",
"  2 M k.v.n.g.g.g.g.c.j.B.^.=.`.`.z.j.j.k.c.n.n.g.g.g.g.g.g.g.n.j.B.j.=./.`.z./.j.k.c.n.n.g.g.g.g.g.g.g.n.j.B.k.*./.`.B.k.k +   ",
"    z XXM.n.h.k.g.k.j.M.g.H.j.j.b.} =.} j.c.c.M.g.g.g.c.k.g.c.j.M.g.H.k.} b.} =.} j.b.c.M.g.g.g.n.k.g.n.j.n.g.H.b.} b.*.n.d.6   ",
"  e *X*XY._.].Q.o._.'.z.I.*XL.M.g.g.H.J.I.H.g.k.c.n.-.].).o.Q.'.z.P.*XL.n.g.g.H.J.I.J.g.h.k.n.&.).).o.Q.'.`.J.*XT.m.M.=.^ / >   ",
"  8.D.S.I.J.*X*X.XR.*XY.*XR.*XI.g.P.I.T.P.k.-.).O.Q.)..X*XoXY.*XR.*XR.*XI.g.J.I.T.I.k.&.).O.O.). X=XoXY.*XR.R.R.*XT.=.-.%.n X   ",
"  5 - a M.g.J.H.P.R.H.H.L.^.T.R.I.g.g.J.V.'. XT.Y.R.I.U.V.V.R.H.H.L.^.L.*XI.g.g.J.K.]. XU.R.R.R.U.K.}.T.H.H.L./.L.K.-.@. ...$   ",
"    w f.h.C.5.| j.u.h.| =.=.k.g.g.g.G.I.R.R.J.g.G.7.j.=.%.=.u.M.^.[ =.b.N.g.H.U.D.R.R.J.f.G 3.{ =.X.[ n.M.j.} { ' C.l.k.] $     ",
"    F ,XF M 7 k V B [ b M./ n.M a.Z.i ! g.g.i.f.a G n.j.=.v.B k n a N.{ M.6.<XH i.g.g.u.[ X.& ~ C.j ] X.V j.~ _ - / i a.>Xw     ",
"    @ e -       & [ Q o 2 # ` r 2 / > X ) >Xi i > ` F n B ` ~ X   r M % w * 0 & 5.i g./ ; h o m p X 4 ; 2 a.7 o     X a F %     ",
"                  # #       O o         - 6     X # @ o o @ O                   @ o 6 &                 o # o                   "
};
