/* XPM */
static char *bbe75186f6b94c87ba7e29eee6dbe4d10aQgadnibwtiKzCc[] = {
/* columns rows colors chars-per-pixel */
"64 64 166 2 ",
"   c None",
".  c #0A0F2D",
"X  c #010B2A",
"o  c #0D1125",
"O  c #071029",
"+  c #0C132C",
"@  c #0E182E",
"#  c #10172D",
"$  c #131A2D",
"%  c #191D2F",
"&  c #111730",
"*  c #161B30",
"=  c #1A1E31",
"-  c #1D222E",
";  c #1D2231",
":  c #323C2F",
">  c #232533",
",  c #2C2C34",
"<  c #282A33",
"1  c #302F34",
"2  c #343434",
"3  c #303931",
"4  c #453C39",
"5  c #4D3E3D",
"6  c #41363A",
"7  c #3D432C",
"8  c #3A4131",
"9  c #464D2F",
"0  c #4F562C",
"q  c #50572C",
"w  c #474736",
"e  c #494F32",
"r  c #424933",
"t  c #544D3A",
"y  c #56473D",
"u  c #4C5233",
"i  c #59533B",
"p  c #61543D",
"a  c #5D6036",
"s  c #676E36",
"d  c #686E36",
"f  c #6D7335",
"g  c #757636",
"h  c #2B2E45",
"j  c #2E3347",
"k  c #363B4B",
"l  c #3F4555",
"z  c #574741",
"x  c #584641",
"c  c #5E4A43",
"v  c #505055",
"b  c #644D44",
"n  c #694F43",
"m  c #6D5D41",
"M  c #6B5246",
"N  c #765947",
"B  c #735649",
"V  c #7A6444",
"C  c #7A6942",
"Z  c #727847",
"A  c #787C78",
"S  c #88654E",
"D  c #8D7346",
"F  c #947A48",
"G  c #8E6750",
"H  c #9D7154",
"J  c #A47F4F",
"K  c #AA7658",
"L  c #AD7A58",
"P  c #A77858",
"I  c #B27D5A",
"U  c #B0765C",
"Y  c #8C8E3A",
"T  c #8C933B",
"R  c #969D3A",
"E  c #9BA13C",
"W  c #A2A93C",
"Q  c #A0A53D",
"!  c #AEB43F",
"~  c #B8BF3F",
"^  c #E8EE3D",
"/  c #E9F23B",
"(  c #9A8A42",
")  c #A8884C",
"_  c #B18C4E",
"`  c #A49D42",
"'  c #B5924F",
"]  c #B7984D",
"[  c #A68050",
"{  c #AF8057",
"}  c #B48557",
"|  c #B58A54",
" . c #B88858",
".. c #B48258",
"X. c #B49050",
"o. c #BB9752",
"O. c #BDAF48",
"+. c #BBBA41",
"@. c #B78B6E",
"#. c #C29556",
"$. c #C49A54",
"%. c #CA9E55",
"&. c #C29058",
"*. c #C5AA4F",
"=. c #D6B94F",
"-. c #C1A351",
";. c #CEA454",
":. c #D1A755",
">. c #D2AC53",
",. c #D9AD57",
"<. c #CFB051",
"1. c #D3B451",
"2. c #D4B850",
"3. c #DDBE51",
"4. c #E1B159",
"5. c #C0C641",
"6. c #D2C44A",
"7. c #D8C44D",
"8. c #DDCC4C",
"9. c #D5CA4A",
"0. c #CCD441",
"q. c #D3D344",
"w. c #DCDB46",
"e. c #DCD24A",
"r. c #D4D843",
"t. c #DED953",
"y. c #E2DC48",
"u. c #E3D94A",
"i. c #DEE543",
"p. c #E4E546",
"a. c #E7EB45",
"s. c #E9ED45",
"d. c #E5E148",
"f. c #EAE547",
"g. c #EAF243",
"h. c #EAF04D",
"j. c #EEF943",
"k. c #F0F744",
"l. c #F4FC44",
"z. c #F8F948",
"x. c #E6EC5F",
"c. c #F3F352",
"v. c #D4D96F",
"b. c #E9EB6F",
"n. c #FAFF62",
"m. c #E4EA72",
"M. c #EFF570",
"N. c #F2F879",
"B. c #8F9386",
"V. c #9B9DA8",
"C. c #F2F688",
"Z. c #F7FAAD",
"A. c #FFFFBB",
"S. c #C2C3C7",
"D. c #E2D0CD",
"F. c #FDFEC1",
"G. c #FCFFCC",
"H. c #EDE2DB",
"J. c #F2ECD5",
"K. c #FAFCD5",
"L. c #FBFCDB",
"P. c #DCDDE0",
"I. c #FFFFE5",
"U. c #F7F3F0",
"Y. c #FEFEF7",
"T. c #FFFEFD",
/* pixels */
"                                                                                                                                ",
"                                                                                                                                ",
"                                                                                                                                ",
"                                                                                                                                ",
"                                                                                                                                ",
"                                                                                                                                ",
"                                                                                                                                ",
"                                                                                                                                ",
"                                                                                                                                ",
"                                                                                                                                ",
"                                                                                                                                ",
"                                                                                                                                ",
"                                                                                                                                ",
"                                                                                                                                ",
"                                                                                                                                ",
"                                                                                                                                ",
"                                                                                                                                ",
"                                                                                                                                ",
"                                                                                                                                ",
"                                                                                                                                ",
"                                                                                                                                ",
"                                                                                                                                ",
"                                                                                                                                ",
"                                                                                                                                ",
"                                                                          % ; + +                                               ",
"                                                                          $ W s u +                                             ",
"                                                                          # 5.z.s.! 3                                           ",
"                                                                      $ $ + +.>.u.l.O.>                                         ",
"                                                                      $ k l w _ y.7.4.m $                                       ",
"                                                            % + + + + o S.T.V.O g ;.m i %                                       ",
"                                                          * + r q 0 u + j P.T.B.o < + +                                         ",
"                                                      * & < R x.F.F.N.! 7 h A n.R + $                                           ",
"                                                      $ < ~ l.K.T.T.T.A.^ ( o f T & %                                           ",
"                                                    $ - f g.g.L.T.U.Y.F./ u.4 X + %                                             ",
"                                                  % . R k.g.j.I.H.L D.G./ d.o.p >                                               ",
"                                            % # + = t w.Q 8 : v P @.J.Z.^ g.1.,.1 $                                             ",
"                                          $ # 9 Y J &.D % ; V - n U 6.j.g.g.1.;., $                                             ",
"                                        + Z v.m.c.3.,.t + m ,.q.w.-.-.a.g.a.>.:.F #                                             ",
"                                      $ g C.Y.T.M.j.3.t + $ C 7.g.j.j.g.j.8.;.>.) #                                             ",
"                                    + u h.I.T.Y.b.6.a.E e $ % = d e.p.g.a.>.;.$.G $                                             ",
"                                    # a h.K.K.N.t.K -.r.u 8 ` 4 + | >.1.<.;.| L S $                                             ",
"                                    % ] p.g.g./ p.o.I y . W f.C $ ] #.L L L L L c $                                             ",
"                                    % _ e.g.g.g.g.p.| H B t i % 3 q.8.#.L L L x $                                               ",
"                                    % _ e.g.g.g.g.9.{ L ....N + R l.s.>.} L b $ *                                               ",
"                                    = ' >.y.g.g.j.*.L 6.p.p.w.0.i.g.s.>.} L H n = %                                             ",
"                                    $ m ;.>.y.g.g.w.e.g.g.g.g.g.g.g.a.>.} L L I < $                                             ",
"                                    + , ' ;.>.e.u.g.j.s.g.g.g.g.g.a.=.;...L L G > $                                             ",
"                                      + V ;.;.;.;.2.7.p.p.p.p.a.8.1.;.#.K L I 5 @ %                                             ",
"                                      $ ; D ;.;.;.;.;.;.;.;.;.:.;.;.$.L L L M % %                                               ",
"                                        $ = V X.%.:.;.;.;.;.;.;.%. .I P S 2 % * $                                               ",
"                                          $ $ , z p [ | $.$.| } B 5 z 6 $ $ % %                                                 ",
"                                              $ + + > < , , < , ; + + $ %                                                       ",
"                                                    $ $ $ $ $ $ %                                                               ",
"                                                                                                                                ",
"                                                                                                                                ",
"                                                                                                                                ",
"                                                                                                                                ",
"                                                                                                                                ",
"                                                                                                                                ",
"                                                                                                                                ",
"                                                                                                                                ",
"                                                                                                                                ",
"                                                                                                                                ",
"                                                                                                                                "
};
