/* XPM */
static char *_663de3ca749490883c831b2e5b1e7d8DmFS9N8MgBd7UrnD[] = {
/* columns rows colors chars-per-pixel */
"64 64 173 2 ",
"   c None",
".  c #0C1429",
"X  c #11172B",
"o  c #141A2D",
"O  c #1A1F30",
"+  c #1C2132",
"@  c #242636",
"#  c #252836",
"$  c #272C39",
"%  c #2B2D39",
"&  c #2E313B",
"*  c #33343D",
"=  c #373640",
"-  c #383740",
";  c #373941",
":  c #3B3B42",
">  c #413F44",
",  c #424246",
"<  c #474348",
"1  c #494649",
"2  c #4B494B",
"3  c #514C4D",
"4  c #53514E",
"5  c #574F52",
"6  c #575150",
"7  c #5C5354",
"8  c #5E5954",
"9  c #615756",
"0  c #625A56",
"q  c #615758",
"w  c #655C59",
"e  c #695E5B",
"r  c #666158",
"t  c #6C645C",
"y  c #6F695E",
"u  c #70695F",
"i  c #756A61",
"p  c #7E6D65",
"a  c #7F7066",
"s  c #816F66",
"d  c #817366",
"f  c #857469",
"g  c #88766A",
"h  c #877A6B",
"j  c #8C7A6D",
"k  c #907C6F",
"l  c #937F71",
"z  c #8A806C",
"x  c #90806E",
"c  c #958671",
"v  c #9B8574",
"b  c #948970",
"n  c #9D8B76",
"m  c #9F8A78",
"M  c #9C9075",
"N  c #A18A77",
"B  c #A28D7A",
"V  c #A5947A",
"C  c #AB937D",
"Z  c #A6987A",
"A  c #AD9B7E",
"S  c #B09A7F",
"D  c #B1A27E",
"F  c #AC9D83",
"G  c #B29781",
"H  c #B59B82",
"J  c #B99D85",
"K  c #AEA48A",
"L  c #AFAD8C",
"P  c #B5A282",
"I  c #BCA386",
"U  c #B2AB87",
"Y  c #BFA987",
"T  c #BFA288",
"R  c #B1AD8D",
"E  c #B4B58E",
"W  c #B3AF91",
"Q  c #B5B192",
"!  c #B8B791",
"~  c #C5A78B",
"^  c #C8A78D",
"/  c #C5AC8B",
"(  c #C9AC8E",
")  c #C1B08A",
"_  c #CBB48D",
"`  c #CEB98E",
"'  c #D1BB8F",
"]  c #CCAE90",
"[  c #D1AF92",
"{  c #CDB392",
"}  c #CEBB93",
"|  c #C4BF9C",
" . c #CFBC9A",
".. c #D2B492",
"X. c #D3BC92",
"o. c #D0BE9B",
"O. c #C3C195",
"+. c #CDC195",
"@. c #C5C499",
"#. c #D2C294",
"$. c #DCC595",
"%. c #D2C49C",
"&. c #D5CB9C",
"*. c #D9CF9E",
"=. c #D8D39E",
"-. c #D3C6A0",
";. c #D7CFA7",
":. c #D6CEA4",
">. c #D6CCA3",
",. c #D8CCA4",
"<. c #D7D1A2",
"1. c #D7D0A7",
"2. c #D7D1A7",
"3. c #D7D2A7",
"4. c #D7D1A7",
"5. c #DCD6A0",
"6. c #D9D1A7",
"7. c #D8D2A7",
"8. c #D8D3A7",
"9. c #D8D3A6",
"0. c #DAD1A7",
"q. c #D9D7A5",
"w. c #D8D4A6",
"e. c #D9D4A6",
"r. c #D8D5A6",
"t. c #D9D5A6",
"y. c #D8D4A7",
"u. c #D9D5A7",
"i. c #D9D4A7",
"p. c #D9D6A6",
"a. c #D9D6A7",
"s. c #D9D7A7",
"d. c #DAD7A6",
"f. c #DAD7A7",
"g. c #DAD6A6",
"h. c #D9D5A6",
"j. c #DBD9A3",
"k. c #DCD9A3",
"l. c #DBD9A5",
"z. c #DBDAA5",
"x. c #DBDBA5",
"c. c #DBDAA4",
"v. c #DAD8A6",
"b. c #DBD9A6",
"n. c #DAD9A7",
"m. c #DBDAA6",
"M. c #DDD8A5",
"N. c #DCDBA5",
"B. c #DDD9A6",
"V. c #DCDCA5",
"C. c #DCDDA5",
"Z. c #DDDCA5",
"A. c #DDDDA6",
"S. c #DBDBA5",
"D. c #D7D2A8",
"F. c #D7D2A8",
"G. c #D8D3A8",
"H. c #D9D4A8",
"J. c #DBD5A8",
"K. c #DBD7A8",
"L. c #DBD5AA",
"P. c #D9D6A8",
"I. c #DCD6AA",
"U. c #DAD5A9",
"Y. c #DDD9A9",
"T. c #DEDBA9",
"R. c #DDD9AA",
"E. c #DFDDA9",
"W. c #DFDDA8",
"Q. c #DFDFA8",
"!. c #DEDCA9",
"~. c #E0DFA8",
"^. c #DFE0A7",
/* pixels */
"                                                                                                                                ",
"                                                                                                                                ",
"                                                                                                                                ",
"                                                                                                                                ",
"                                                                                                                                ",
"                                                                                                                                ",
"                                                                                                                                ",
"                                                                                                                                ",
"                                                                                                                                ",
"                                                                                                                                ",
"                                                                                                                                ",
"                                                                                                                                ",
"                                                                                                                                ",
"                                                                                                                                ",
"                                                                                                                                ",
"                                                                                                                                ",
"                                  X o * : $ o o o o o * , , $ o o o o o o o o o o o $ : * o X                                   ",
"                                & c A } 7.| Q U F Q R ) &.C.@.Q Q E U C C C A U ! W | 7.+.A l %                                 ",
"                              X b X...b.f.H.E.Y.7.H.Y.k.b.f.H.E.E.E.Y.N.*.5.N.I.Y.Y.H.b.f.{ ..l X                               ",
"                        .     * _ (  .H.b.f.7.1.1.7.b.C.b.7.b.C.f.f.N.C.f.b.f.1.7.b.f.7.G. .( _ *     .                         ",
"                      o 8 : % - ( ( %.G.f.f.1.1.f.C.C.C.b.f.1.7.1.f.C.b.1.1.1.f.1.f.f.1.G.%._ ` - % : 8 o                       ",
"                      X A _ p w [ _ =.f.1.b.1.1.f.f.f.f.1.f.f.f.f.b.N.1.1.1.f.C.f.1.b.1.D.>._ ..e p / Z X                       ",
"                      o Z ( p t .._ } j.f.7.f.f.1.1.1.7.f.b.C.C.C.N.7.1.1.f.b.b.C.f.1.f.f.>.( [ t p _ Z X                       ",
"                        V T p t X.%.%.=.b.f.b.f.1.1.1.b.b.C.C.C.C.b.1.1.b.C.f.f.C.b.f.b.H.%.( ..t j X.Z X                       ",
"                        Z T p : ( ( :.f.b.b.1.1.1.1.b.f.f.C.C.N.f.N.f.f.N.7.1.1.b.b.b.7.:.{ ( X.t g ' Z X                       ",
"                        i / s = _ _ >.b.C.C.7.1.1.b.f.f.N.C.C.7.:.f.C.b.f.b.b.7.b.C.C.H.-.{ _ _ : s _ Z X                       ",
"                        t / p ; _ ( >.f.C.b.1.1.f.f.f.C.C.C.N.1.f.C.b.f.b.C.f.1.f.C.b.1.D.<.{ ( * p Y Z X                       ",
"                        t ( g : ( ( >.D.f.b.1.b.f.f.b.C.C.C.C.b.b.f.f.N.C.f.1.1.1.f.b.1.b.&._ _ 1 j P Z X                       ",
"                        t X.N 3 ~ ( >.D.1.1.f.f.f.C.f.b.f.f.b.C.b.f.N.C.b.1.f.1.1.1.7.f.H.%._ / 3 C A n o                       ",
"                        t ` v 3 / ( >.f.1.f.C.N.C.C.b.7.1.f.C.C.C.C.C.b.1.f.7.7.f.1.7.C.C.&._ _ 3 N _ Z                         ",
"                        y _ v 3 ~ { 1.b.f.f.C.b.f.b.N.1.7.C.b.b.C.C.b.1.f.1.1.7.b.f.f.N.N.%._ _ 3 v _ Z                         ",
"                        B ( v 3 ~ { 1.b.C.f.f.1.f.b.f.f.f.b.7.f.C.b.7.f.7.1.f.f.b.C.f.f.7.>._ / 3 v _ V                         ",
"                        Z _ v 3 ~ _ <.C.C.f.1.f.C.C.N.C.f.1.b.C.C.b.b.7.1.7.b.b.C.C.f.1.f.j.#._ 3 v ( B                         ",
"                        Z ~ v 3 _ ( %.C.f.7.f.C.C.C.N.7.f.b.C.C.C.C.7.1.f.b.f.f.C.f.7.f.C.b.#._ 3 v _ y                         ",
"                        B ( N 3 / ( %.b.1.b.C.C.C.f.7.f.C.C.C.N.f.7.1.f.C.f.f.f.b.1.f.C.C.5._ / 3 v ` t                         ",
"                      o n S C 3 _ ` &.f.1.b.C.C.f.f.b.C.f.b.C.N.b.b.b.C.C.C.C.C.f.1.b.C.C.>.( _ 3 N X.t                         ",
"                      X V H j 1 _ _ &.D.7.C.b.7.f.C.N.7.f.C.b.f.f.f.f.f.b.b.f.b.1.7.C.b.f.>.` _ : g _ t                         ",
"                      o B T p * ( } 5.G.f.b.1.f.C.b.7.f.C.C.f.1.1.1.1.b.b.1.b.C.7.f.b.1.f.5.` ( = p / t                         ",
"                      X V _ s : ( _ } &.D.1.1.C.b.7.1.b.C.C.b.1.1.f.b.f.1.7.N.b.b.1.1.1.x.<.( ( = s / i                         ",
"                      o V { h t X._ { f.7.7.b.f.1.1.f.x.C.f.f.b.b.b.f.b.b.C.b.1.f.f.7.b.f.:.( ( : p T V                         ",
"                      X B X.x t X.( %.H.b.f.7.1.1.7.b.C.b.1.b.C.f.f.b.x.f.b.f.1.7.b.f.f.%.o.%.X.t p T Z                         ",
"                      X V _ p t ..( >.D.f.f.1.1.f.b.C.C.b.f.1.7.1.f.N.b.1.1.1.f.1.f.f.D.:.{ _ #.y p ( B o                       ",
"                      X Z ` d t .._ 5.f.1.b.1.1.f.f.f.f.1.f.f.f.f.b.N.1.1.1.f.C.f.1.b.G.:.&._ X.t d { V X                       ",
"                      X Z ..e e .._ 5.C.7.7.f.f.1.1.1.7.f.b.C.C.C.N.f.1.1.f.b.b.C.f.:.%.} -.( [ e e X.8 o                       ",
"                      o V ..7 r X.( &.C.f.f.b.f.1.1.1.b.C.C.C.C.C.b.1.1.f.C.f.f.C.b.f.#._  .( ..e 0 h 7 *                       ",
"                        Z ..8 r ..^ o.E.E.E.I.7.H.I.C.%.&.C.^.~.Y.~.Y.Y.~.Y.7.I.E.~.~.%.,.{ ( X.r 8 , @                         ",
"                        z $.7 e X._ ] ! E E F C K E O.{ _ #.O.E F U E E L L F R E E E R Q ] _ X.e 8 / ,                         ",
"                        % P i 4 D C d - - # o o % - 2 d A d , = - - * 2 0 > = - - - - = - d Z A 3 i $.t                         ",
"                        . 0 j & 2 C B G X.Y N m / ..I A I G S T _ _ ( / C ~ ] J ] ..' ] H V C 2 % g ' t                         ",
"                        * A v O e H J j e m j q e t t t y u 2 * ; * * 1 6 9 e 5 q v m e j J I t O v ..t                         ",
"                        t $.I 3 0 G N + X X                                         X o # Z H 0 3 J ..t                         ",
"                      . n X.J l * k G 6 9                                             2 a I c * l J X.M .                       ",
"                      X V ( C i 7 - I Z %                                             # C T - 7 i A _ B X                       ",
"                      o % g 6 $ 1 * P ` *                                             * _ P * < # 6 f % o                       ",
"                      . t ( C g i H T P *                                             * P Y P j v C _ t .                       ",
"                        $ t h + * p w ,                                                 , e p j g c y %                         ",
"                                                                                                                                ",
"                                                                                                                                ",
"                                                                                                                                ",
"                                                                                                                                ",
"                                                                                                                                ",
"                                                                                                                                ",
"                                                                                                                                ",
"                                                                                                                                "
};
