/* XPM */
static char *d7e711a3f627426aef5018c954ee6405Od8oRCTY1TyhW7k9[] = {
/* columns rows colors chars-per-pixel */
"64 64 216 2 ",
"   c None",
".  c #161B2D",
"X  c #1A1F30",
"o  c #1C2433",
"O  c #1C2837",
"+  c #222936",
"@  c #232D3B",
"#  c #2C2A36",
"$  c #25313D",
"%  c #2E323B",
"&  c #3C363A",
"*  c #3A3539",
"=  c #453B3C",
"-  c #4A3E3D",
";  c #3E4431",
":  c #4C473A",
">  c #52443D",
",  c #54533B",
"<  c #64593C",
"1  c #5D6335",
"2  c #676838",
"3  c #6C7237",
"4  c #72703A",
"5  c #253442",
"6  c #293642",
"7  c #2C3A44",
"8  c #2C3C49",
"9  c #263947",
"0  c #333E46",
"q  c #34444D",
"w  c #3A464B",
"e  c #2F4250",
"r  c #364B54",
"t  c #3B4D53",
"y  c #344853",
"u  c #3C545B",
"i  c #3E5256",
"p  c #2D414C",
"a  c #3E5C65",
"s  c #494945",
"d  c #5B4B42",
"f  c #4B514B",
"g  c #575747",
"h  c #444F52",
"j  c #435356",
"k  c #42555A",
"l  c #44595D",
"z  c #4F5251",
"x  c #585D57",
"c  c #634D44",
"v  c #6C5545",
"b  c #685645",
"n  c #735D44",
"m  c #755C48",
"M  c #5A645B",
"N  c #6B674D",
"B  c #786049",
"V  c #67675A",
"C  c #736A56",
"Z  c #77765B",
"A  c #707353",
"S  c #455D63",
"D  c #495F61",
"F  c #425F6A",
"G  c #466165",
"H  c #4B6465",
"J  c #44636B",
"K  c #4A666A",
"L  c #4D6A6B",
"P  c #516C6C",
"I  c #5B6964",
"U  c #466A71",
"Y  c #4C6C72",
"T  c #546F71",
"R  c #4D7176",
"E  c #4C737A",
"W  c #4E787F",
"Q  c #537374",
"!  c #547A7C",
"~  c #5B7B7C",
"^  c #587578",
"/  c #5B7065",
"(  c #697362",
")  c #777965",
"_  c #647E7A",
"`  c #656E64",
"'  c #98794E",
"]  c #9C7453",
"[  c #977857",
"{  c #89734E",
"}  c #AC7C55",
"|  c #A47B55",
" . c #8B7E61",
".. c #7E855A",
"X. c #7E874B",
"o. c #5C827D",
"O. c #76846C",
"+. c #7D986E",
"@. c #878F3A",
"#. c #A8B03C",
"$. c #C0C73F",
"%. c #9B9541",
"&. c #88835B",
"*. c #8F8B4F",
"=. c #AD8156",
"-. c #B48456",
";. c #B6895A",
":. c #AD964F",
">. c #A8AF46",
",. c #AAB354",
"<. c #ADAC54",
"1. c #888768",
"2. c #859969",
"3. c #969769",
"4. c #8B967B",
"5. c #949A79",
"6. c #928765",
"7. c #BA9362",
"8. c #A29E76",
"9. c #91A079",
"0. c #A9B57E",
"q. c #BAB47E",
"w. c #ABAA72",
"e. c #C09E53",
"r. c #D8BE4F",
"t. c #C8A657",
"y. c #D2AB54",
"u. c #D6BA53",
"i. c #C7BD51",
"p. c #C29461",
"a. c #C8B869",
"s. c #BBC36C",
"d. c #CBCA46",
"f. c #D8C74D",
"g. c #CDD341",
"h. c #DAD647",
"j. c #D9C855",
"k. c #E2D74B",
"l. c #E6E845",
"z. c #EDF443",
"x. c #EAF249",
"c. c #F0F743",
"v. c #ECF258",
"b. c #D6CC72",
"n. c #EEF467",
"m. c #E8EC79",
"M. c #557D82",
"N. c #5B7E82",
"B. c #558185",
"V. c #5B8485",
"C. c #5D8A8C",
"Z. c #5A8789",
"A. c #5D8D91",
"S. c #5F9394",
"D. c #638D8D",
"F. c #628786",
"G. c #728E86",
"H. c #6C928E",
"J. c #67928E",
"K. c #789785",
"L. c #638D92",
"P. c #688D92",
"I. c #639494",
"U. c #6B9494",
"Y. c #669C9C",
"T. c #6B9D9C",
"R. c #699798",
"E. c #749B96",
"W. c #6CA19F",
"Q. c #74A19D",
"!. c #7BA39B",
"~. c #7DA58A",
"^. c #689FA0",
"/. c #719EA1",
"(. c #6BA2A2",
"). c #69A2A4",
"_. c #72A4A4",
"`. c #7DABA6",
"'. c #75A6A9",
"]. c #74ABAB",
"[. c #7AADAD",
"{. c #78A6A4",
"}. c #7CB0AD",
"|. c #79AFB0",
" X c #7DB3B4",
".X c #7FB8B9",
"XX c #889F8D",
"oX c #92A789",
"OX c #8AA99D",
"+X c #83A797",
"@X c #91AE93",
"#X c #81AEA5",
"$X c #84AFA9",
"%X c #84B2AA",
"&X c #8BB7AD",
"*X c #93BCAE",
"=X c #95BAA4",
"-X c #82B4B3",
";X c #8CBAB3",
":X c #84BBBB",
">X c #8BBEBC",
",X c #93BEB1",
"<X c #B8BC8A",
"1X c #96C4BC",
"2X c #C6C787",
"3X c #DFD791",
"4X c #E4DE87",
"5X c #F2F584",
"6X c #EDEE8A",
"7X c #F6F9AD",
"8X c #8ABFC1",
"9X c #8DC3C4",
"0X c #8BC4C7",
"qX c #97C8C3",
"wX c #F8FAC1",
"eX c #FCFDE9",
/* pixels */
"                                                                                                                                ",
"                                                                                                                                ",
"                                                                                                                                ",
"                                                                                                                                ",
"                                                                                                                                ",
"                                                                                                                                ",
"                                                                                                                                ",
"                                                                                                                                ",
"                                                                                                                                ",
"                                                                                                                                ",
"                                                                                                                                ",
"                                                                                                                                ",
"                                                                                                                                ",
"                                                    9 J u p t E Y K r 8 y g                                                     ",
"                                              e N.Y E (.(.I.C.Y.Y.T.I.~ Z.&.oXY e                                               ",
"                                            r I.0XR.Q.[.].(.I.R.(.].].T.'.^ E.9XI.r                                             ",
"                                      9 5 + Q _.9X#X8.+X X[.D.R. X9X:X XU.N.].9X_.^ + 5 9                                       ",
"                                  9 5 B.S 7 L I.,X=Xb.O.(.(.R.I._.:X[.-XJ ~ -X;XI.L 6 S B.5 9                                   ",
"                                9 W u E.) t K Z.(.J.` P _.(.(.(.I.I.I. X~ O.oXQ.C.S t L T.u W 9                                 ",
"                                8 R.K 5.a.I T. X'.Q u L '. X X`.^ Q ]. X^ :.4XOX X_.T B.C.L R.8                                 ",
"                              q k Y j ( N l _.qX:XV.5 G R. X X%XK.L (.W.G :.4X@X0X[.P S S h Y k q                               ",
"                            @ D D k Z N @ T R.#X[.L.r P I.R.T.(.R.K R.(.! f ..E.].R.Q 7 q j k S D @                             ",
"                          q t 0 ^ /.2X3.f O.J.B.I.'.'.R.F.D.I.R.C.r Z.].R.T.T.C.B.Z.K G J /.[.Y 0 w q                           ",
"                        t P t 8 _.:XoXZ w.a.N r ~ :X9X1X;XE.S B.P 8 Q '.>X1X,XD.t q l L..X0X0XT.8 q L w                         ",
"                      @ j q 7 H D.].-Xw.m.b.b l ^ I._.#X*XE.q F.L.R.{.D.~ (.R.F.l *.w.OX X|.].I.H 6 z ( @                       ",
"                    . 8 q @ q Q B.C.R.~.X.&.0 l B.R.Y.Y.W.Q q R.|.:X;XZ.G A.1.5.s f.6Xs.I.Y.C.V.Q q d 1.8 .                     ",
"                    $ H j 7 L /./.M.A._.G j @ l Z.R.Y.Y.S.) V Z.Y._.(.Y Q L.&.0.f :.b.,.D.L.M././.K w M G $                     ",
"                  q h 3. .j D.0X9X'.'.:XT.l $ N._.R.^.^.M.6.8.Q E _.|.U.{.[.G.=X~ s ..~. X'.'.9X0XH.r i P t 6                   ",
"                  k x b.:.D (.:X:XqXqX1X{.L 7 F. X-X;X&X!.XXoXK q D.].%X}.].(.(.F.7 K {.qXqXqX1X>X(.K 8 i j i                   ",
"                  t f *.A J (.(.].;X,X#X~ L 6 K D.[.,X*X*X[.Y.L q Q I.(.Y.Y.Y.C.L 7 L ~ #X,X,XOX+X(.! 6 6 t t                   ",
"                o w 7 t ^ ! (.Y.Y.W.Q.R.P k % x ~ U.E.!.!.H._ Z C M _ D.J.I.Z.Q M 0 u P R.Q.U.O.<XU.M.Y w 0 w X                 ",
"                o w $ G B.L. X X].(.Y.R.K 7 = [ 1.) ( 5.8.) C 7.7.b C 6.1.` V  .[ s 6 K H.4.4.N 2XQ.L.B.M  .z o                 ",
"                + q S P T 4.@X[..X].C.~ H r - ;.;.B v ;.p.m m p.;.m B ;.=.c m ;.=.s t K I a.3X*.K.H.V.L M q.f o                 ",
"                7 Y '.R.9.2Xi./ E.E.R j H t & } =.n c ;.:.n c } :.v n e.| c n -.| & t K s t.b.,.K P Q F.U.=XL 7 .               ",
"              . l R.9X'.,.5Xf.: 5.3.F ^ N.q # v n : & { *.2 < { %.2 2 %.b & : m v # r ~ ^ 5.0.+.7 ~ Q.;X9X:XR.l .               ",
"              o ! Y.].I.2.s.*.w 2...P.&XU.K 6 = & - # 2 #.>.>.<.>.,.,.#.1 # & & = 6 K E.*X,X-XI.7 D.-X,X-X].Y.! o               ",
"              o V.(.Y.R.I.K.V 0 o.D.[.%XI.^ 8 c v { c @.c.n.7X7X5Xn.v.c.@.d v m c 0 Q R.`.&X_.J.q G R.W.T.Y.(.V.o               ",
"              @ M.].].(.(.E.w., E (.Y.Y.Y.o.q c ] =.' 3 z.5XeXeXwX5Xx.z.2 %.] | c w _ Y.Y.Y.G.w.) G I.(.(.].].M.@               ",
"            . t C.].:X-X:X;X2X, J (.(.(.C.L 5 > } | <.2 z.n.5X7XwX6Xx.l., d.;.=.- f q.H.^.).I u.w.E.-X:X-X:X].C.t .             ",
"            o H Y.(.}.$X%X>X+XH R. X X XR.~ r & } ] i.1 l.z.z.v.m.n.z.g.; j.| -.* g 2X+X X XT 3.2.T.>X$X$X}.(.Y.H o             ",
"            $ q a E Y.T.R.T.V.OXqX9X9X9X>X-X! + { 7.j.3 g.l.k.k.k.h.l.g.1 u.] ] + R %X>X8X9X>X1XOXV.T.R.T.Y.E a q $             ",
"                O @ U Y.Y.B.t G.*X;X`.T.W.T.! q m p.t.3 d.k.h.r.y.f.x.#.2 t.-.m q ^ T.T.T.`.;X,XG.t B.Y.Y.U @ O                 ",
"                      U J e + K _.(.(.(.R.U S i v ;.-.< d.l.k.y.y.u.k.@.> -.-.d q u R I.(.(.(._.K o e J U                       ",
"                              7 U M.I.Z.E @ @ 5 = ] ] B $.x.r.t.y.y.r.4 d ] } - O o $ a C.S.W U 5 .                             ",
"                                                o > v m 1               * - m #                                                 ",
"                                                                                                                                ",
"                                                                                                                                ",
"                                                                                                                                ",
"                                                                                                                                ",
"                                                                                                                                ",
"                                                                                                                                ",
"                                                                                                                                ",
"                                                                                                                                ",
"                                                                                                                                ",
"                                                                                                                                ",
"                                                                                                                                ",
"                                                                                                                                ",
"                                                                                                                                ",
"                                                                                                                                ",
"                                                                                                                                ",
"                                                                                                                                ",
"                                                                                                                                ",
"                                                                                                                                ",
"                                                                                                                                "
};
