/* XPM */
static char *result[] = {
/* columns rows colors chars-per-pixel */
"64 64 241 2 ",
"   c #080D28",
".  c #0D132A",
"X  c #091026",
"o  c #11162C",
"O  c #151B2E",
"+  c #191E2F",
"@  c #191E31",
"#  c #151D31",
"$  c #1C222F",
"%  c #1C2332",
"&  c #1D2737",
"*  c #222633",
"=  c #242B33",
"-  c #2A2D34",
";  c #232C3B",
":  c #2A2D39",
">  c #322F37",
",  c #2C3435",
"<  c #2B343B",
"1  c #2B3739",
"2  c #323335",
"3  c #333C35",
"4  c #33333B",
"5  c #333B3A",
"6  c #3C3B3B",
"7  c #3B3938",
"8  c #252B2F",
"9  c #433C3C",
"0  c #3D4A39",
"q  c #384339",
"w  c #2F423D",
"e  c #4B433C",
"r  c #46493A",
"t  c #544B3D",
"y  c #49563C",
"u  c #56573B",
"i  c #61593D",
"p  c #56663D",
"a  c #5D703F",
"s  c #6F6F3E",
"d  c #293745",
"f  c #373A43",
"g  c #1C2E43",
"h  c #433D43",
"j  c #384649",
"k  c #3E5346",
"l  c #364A53",
"z  c #3B545C",
"x  c #3D5256",
"c  c #2F4350",
"v  c #3C5962",
"b  c #494746",
"n  c #544C4B",
"m  c #594C46",
"M  c #475746",
"N  c #595845",
"B  c #445959",
"V  c #5A5754",
"C  c #484D5A",
"Z  c #675748",
"A  c #725D49",
"S  c #635B52",
"D  c #675854",
"F  c #624F44",
"G  c #4C6649",
"H  c #576945",
"J  c #5B7448",
"K  c #4B6657",
"L  c #597952",
"P  c #526856",
"I  c #646543",
"U  c #686945",
"Y  c #786846",
"T  c #667745",
"R  c #767A47",
"E  c #686359",
"W  c #76685A",
"Q  c #6C7856",
"!  c #445D62",
"~  c #486569",
"^  c #4B6D73",
"/  c #4E7377",
"(  c #537374",
")  c #55797B",
"_  c #526F69",
"`  c #75736B",
"'  c #605F60",
"]  c #857E3E",
"[  c #877746",
"{  c #84735B",
"}  c #8A7747",
"|  c #8A7765",
" . c #947A69",
".. c #837168",
"X. c #5E8355",
"o. c #6C8243",
"O. c #6A864A",
"+. c #738A45",
"@. c #778648",
"#. c #7B9549",
"$. c #658854",
"%. c #768A57",
"&. c #6C945A",
"*. c #749959",
"=. c #7CA75C",
"-. c #769C67",
";. c #6A916C",
":. c #7BA962",
">. c #78A663",
",. c #5C8175",
"<. c #8D843F",
"1. c #83824B",
"2. c #888849",
"3. c #978C46",
"4. c #849C49",
"5. c #99964B",
"6. c #989955",
"7. c #8A9054",
"8. c #A69846",
"9. c #A09750",
"0. c #8AA64B",
"q. c #92AD4C",
"w. c #96A24E",
"e. c #9CB94E",
"r. c #97B44D",
"t. c #84AD5C",
"y. c #8AAD5B",
"u. c #86A856",
"i. c #97A759",
"p. c #8DB256",
"a. c #8BB159",
"s. c #87B15B",
"d. c #94B553",
"f. c #9BB653",
"g. c #9BB950",
"h. c #97B45B",
"j. c #ACA146",
"k. c #B3A545",
"l. c #B5A846",
"z. c #B8AC4B",
"x. c #A1BA4F",
"c. c #A8A856",
"v. c #B9AC55",
"b. c #A4BA51",
"n. c #ABBA54",
"m. c #A8B45A",
"M. c #B4BB56",
"N. c #B4B55C",
"B. c #B5B959",
"V. c #BCBA5A",
"C. c #B9B658",
"Z. c #BCB24E",
"A. c #9B866B",
"S. c #849B69",
"D. c #99967C",
"F. c #918772",
"G. c #A1896D",
"H. c #AA8D72",
"J. c #AA9675",
"K. c #B49975",
"L. c #AC966B",
"P. c #88A765",
"I. c #98A865",
"U. c #8BB262",
"Y. c #A6AE63",
"T. c #B9A37B",
"R. c #B2B263",
"E. c #C3BC5B",
"W. c #C3BB56",
"Q. c #C3AF5E",
"!. c #C5B46A",
"~. c #C3A57B",
"^. c #C9AB7E",
"/. c #CCB275",
"(. c #CEB176",
"). c #C29D65",
"_. c #A5C551",
"`. c #B3C355",
"'. c #BDC165",
"]. c #C9C45C",
"[. c #C9C964",
"{. c #D7D86B",
"}. c #D2C676",
"|. c #DADD71",
" X c #CFD062",
".X c #DEE172",
"XX c #DEE06F",
"oX c #E6EA76",
"OX c #567D82",
"+X c #7C7F88",
"@X c #5C8688",
"#X c #5E9092",
"$X c #62898B",
"%X c #649494",
"&X c #669B9B",
"*X c #6A9B9C",
"=X c #68918F",
"-X c #6E9EA0",
";X c #6CA3A3",
":X c #76A9AA",
">X c #7CB2B2",
",X c #72A29F",
"<X c #B4AA89",
"1X c #85B9B8",
"2X c #86AFA7",
"3X c #ADAEB0",
"4X c #8D908E",
"5X c #D5B583",
"6X c #DAB986",
"7X c #D8BA88",
"8X c #CAB489",
"9X c #E1BE89",
"0X c #C1BAB3",
"qX c #DBC58B",
"wX c #DCC795",
"eX c #D0C997",
"rX c #E3CB97",
"tX c #E5D49B",
"yX c #E2CF8A",
"uX c #D3CDB4",
"iX c #ECDBA5",
"pX c #EDDEAA",
"aX c #E6D6A3",
"sX c #EBDDB6",
"dX c #EFE1AB",
"fX c #EBE2A6",
"gX c #F3E3AB",
"hX c #F2E6B5",
"jX c #EDE2B7",
"kX c #E8E39B",
"lX c #8CC3C4",
"zX c #D4D2CB",
"xX c #EADCC4",
"cX c #F5ECCA",
"vX c #F4EDD7",
"bX c #FBF4DA",
"nX c #F0E7CA",
"mX c #FCF8E8",
"MX c #FDFCFA",
"NX c #F0EBE3",
"BX c None",
/* pixels */
"BXBXBXBXBXBXBXBXBX$ % O BXBXBXBXBXBXBXBXO $ o $ BXBXBXBXBXBXBXBXBX+ % O $ % % o BXBX= $ BXBXBXBX% @ BXBXBX% * BXBXBXBXBXBXBXBXBX",
"BXBX3 +.0 o % BX$ w -.1 3 r . U I O 3 u r * $ y % r - y & G k BXo 2.5.L G R 6.1 k I C.7.o 9 3.9 y #.% w o 5.c.% BXBXO J u BXBXBX",
"BXBXq _.0.o.0.q #.@.P.T v.5.N 2.3 O 2 ] i 2 - = , 5 u 0.4.p.G R I 2.[.Y.m.].[ T m.c.`.b.o.Z V.b.T e.O.U.U c.2.Y 7.7 G _.e.= BXBX",
"BX1 1 G d.e.e.+.q.`.n.V.!.6.T - 8 r <.l. X{.|.|.7.H 5 1 o.q.w.M.E.c.C.C.V.B.6.N.E.V.V.n._.x.e.e.e.e.g.m.m.C.c.`.c.u =.0.p = BXBX",
"BXX.U.=.p.e.e.e.e.e.r.e.f.a 8 8 s k.l.W.].|.{. XXXoX[.N 4 o.r.e.e.n.e.b.b.e.g.b.V.B.B.B.V.B.b.m.b.e.e.e.e.e.n.x.+.#.=.=.0.0.% BX",
"BXj G #.p.s.t.t.d.b.B.x.a , * i 3.l.].{.{.|.[.v.W.{..X].1.r @.m.n.e.d.e.p.e.e.e.e.e.e.x.e.p.:.:.=.t.a.b.B.n.x.r.d.:.a.q.o.a $ BX",
"BX3 o.+.d.a.:.s.t.h.C.7.- $ t ] j.l.E.{..X.X.X{.{.XXXX.XoXi.r 2.m.m.t.a.a.p.e.a.s.r.d.r.t.t.p.p.:.t.t.h.B.B.m.t.s.a.s.e.#.O BXBX",
"BX0 0.0.e.0.p.e.y.P.0.M 8 7 2.k.l.l.W.{.|..X.XoX].]. XXX.X{.8.u O.u.s.p.t.t.p.:.s.:.:.d.r.d.d.d.d.e.y.:.d.t.t.t.p.s.:.s.u.; BXBX",
"BXO 5 y y a @.].N.S.,.0 > F [ 3.j.<.2.3.6.6.V.|.{.E.E. XXXXXV.b < %.P.:.t.t.>.s.r.f.r.d.y.P.S.P.P.V.R.I.;.I.S.U.:.:.t.:.=.T e BX",
"* 2.c.R.6.!.N.m.U.R.i.y 2 s j.l.8.t o       6 7.[.{.[.c.[.|.oX@.3 R m.B.e.e.t.P.h.h.m.I.R.B.Y.V.N.B.U.m.Y.M.B.V.M.x.e.s.U.].1.BX",
"+ N T r.p.a.=.:.>.>.*.0 9 } j.k.3.Z m > @ O   . 7.|.oX6.i N..X[.R y 4.U.g.e.f.b.b.b.b.g.e.f.p.a.U.>.>.>.:.s.d.p.p.d.e.d.y.H * BX",
"BX. p g.d.p.t.s.d.:.*.k > t } 8.3.Y A A b * # . b Y.|.|.U H R.|.[ q %.N.f.e.r.e.e.n.V.V.n.e.d.p.s.:.p.t.>.t.a.y.R.g.e.e.g.0.q BX",
"$ +.c.e.e.f.r.e.e.r.d.@.7 7 Z 3.3.} A A Z 9 % O . r 6.|. Xe Z [.j.= R Y.B.n.f.r.g.b.x.x.M.x.r.e.g.e.e.g.d.f.N.N.m.n.n.b.b._.+.BX",
"* y $.t.a.e.e.e.e.e.p.*.y , 7 F Y Y A A Z 7 % $ O . u v. Xu u c.R - L &.&.*.$.&.&.=.=.p.p.e.e.e.e.e.e.e.d.t.d.t.>.P.U.t.>.%.0 BX",
"BXp e._.f.d.P.:.r.P.P.d.0.u % * 2 9 F t 7 @ 3 y 2 O 9 ] v.s Y 8.Z * u H K P ~ G L X.&.q.e.e.e.e.y.-.d.y.:.d.e.n.p.t.d.a.=.w   BX",
"BXp +.T t.-.I.I.-.I.Y.h.B.c.U r , * = * * 3 +.*.H , $ s ] t s ] t < M _ ) @X@X) ;.` Q #.t.=.y.-.I.Y.-.P.R.I.n.E.V.h.e.x.`.R % BX",
"BX% I 2.6.I.R.].N.E.V.V.E.C.E.B.4.1.u y T %.;.S.E < $ ] s 7 <.i g z v OX&X&X&X-X:X$X! P 7.S.S.Y.Y.E.V.V.V.V.E.V.E.V.b.b.n.R 6.@ ",
"BXo._.`.V.m.N.U.h._.e.f.I.:.m.B.b.q.0.w.i.R u r d @ $ s t 9 <.9 # c / #X-X#X&X:X1X,X( M U 7.c.i.c.I.U.m.b.r.h.:.m.V.B.!.n.m.e o ",
"BXq 0.b.f.>.>.>.:.s.a.:.t.=.&.#.#.@.@.o.y > - b > @ 9 m 8 8 9 > 6 : g z OX^ &X>X>X=X^ j & v =X,.X.$.&.u.p.=.=.t.:.h.!.yXR.w.T $ ",
"BXq d.a.>.a.p.t.s.=.:.s.p.+.y M B ~ x & 4 W G.G.F 7 t 7 o o X ` 0X3X+Xd d ! &X;X*X$X) v d @X1X*X/ M P $.$.=.a.e.f.!.7XrXQ O.q.$ ",
"q 0.e.M.b.B.g.g.g.p.d.e.@.k K _ OX@Xc o @  .zXxXzX3X0X3X3X3X3XzXmXxX+X@ @ d &X&X*X;X>X=Xx OX;X:X@X! ! b M J #.q.!.9XjXF.J , 3 BX",
"3 #.r.V.V.h.s.t.=.=.:.=.M j ! ~ ( ^ ; : : ; h 4XxXmXMXmXmXNXNXsXaX8X' h * @ ^ #X&X:X>X*X~ ~ ,.) ( ( ~ d j x P J.5XnXNXf P =.q.q ",
"BX* 7.E.e.e.p.P.>.>.-.&.1 l C B B d # n W D ..<XaXhXhXpXsXaXaXiXiXaXrX8X .d d OX#X-X:X%X( x ! ! OX*X$XC l f W 8XnXMXzX; q O.e.3 ",
". 2.].V.b.e.e.p.s.-.$.P < j j C f & * D  .K.5XtXpXpXgXnXjXvXmXmXmXbXsX9X5Xn g ^ #X%X&X%X) f c ! *X1X2XOXP & E xXMXMXeX= U , q BX",
"o u 7.b.b.e.e.e.0.@.H b j j f j d # f .. .5X5X9XsXpXhXcXcXvXmXMXMXMXMXsXtXH.g OX:X$X^ ,.^ & d @X1XlXlX2X4Xr 3XMXMXbXeX; [ N N $ ",
"$ p p @._.b.b.r.R y j x ~ z f l d % D | H.5X5X9XiXsXpXgXgXgXdXcXzX` <XpXgXwXD C ,XOXC j d $ z :XlX1X1X2X<XT.xXMXNXhXeX; o.n.B.* ",
"* 4.4.p.P.>.t.O.y j x ( @X! c ^ f g W  . .5X5X9XrXpXpXgXgXpXiXcXzXd W 6XiXiX .& @X@X! d l g ~ -X>X:X-X$XT.hXbXMXrXrXeX; a #.u O ",
"BXO a e.p.t.$.G j j B ) *X! x ~ d * n  .K.5X5X5X6X9XpXgXpXgXhXbXuXd * K.sXvXD.# c / v ~ OXl B #X-X;X=Xd =XvXmXxX9XrX8Xg T G o BX",
"BXw J y.p.0.J M < d x ( ;X^ C z g h .. .5X5X5X5X6X7X9XaXsXsXmXMXzXf O Z 7XsX<X: c ^ ~ OX$X~ x / $X&Xv & 2XmXsX6XwX8Xb , L L $ BX",
"% >.&.,.t.Q j < : < j ! >X@X^ z g h  . .<X5X5X5X5X5X5X7XrXpXvXbXzXd o b 7XaXsX .c ) OX$X,.~ l v OX@Xg V uXhXrX^.tXW % < J +.o.O ",
"o w 0 Q I.u % * % ; j ~ >X:XOXd * h  .K.^.5X5X5X5X5X5X6XiXiXhXmXzXf O * A.rXxXB & / ,X/ ~ x c v / v ; D.dXiX7X9XK.4 % d G #.a $ ",
"BXT #.#.*.3 % b D 4 d ! $X:X=Xd @ h  .K.^.5X5X5X5X5X5X7XiXpXgXNX3Xd O o S G.D.b & ( *Xz c l z / / d C eXdX7X5X6X{ % f d y #.U BX",
"BXa e.r.+.1 % 4  .A.S 5 v @XOXd @ > h D G.K.5XJ.W V n n V V ' ' g # O O o . . O & ~ %X~ & d ! ( z g J.jXqX5X6X~.- l / z q p p BX",
"$ a q.q.o.1 & o 2 A.T.E d v ^ d @ o h ..G.K.5X^.K.E g . . . . X o # + O O O 4 h @ d ) ( 4 d ( OXg ' eXD. .^.qXD * =X;XOXl < 1 O ",
"$ o.+.&.J d < r 8 2 | K.D : ; d @ * .. .H.5X6X5XqXgX8XD.E f d < d @ @ + + D <XuXj ; K ` { n OX( 1 4XeXC W 6XJ.f z 2X:X%X~ G a % ",
"BXO J +.p c r <.<.y r A.K.W 4 * # o h ..K.~.~.5X5X6XtXgXaXeX8XuX3XC @ O 7 ^.pXdXF.* b { L.[ ( c V eXT.E J.9XD & OX:X-X*X^ j $ O ",
"BXO y a q l j 3.z.k.] i | G.A.V 4 @ > D |  . .K.^.5X5X6XiXgXhXmXMX3X* @  .rXcXhX<X% 4 A ).{ x < <XkX` W ^.K.: c %X;X;X;X/ c O O ",
"o N s , < c j 3.l.l.l.8.Y | H.K. .W h h V W ..K.(.6X5X5XrXpXgXhXmX3X* 4 K.xXmXdXJ.@ : h A m ; j <X<Xn { (.W ; @X;X;X:X:XOXx 5 $ ",
"- 5.a u j z 0 3.k.l.l.l.Z.).J.A.A.J.K.| E E f n H.5X5X5X7XaXgXfXcX3X* m rXhXgXwXW % N H 6 * = W <XE S ~.T.4 v >X>X1X1X:X$X~ j o ",
"# y q f ! ~ q 3.k.l.z.z.Q.^. .N 5 b ` J.eXaXE o W ^.5X5X5XrXpXdXhX3XC F.rXgXgX<X% > N.{.1.$ 6 T.{ , { 5XS * @X2X>X2X:X;X&X) B O ",
"BX0 y j x c q 3.k.z.].].!.(.qX5XK.{ > : E T.E O D K.5X5X5XrXdXgXgXjXzXbXpXdXaXD < a i 5.3.2 W ~.h 4 K.H.f c %X;X*X,X;X@X^ v l & ",
"0 q.T H G j q 3.k.l.Z.W.}.yXwXqXqX7XJ.7 n K.V % * F W G.~.tXdXdXhXbXmXbXiXrXJ.: N [.i - q e L.A.* D H.D ; v OX#X&X&X,._ K k w & ",
"q 4.T T R 0 3 <.k.l.Z.[.yXkXfXrX6X6X6XD E T.S $ o .   9 W K.aXgXhXcXcXgXrXG.9 + u {.].p $ b A.m h ..W : : l v ,.%X#X,.G J a X.w ",
"BX= $ R 0.u 0 3.k.k.l.E.|.kXtXtXqX6X5XD V J.S % + @ o   o 4 ` <XeXsXhXaX<X9 9 9 3 9. Xl.i 2 = o m | n * % g d K ( L w w M a 4., ",
"% &.X.y u.a r 6.v.l.k.z. XqXqXrXrX6X5X{ E L.S + > 9 - > O . . 6 S F.<X| f - Z 9 - 9 [ 8.k.s 9 * h h 4 > > 7 6 U Q L 3.1.+.u - o ",
"$ L u.d.u.J b L.(.V.v.z.Z.}.rXrXrX6X6XG.{ K.Z @ t [ i t 9 > * o X + 4 o 8 Z [ Z 9 o > i ] 8.} t : @ @ 9 s s , 1.9.9.N.E.].n.q BX",
". q N.M.x.T b K.5X5XqXyX{.(.6X5X5X5X5XH.G.~.V @ t 3.8.} Y A F 9 = O . > Z 3.8.t 8 - D n 2 q t i Z m - @ 2 9 , @.b.m.e.b.e.`.1.BX",
"$ #.T h.t.H M L.5XqXaXgXfX}.(.^.5X5X6XH.J.~.V @ 9 3.k.j.8.} Y Z m 9 9 i } 8.[ > O n  . . .m $ - 9 F 9 9 = $ a q.r.d.e.e.x.o.% BX",
"BX% L t.y.G 5 W ^.qXwXaXiX}.M.Q.!.(.5X|  .~.S O 9 } k.l.l.k.8.} A Z F [ 8.2.b $ @ n  .8X6XT.Z $ * - 9 t : 6 i.t.y.s.a.e.r.d.p BX",
"BX  w #.r.o.3 n ~.5XqXtXfXyX{.].W.Q.(.W { ~.S @ u 3.k.l.l.l.k.8.} } } 8.8.s $ o @ F H.5X6X6X~.W * + > > ; T u.a.d.p.t.r.:.a.p BX",
"BXy 3.N H %.M 9 G.5X5X7XqX}.{. XW.W.z.t n G.V @ 9 [ 3.k.l.l.l.l.k.k.k.8.i * $ % @ h | ~.5X6XqXG.= q U V K %.P.:.=.:.:.:.:.#.k % ",
"BX7.`.B.N.V.5.5 W /.7X5X(.!.W.].W.z.l.u h | m @ 9 A A } 3.8.8.8.8.8.3.i * O = 0 % o h W  .L.A.n 4 R i.N.I.m.N.V.m.g.e.t.:.*.L $ ",
"BXq q.d.y.h.=.M 5 W /.5X6X(.Q.z.l.k.k.u h W b $ > 9 7 6 e e r e 9 9 7 * % 8 T y > 9 % * = - : * M *.>.:.U.p.g.f.h.g.e.d.d.p   BX",
"BX* p e.d.p.=.&.M 5 ..^.6X(.v.k.k.l.8.s D V : O O O $ $ @ O O $ @ + o $ H +.0.0 > F h + * * 3 J *.>.a.=.>.:.t.t.Y.d.e.e.e.T y $ ",
"BX@.].e.e.r.d.e.0.y 5 ..^.6X!.v.l.k.s D D > & $ O O 8 3 3 q , $ O o $ Z c.x.q.0 % 6 9 2 R 4.0.p.d.e.e.d.p.f.B.N.B.B.b.e.r.0.+.$ ",
"BXq H s.t.d.e.e.r.4.r > { ^.(.z.k.] e h > 5 r , + + r s o.o.q $ O $ 0 X.*.7.u.L - - - r 0.r.r.e.e.e.e.e.d.t.p.U.>.U.I.h.a.M . BX",
"BXBXN n.h.d.y.a.e.u.*.y 5 W !.v.] 7 = * 5 H O.y - + * H O.o., + % 0 o.O.L O.$.$.$.O.#.u.r.r.g.e.h.U.f.p.t.d.e.b.p.=.U.>.d.p.0 BX",
"BXM E.E.N.P.I.S.-.P.I.7.H 7 Y s t n 4 q T +.p 5 % O O M Q M & # $ r Y @.O.+.o.+.+.5.g.e.p.p.h.>.P.S.-.S.I.y.n.W.B.d.h.:.&.+.3 BX",
"BX7.c.c.B.n.E.V.R.V.E.N.c.U 2 * 4 n y R 2.H 1 < = 1 < I 2.N q 3 3 3 r 1.2.+.@.2.2.1.%.-.S.-.-.I.Y.E.R.V.E.E.'.V.E.n.:.>.=.P O BX",
"BXe - a e.e._.b.m.V.b.b.m.*.I , * 3 a +.@.Q R @.1.@.@.1.O.Q @.+.o.R L 1.2.2.+.+.@.@.%.Y.B.V.!.`.V.Y.h.C.b.x.m.P.R.m.>.;.;.&.% BX",
"BXBXy r.0.d.0.=.:.0.q.=.P.:.=.J y a R 2.2.2.+.+.@.U X.L L X.a +.X.G L O.+.+.+.2.o.2.5.b.d.T @.#.P.-.&.p.r.t.:.*.$.d.u.s.&.= BXBX",
"BXBXT _.o.J 0 k L L &.G r.+.d.a #.4.y a 4.4.+.#.p H #.&.$.&.G 0 k p #.T #.T 5.a o.0.r.0.&.>.= X.d.k X.>.G t.O.0.1 o.p q._.0 BXBX",
"BXBX% y , BXBXBX; &.X.O q $ #.y q +.3 . #.x.p p w #.s G L #.O.O BXy J 8 y - r - #.p r.#.1 0 $ H p o w w q q.0 + BXBXO a T = BXBX",
"BXBXBXBXBXBXBXBXBX& % BXBXBX+ + BXBXBXBX, 0 BXBX. $ $ $ O $ $ BXBXBXBXBXBXBXBXBX$ O 0 = BXBXBXBXBXBXBXBXO % O BXBXBXBXBXBXBXBXBX"
};
