/* XPM */
static char *_53b08c2deb247d48ff9caa84b8b1e97GtyQOeeOAsE4ys8P[] = {
/* columns rows colors chars-per-pixel */
"64 64 183 2 ",
"   c None",
".  c #0C152C",
"X  c #151B2C",
"o  c #161B2C",
"O  c #161E31",
"+  c #191F30",
"@  c #1C202F",
"#  c #1C2333",
"$  c #1D2838",
"%  c #1A2535",
"&  c #212533",
"*  c #2B2A34",
"=  c #222D3B",
"-  c #242834",
";  c #322E36",
":  c #26313D",
">  c #2B343F",
",  c #343136",
"<  c #33323B",
"1  c #3B353A",
"2  c #383135",
"3  c #41363A",
"4  c #43393C",
"5  c #4B3E3D",
"6  c #4B403C",
"7  c #52433F",
"8  c #5B4A3F",
"9  c #263645",
"0  c #2B3642",
"q  c #2E3B45",
"w  c #2E3E4A",
"e  c #333C44",
"r  c #303F49",
"t  c #4C3F40",
"y  c #2E404D",
"u  c #344047",
"i  c #33434B",
"p  c #3A454A",
"a  c #37494F",
"s  c #3B494E",
"d  c #384147",
"f  c #314551",
"g  c #354A54",
"h  c #3A4D53",
"j  c #374F58",
"k  c #394E58",
"l  c #3D5257",
"z  c #3C535C",
"x  c #3F5A5F",
"c  c #3B5661",
"v  c #3E5C64",
"b  c #474647",
"n  c #534242",
"m  c #5B4745",
"M  c #5A4944",
"N  c #5B544A",
"B  c #414C53",
"V  c #41555A",
"C  c #445A5E",
"Z  c #46585A",
"A  c #624D43",
"S  c #635144",
"D  c #695244",
"F  c #6C5449",
"G  c #6B5847",
"H  c #715646",
"J  c #71564B",
"K  c #745B49",
"L  c #5B615D",
"P  c #7C624A",
"I  c #445D63",
"U  c #485F63",
"Y  c #425F68",
"T  c #466165",
"R  c #4A6365",
"E  c #45636B",
"W  c #49656B",
"Q  c #4D6A6C",
"!  c #46686F",
"~  c #516C6D",
"^  c #466A71",
"/  c #4B6D72",
"(  c #496670",
")  c #516F74",
"_  c #4C7176",
"`  c #4D7379",
"'  c #537374",
"]  c #587777",
"[  c #577877",
"{  c #52767A",
"}  c #547A7C",
"|  c #5A7B7C",
" . c #787561",
".. c #86634C",
"X. c #8F6B4C",
"o. c #97704E",
"O. c #8C6C51",
"+. c #8A6551",
"@. c #926C53",
"#. c #82725C",
"$. c #977050",
"%. c #9B7352",
"&. c #977B57",
"*. c #A37A55",
"=. c #AC7E56",
"-. c #A37D5B",
";. c #5B817F",
":. c #A68259",
">. c #A88459",
",. c #B48357",
"<. c #B68A5C",
"1. c #BB8C5C",
"2. c #B58559",
"3. c #BC945F",
"4. c #BB9462",
"5. c #C19562",
"6. c #CCA368",
"7. c #D3AB6A",
"8. c #547D81",
"9. c #5A7D82",
"0. c #558185",
"q. c #5B8485",
"w. c #5D8887",
"e. c #5C858A",
"r. c #5D8A8B",
"t. c #568588",
"y. c #5E8F91",
"u. c #5F9293",
"i. c #618282",
"p. c #628B8D",
"a. c #6A8F8C",
"s. c #618689",
"d. c #728D83",
"f. c #66908F",
"g. c #648D92",
"h. c #639495",
"j. c #6B9494",
"k. c #649698",
"l. c #699799",
"z. c #669C9C",
"x. c #6A9D9D",
"c. c #719A9B",
"v. c #6BA19E",
"b. c #67A09F",
"n. c #70A09F",
"m. c #6E9DA1",
"M. c #719DA2",
"N. c #6CA3A2",
"B. c #6BA4A4",
"V. c #72A5A5",
"C. c #72A8A5",
"Z. c #7BABA6",
"A. c #72A9AA",
"S. c #77AAAA",
"D. c #74ABAB",
"F. c #79ADAD",
"G. c #7AABAC",
"H. c #77A4A7",
"J. c #7FB3AE",
"K. c #7DAFB1",
"L. c #79B1B1",
"P. c #7DB3B3",
"I. c #85A59B",
"U. c #80A9A5",
"Y. c #85AFAA",
"T. c #86B3AB",
"R. c #8AB6AB",
"E. c #94BEAF",
"W. c #83B5B3",
"Q. c #83B9B6",
"!. c #8CBAB3",
"~. c #81B7B8",
"^. c #81B8B9",
"/. c #84BBBB",
"(. c #8ABDBB",
"). c #94BEB1",
"_. c #95C4BE",
"`. c #9AC6BA",
"'. c #9FC9BD",
"]. c #8CC3C3",
"[. c #91C7C5",
"{. c #9BC9C2",
"}. c #92C9C8",
/* pixels */
"                                                                                                                                ",
"                                                                                                                                ",
"                                                                                                                                ",
"                                                                                                                                ",
"                                                                                                                                ",
"                                                                                                                                ",
"                                                                                                                                ",
"                                                                                                                                ",
"                                                                                                                                ",
"                                                                                                                                ",
"                                                                                                                                ",
"                                                                                                                                ",
"                                                                                                                                ",
"                                                                                                                                ",
"                                                                                                                                ",
"                                                                                                                                ",
"                                                                                                                                ",
"                                                                                                                                ",
"                                                          9 w g i   g Y E f g                                                   ",
"                                                      = y { q.r.} g h.N.z.l.M.z                                                 ",
"                                                9 ! / ` / z.N.z.z.q.B.k.z.L.].i.i                                               ",
"                                              f ` A.D.N.h.h.D.N.B.z.k.^ x.L.L.[ h O z g.z                                       ",
"                                0 h Y x = = h h.L.A.^.B.h.p.C.L.^.l.E T k.N.k.w.I : k.].g.w q                                   ",
"                              q R | b.h.w h w.L.L.k.h.S.N.h.h.x.x.q.V./ h.z.x.^.G.h 0.B.F.R C i :                               ",
"                            + h C R h.9.T C { N.A.q.z V.A.N.x.8.{ V.A.Y ` y.l.^.x.~ T [ I | ) e i h $                           ",
"                            $ p s s I T l.p.Y r.r.R V l.P.F.S.g.' k.N.} j { h.x.z.| q a W /.G.) l h & =                         ",
"                        & e i p d p h R V.^.g.G.l.z h p.A.D.A.B./ } z.k.9.M.C./ q.' $ 9 x.}.].F.r.I w s &                       ",
"                        0 B R h 0 I ] ' N.S.A.`.!.Y h ;.h.k.z.k.R z x.~._.{.Z.C h w # T /.].P.A.x.0.C R u :                     ",
"                      = s ' r.I a p.C.z 0.` u.Z.T.g.p.p.w.q.} w.C w j.(.).T.b.Q q j = ~ L.L.N.x.z.r.s l s h                     ",
"                    u 0 s 0.N.Y l x.H.k v i r.k.r.^.].L.V.9.r Q V T c.c.a.b.h.h ^ u.z V h.N.z.z.k.q.i 0 e Z =                   ",
"                  : s : i I D.{ I } I { 8.i ` } } /.'.`.].p.0 i.j.G.K.w.W k.8.( h.p.Q s E z.h.` ` h.9.g > s :                   ",
"                  > e = p C W.G.c.q.z p.b.f 9 h } S.R.R.J.p.q a.!.P.A.8.T V.m.K.} Q V i c k.` z j.W.n.R > p >                   ",
"                X 0 h V Z ~ j.L./.R.f.} w.V X h [ z.z.z.z.w.w ] v.x.A.h.c._.{.Q.v i a z 0.z.0.8.Z.c.| R C s : X                 ",
"                o h e.H.| Q w.z.V.Z.N.l R U # l ' k.z.z.k.' h ~ } { V.D.!.).R.C.` O a R | k.h.{ ~ ' | a.M.| g +                 ",
"                = ' A.].9.Q k.z.k.k.0.Y q.] : g W h.x.z.x.' ' | C a ;.z.V.V.b.h.| 1 : q.e.m.m.T h c.Y._.}.D.0.q                 ",
"                z h.N.D.} | r._ r.p.r.M.C.| h c r.G.F.W.W.U.m.h.Q 0 Z | r.h.q.U  .>.N j.L.~.L.) w F.!.).W.B.k.C X               ",
"              + R x.z.z.h.k.q.g ' l.V.D.x.[ Z ` B.L.~.`.).T.A.N.Q < F #.L W h 4 P 7.&.{ S.D.B.| q 8.v.v.v.z.B.W X               ",
"              # T B.L.N.N.N.x.^ z B.z.z.z.w.C I q.k.x.j.f.u.0.^ 9 4 :.<.G = 1 n J -.K g h.z.z.h.h c x.N.N.D.D./ $               ",
"            X 0 | N.^.Q.^.^.^.8.w h.N.N.h.} h < B Y ~ L  .C h e , , *.1.$.* 1 F %.+.b g w.N.N.k.I 9./.Q.W./.A.w.a X             ",
"            # C h.N.V.T.U.!.P.{ 9.G.P.P.C.s.h A H M n >.3.S n F J & ..*.X.* S *.,.K Q l.V.P.P.V.Q C.(.U.T.D.N.h.I #             ",
"            : i v ` k.b.k.x.r.I.{.[.].].(.^.C ..1.:.6 4.5.P m %.@.t ; , 3 1 <.&.*.b r./.].].[.{.I.r.x.k.b.k.` v i :             ",
"                $ = ^ z.z.0.h d.E.!.Z.x.N.N.z D <.:.6 *.1.D H 5.>.m @ * m K 1.=.A 9 h.N.x.Z.!.E.d.h 0.z.z.^ = $                 ",
"                      ! E i = } C.N.N.N.r.^ w 3 2.*.A n A , >.6.&.5 + m 5 o.2.%.- % Y e.N.N.N.C.] = y ! ^                       ",
"                              g _ r.y.r.z = % * H 7 ; + # o O.1.=.D # A A *.=.8 X o $ g 0.h.t.` f o                             ",
"                                                  &   X   . S ,.%.5   4 %.%.O.*                                                 ",
"                                                            2 A 5 &       7 4                                                   ",
"                                                                                                                                ",
"                                                                                                                                ",
"                                                                                                                                ",
"                                                                                                                                ",
"                                                                                                                                ",
"                                                                                                                                ",
"                                                                                                                                ",
"                                                                                                                                ",
"                                                                                                                                ",
"                                                                                                                                ",
"                                                                                                                                ",
"                                                                                                                                ",
"                                                                                                                                ",
"                                                                                                                                ",
"                                                                                                                                ",
"                                                                                                                                ",
"                                                                                                                                ",
"                                                                                                                                "
};
