/* XPM */
static char *_99e55ef5cc34561b8c19ac7065d8f2c26sc0LsrWfO91yWM[] = {
/* columns rows colors chars-per-pixel */
"64 64 234 2 ",
"   c None",
".  c #0E142C",
"X  c #11162D",
"o  c #151B2E",
"O  c #191E2F",
"+  c #0B0E2B",
"@  c #1B222F",
"#  c #1D2431",
"$  c #1E2833",
"%  c #232C33",
"&  c #232934",
"*  c #2A3639",
"=  c #363B37",
"-  c #2D2D35",
";  c #43393C",
":  c #364336",
">  c #33443C",
",  c #3D4A3A",
"<  c #3B4538",
"1  c #2F423D",
"2  c #47483C",
"3  c #49573B",
"4  c #544D3E",
"5  c #53643D",
"6  c #59693E",
"7  c #5D703F",
"8  c #60743F",
"9  c #2C3944",
"0  c #343C43",
"q  c #483D40",
"w  c #34434C",
"e  c #39454B",
"r  c #3A4A4C",
"t  c #384943",
"y  c #3C4D53",
"u  c #364A53",
"i  c #3E555B",
"p  c #3E5255",
"a  c #3E5544",
"s  c #3E5C63",
"d  c #474647",
"f  c #5B4A42",
"g  c #534B49",
"h  c #465645",
"j  c #595A43",
"k  c #435A5D",
"l  c #445758",
"z  c #585754",
"x  c #685547",
"c  c #745B49",
"v  c #634E46",
"b  c #4C6548",
"n  c #566A45",
"m  c #5B7347",
"M  c #4C6759",
"N  c #576954",
"B  c #5A7C53",
"V  c #567655",
"C  c #4F7159",
"Z  c #656845",
"A  c #766949",
"S  c #637542",
"D  c #6B7D44",
"F  c #677947",
"G  c #757948",
"H  c #677A57",
"J  c #727655",
"K  c #435D62",
"L  c #485F64",
"P  c #4A6365",
"I  c #4A666A",
"U  c #4C6A6D",
"Y  c #466569",
"T  c #536B6B",
"R  c #567366",
"E  c #4D6D72",
"W  c #466870",
"Q  c #4E7175",
"!  c #537375",
"~  c #537579",
"^  c #557A7D",
"/  c #5A7B7D",
"(  c #597575",
")  c #516E73",
"_  c #667468",
"`  c #637A75",
"'  c #86664D",
"]  c #977755",
"[  c #8B7151",
"{  c #A57C55",
"}  c #5E8358",
"|  c #6C8243",
" . c #65834D",
".. c #6C884A",
"X. c #738545",
"o. c #738A45",
"O. c #788748",
"+. c #7C9446",
"@. c #7C984A",
"#. c #668955",
"$. c #6B955B",
"%. c #759856",
"&. c #788B59",
"*. c #7BA55B",
"=. c #7EAB5F",
"-. c #79A35B",
";. c #5B8279",
":. c #5D8168",
">. c #6C986A",
",. c #719D60",
"<. c #749B6C",
"1. c #7C9C6C",
"2. c #789362",
"3. c #648B76",
"4. c #6B9672",
"5. c #728D68",
"6. c #75A664",
"7. c #7BA463",
"8. c #7BA962",
"9. c #78A665",
"0. c #84834B",
"q. c #8B8A4D",
"w. c #87884B",
"e. c #918F4F",
"r. c #839D49",
"t. c #87994A",
"y. c #94934F",
"u. c #869854",
"i. c #989952",
"p. c #8B8C55",
"a. c #AC8459",
"s. c #B3895C",
"d. c #85A24B",
"f. c #8AA44A",
"g. c #8DAB4C",
"h. c #92AC4C",
"j. c #98A94E",
"k. c #95B34D",
"l. c #9AB64E",
"z. c #9CB94E",
"x. c #97B84F",
"c. c #8CAD54",
"v. c #84AD5C",
"b. c #8AAD5B",
"n. c #84A656",
"m. c #97AA59",
"M. c #8EB256",
"N. c #87B05B",
"B. c #8AB159",
"V. c #94B553",
"C. c #9BB653",
"Z. c #9BB950",
"A. c #94B15B",
"S. c #9CB25D",
"D. c #95B955",
"F. c #A1BB4F",
"G. c #A8BB4F",
"H. c #ACAC55",
"J. c #A6A756",
"K. c #A3B654",
"L. c #ABB454",
"P. c #A4BA51",
"I. c #ABBA54",
"U. c #A3B45C",
"Y. c #ACB55C",
"T. c #AFB85A",
"R. c #B3BA56",
"E. c #B4B55C",
"W. c #B9B65C",
"Q. c #B5B959",
"!. c #BCBA5A",
"~. c #B5B756",
"^. c #B1AE57",
"/. c #839E6B",
"(. c #82A562",
"). c #83AB62",
"_. c #8BAC61",
"`. c #84A169",
"'. c #8CA26B",
"]. c #8AA564",
"[. c #93AD61",
"{. c #9BA965",
"}. c #94A569",
"|. c #98A767",
" X c #83B263",
".X c #9BB260",
"XX c #A4AD63",
"oX c #A8AE62",
"OX c #ACB161",
"+X c #A6B861",
"@X c #B2B360",
"#X c #B69361",
"$X c #C2BC5B",
"%X c #C8BE59",
"&X c #A4C350",
"*X c #AACB52",
"=X c #B8C357",
"-X c #A0C04F",
";X c #9EC155",
":X c #C9C45D",
">X c #587D81",
",X c #5A8385",
"<X c #5D8B8C",
"1X c #588487",
"2X c #5E8F90",
"3X c #628C8C",
"4X c #618785",
"5X c #66928B",
"6X c #638D91",
"7X c #639394",
"8X c #669B9B",
"9X c #6A9C9D",
"0X c #6A9697",
"qX c #749B99",
"wX c #76988D",
"eX c #6BA19E",
"rX c #74A29C",
"tX c #6B9FA1",
"yX c #719FA3",
"uX c #6CA2A2",
"iX c #72A4A4",
"pX c #74ABAB",
"aX c #7BACAC",
"sX c #78A9A6",
"dX c #7CB2B2",
"fX c #7FB7B8",
"gX c #7CAFAE",
"hX c #87B4AE",
"jX c #88B9B7",
"kX c #8CB8AF",
"lX c #94C1B7",
"zX c #8BC0BF",
"xX c #8ABFC1",
"cX c #8AC2C1",
/* pixels */
"                  o # o                 # @ X #                   O # o o @ # X     & #         O O       # &                   ",
"    = o., o #   O 1 ,.* = 2 . Z Z o t * e.G : r.% 2 % 3 # b a   X w.i.V b G i.* a Z W.e.X = e.2 3 @.# * X e.J.@     o S 3       ",
"    : &Xr.| f.: @.O._.S E.i.j :Xq.% ,.%.H.J.d.f.D =Xu.Z.r.M.b A Z q.:XU.U.$X0.S U.J.I.P.X.Z !.H.S z. ._.Z J.q.Z e.= b &XC.%     ",
"  * * b D.z.-Xo.h.=XR.W.$Xj.H.!.i.q.F $X!.$XI.j.l.z.D.V.z.z.j.R.$XJ.R.!.!.!.i.~.$X$X!.I.P.C.l.z.x.z.Z.I.L.W.H.!.J.h *.g.5 &     ",
"  B  Xd.V.z.z.z.z.z.z.z.I.z.I.F.z.P.P.!.Q.Q.Q.!.R.P.K.P.z.z.z.z.z.I.z.P.F.z.P.P.!.Q.Q.Q.!.R.P.K.P.z.z.z.z.z.I.F.o...8.-.f.f.&   ",
"  t b @.V.b.v.v.V.P.R.I.z.C.V.M.z.z.z.z.z.z.z.z.B.8.8.v.v.M.P.R.I.z.V.Z.M.z.z.z.z.z.z.z.z.M.8.8.v.v.B.P.R.T.z.C.x.8.N.g.X.n O   ",
"  * | ..V.B.8.v.v.S.!.T.S.b.B.B.M.z.b.B.V.V.V.b.=.V.M.8.v.v.S.!.Q.S.v.B.B.B.z.B.b.V.V.V.b.8.M.V.8.v.v.A.Q.Q.K.b.B.M.b.F.@.o     ",
"  , g.f.z.f.g.Z.b.v.V.v.N.N.M.v.b.M.8.b.8.v.V.z.V.V.V.V.z.b.v.V.v.b.b.M.v.v.V.8.b.8.v.V.z.V.V.V.V.z.b.8.V.v.b.b.M.b.8.N.n.%     ",
"  . = 4 3 Z O.$XW./.<.{.`._.8.v.v.8.B.V.V.z.V.b.'.`.`.].!.W.'.4.{.`._.8.v.v.8.b.V.V.z.V.b.'.`.`.].!.W.}.4.}.'._.8.v.b.8.=.F <   ",
"# q.H.Y.m.$XW.Y._.Y.XXI.!.!.T.z.z.v._.S.S.U.{.E.E.U.W.W.Y._.Y.XXI.Q.!.T.z.z.v.).S.S.K.{.E.E.U.W.W.E._.Y.XXI.R.!.Q.F.z.v.b.:Xw.  ",
"O j S V.M.B.).8.6.8.v.b.V.M.A.Z.z.C.P.P.P.P.F.F.V.B.A.).8.6.8.v.b.V.V.A.V.z.C.P.P.P.P.F.z.V.M.B.v.8.6.8.).b.V.V.A.V.z.D.b.n &   ",
"  . 6 z.V.M.v.v.V.8.8.v.B.A.Y.C.z.z.z.F.T.!.Q.I.z.V.M.v.v.V.=.8.v.B.A.Y.C.z.z.z.z.I.!.Q.I.z.V.M.v.v.V.v.8.=.B.B.Y.C.z.z.z.g.:   ",
"# o.J.C.z.z.z.z.z.V.V.K.E.T.U.Q.I.P.Z.Z.P.F.P.R.P.z.z.z.z.z.V.V.K.E.T.U.Q.I.P.Z.C.P.P.F.R.P.z.z.z.z.z.C.V.C.E.T.U.Q.T.P.Z.&Xo.  ",
"# 3 #. XM.z.z.z.z.z.M.v.V.v.6.)._.).8.8.=.B.M.V.z.z.z.z.z.z.z.M.v.V.v.6.)._.).).8.=.N.M.M.z.z.z.z.z.z.z.V.v.V.b.6.)._._.7.%.,   ",
"  5 &XZ.V.V.v.(.V.v.(.V.F.I.b.N.V.b.v.b.B.V.V.z.z.z.z.v.(.V.v.(.V.F.I.B.v.V.b.v.b.B.V.V.z.z.z.z.b.8.V.b.8.V.z.I.V.v.V.N.*.> +   ",
"  6 o.D v.<.XX}.<.}.oXm.Q.$XE.C.z.P.T.R.!.P.x.(.v.v.<.{.{.1.'.OX{.R.$XQ.C.z.F.I.R.!.I.z.v.v.b.<.}.{.1.'.OX{.T.$X!.C.z.z.=XD #   ",
"  # n w.i.{.W.%XW.$X!.!.$XE.$XQ.P.I.T.T.P.(.1.{./.'.{.OX%XW.$X!.!.$XE.!.!.P.I.T.T.I.(.1.}.'.'.XXOX%X!.$X!.!.$XW.!.!.P.z.I.G y.# ",
"  | &X!.!.I.Y._.A.R.z.C.S.8.T.!.T.z.z.T.Y.oXW.T.!.!.I.Y._.b.L.z.C.m.8.U.~.L.x.z.T.Y.oXW.T.!.!.T.Y.[._.T.F.C.S.8.U.!.R.P.P.L.2 . ",
"  : g.I.C.8.6.6.8.B.M.8.v.v.v.Z.z.P.R.P.R.R.P.z.P.K.*.,.$.#.#.%.$.#.#.#...@.f.L.P.R.R.F.z.P.K.=.6.6.8.b.M.8.=.v.v.V.z.z.Y.j.| @ ",
"  : V.N.8.B.M.v.b.8.8.v.V.z.V.Z.z.z.B.V.z.z.z.V.n.-.%...V M P R C C R ~ U R H &.g.z.z.z.V.B.=.v.V.v.B.8.8.v.M.z.V.V.z.z.h  .g.@ ",
"= g.F.T.K.T.Z.z.z.V.V.z.V.z.z.b.v.v.6.b.x.z.l.J.u.&.H l K ,X<X<XE ^ 8X9XtXiX! M #.g.k.C.R.I.K.T.P.z.z.V.V.z.V.z.z.B.v.B.V * *   ",
"* @.k.$X!.S.v.b.8.8.8.v.v.v.8.8.-.%.$.$.-.n.t.J _ ;.>X>X,X9XuXuX7X0X0X7XuXfX5Xk h V ,.n.H.W.!.U.b.b.=.8.8.v.v.v.).8.8.8.$.*.g.: ",
"  & q.!.Z.x.V.v.6.8.8.6.>.4.3.#.H H R C F X.H R 2XpXaXeX7X0XpXiXuX7X^ ,XuXpX4XK * i wX5.p.i.g.g.V.v.8.8.8.6.>.4.3.<.%.F h ..F.= ",
". w.:X!.I.F.z.V.B.8.9.4.}.E.2.N l P Q P 0 r E uXaXpXaXuX7X7XiXaXiX,XE >X9X9X7X/ u ^ fXiXP N G O.r.c.M.8.8.4.'.W.}.}.^.w.y.* :   ",
"X 4 y.K.P.z.z.z.z.K.Y.OX$X~.G r P ^ 8X,Xu K 3XaXpX2X6XpXuX8X0X0X6X0X<X>X7X8XdXaXU Q 7X0X~ P r t n o.h.K.Y.OX$X!.!.!.!.:XL.j j O ",
"O 5 6 O.I.P.P.z.z.z.z.F.L.d., y k P ,X~ E U ^ 9X8XQ I iXpXuX7X^ 3XuX1XW ^ 3XpXuX/ K I P >X,Xp u y , D h.z.F.T.z.P.P.z.P.k.I.!.& ",
"# d.r.M.8.8.b.b.D.P.T.j.o.n 0 e e r k U uX0X>X0X,Xk P 0XaXaXuX,X/ 7X7X~ ~ 7X<X<X^ w 9 ) dXjX0X! k 9 t S j.K.z.z.z.V.z.z.h.+.j X ",
"  o 7 Z.M.b.8.=.).U.E.0.h l l e w l P ! iXaXiXhX0Xi k 3X9XuXuX,XI ,XuXiXaXaX~ I K * w 0XxXcXaX0X~ p l r Z J.K.b.b.B.B.V.M.n .   ",
"  > m b.b.x.V.z.b.n.@.h e I ! i e ~ 3XU 7X7XiXkXsXQ ! <X<X<X<X~ i Q pXjXkXhX! u w % i iXjXaXuXuX<Xk k e y ..n.N.V.B.v.M.8.B o   ",
"$ ,.>.:._.`._.!.Y.5.l 0 y ^ 3XK i 0X9Xi E W 7XrX9XiXiX9X7X~ U U i ~ iXsXsXeXU i W u k 7XiXuXuX8X<Xy e e p N 2.).8.8.v.8.n.@.| o ",
"o > t F +X!.W.Y.n.Z h * r ~ tXW K <X>XY W i ,X1X6XjXlXjXsX! k ( >X0XqX4X3X7XW ~ <XU i E 7X8X<X1X<XI w 0 y h i.!.T.Z.z.v.).A.D @ ",
"  S r.@.B.A.).8.B t e * e I aX6X>X^ K ,X,Xu s E 3XhXkXkXaX~ P qXaXgX0X! ,X7X6X<X>XI y i <X<XW >XyX7XK 0 e t | V.S.C.z.V.K.I.S   ",
"  m z.z.z.M.v.-.n 9 w w l U iXaXaX0X~ ,X<Xw * i ,XiXsXsXuX~ L 0XsXpX8X,X9XhXhX>Xk p y Y 2X1XE 0XiX5XI y e 9 b n.U.C.z.z.r.@.m   ",
"@ S k.z.z.z.x.d.3 e U / T T 3XpXdXaX7XI ! y % k / 8X8X8X7X) k ;.3X0XiXiXhXlXhX^ 9 w l ~ 7X2X>X3X4X/ / / I w h j.Y.Q.I.P.D t > o ",
"o | @.b.v.M.n.o.> E uXjX/ T 7X8X8X8X1XK / L 9 i ~ 8X8X8X7X! ! U K E 0XiXsXsX9X,Xe 9 U ,X0X9XE l 3XqXhXjXiX~ r  .6._.[._.$.=.h.# ",
"  O ..Z.Z.V.%.m p <XuXaX^ ^ <X>X3X2X<X6X9XT u Y <XiXaXaXaXqX7X^ p y ! <X7X7X~ _ [ j / yXgXaX~ u 9XhXkXjXpX0XK 6 u.v.V.v.v.n =   ",
"  X 6 r.X.n J h P 8XuX9X2X<X>Xs ^ 0XtXpX0X) k ^ uXdXjXlXkXgXuX,Xy d J _ T I d c #X] ` uXaXpX/ w 1XiXsXiXuXuXU 2 e.c.z.z.P.S o   ",
"X j q.= j 0.[ 2 I uXpXuXuXuX7XY Y tXuX9X8X^ k E 7XuXiXrXqX0X1Xs 0 x { [ d 0 q x { [ l <X8X8X2Xp s 8XuXuXpXpXQ = G J.l.P.I.y.J.& ",
"& W.=XW.!.j.Z w ^ uXfXdXdXdXpXQ u 8XuXuX7X! y e L E ( _ _ I y 0 - x a.{ f - f ' [ v y ^ 8XuX8XP E aXdXdXhXpX1Xe j y.L.z.z.h.Z O ",
"O n k.I.C.B * k 7XuXpXhXhXjXaX~ ~ sXdXdX9X~ d f v g z ] ] g g f ; f ] ] f ; ' { ' P >X0XpXdXiXE 0XjXhXhXgXuX7XK > o.k.z.L.o.3 X ",
"  3 c.B.-. .t p Q 1X9XuX9XiX0XqXjXxXxXjXjX0Xz ' { A x #Xa.c c ' v ; 2 4 ; x ] { x ( sXjXjXcXjXqX7XiX9XuX9X1XQ p a ..k.z.V.;X| . ",
", &XP.Z.K.j.S n b M 3.eX8X1XI wXkXjXaXiXiX7Xl ' s.[ v a.{ x [ s.' = & ; f [ a.' 0 ^ iXsXaXjXlXwXP 1X8X9X3.M b n F @.v.B.8.} *   ",
": f.@.t.$XS.%...B V B 3.;.M r 4XaXsXuX9X<XE e v s.] f x x f s.s.A - - d x { { 4 & Y 1X8XuXsXaX3.9 k ;.3.B  . ...%.6.9.8.D.V.b.< ",
"  % # 0.P.V.c.-.,.$.#.V C M l I ;.5X5X4XC b j 4 c f = - = = a.s.' 2 d v ' { c d t b V 4.wX5X;.M h n V B #.$.>.>.3.} , t n F x.= ",
"# %.#.b M.z.z.M.b.8.,.:.&.m.5.H H &.p.H J D D G A Z 6 5 3 h [ { c j Z A ] ] f A H G X.O.&.&.J D @.d.%.$.,.>./.OX}.u.H.w.0.Z % X ",
"# V n.V.b.V.z.z.z.K.U.XXW.!.W.^.i.y.y.J.j.w.o.X.O.X.o.| | S A A Z G 0.q.[ A A 0.q.q.y.t.@.t.t.f.x.z.x.C.K.XX!.$X!.!.!.$X:X^.=   ",
". : ~.R.P.P.P.z.z.z.z.P.R.z.I.G.l.j.j.~.~.J.i.w.w.O.O.O.o.X.D | D 0.o.O.O.D X.o.e.J.H.~.H.H.j.K.P.z.z.z.z.G.R.P.P.I.z.P.z.=X0.  ",
"@ +.D D.v.8.B.B.V.F.I.P.z.z.z.V.x.z.z.P.z.x.j.+... .#. . ...o.O.o.X.X.o.o.+.+.o.t.k.z.P.P.C.v.8.b.B.V.z.I.P.z.z.z.V.z.z.z.| #   ",
"  @ V  XB.v.9.8.).U.!.Q.S.b.B.b.M.z.M.M.z.Z.k.%.$.%.-.$.$.%.u.i.i.u.%.%.-.n.h.n.n.x.V.z.B.8.b.B.8.8.8.S.!.!.K.b.B.b.B.z.V.k.5   ",
"  + > +.x.Z.M.z.b.b.C.b.M.B.V.B.B.V.8.=.8.v.V.V.g.l.z.c.k.b.n.j.n.c.n.c.b.b.V.8.=.8.v.M.V.V.z.z.M.z.b.b.C.A.M.B.V.M.b.V.8.M.5   ",
"  2 e.j 6 u.A.!.OX1.<.'.7.).8.8.=.8.B.z.V.x.x.b.`.1.7.].R.Y.1.<.'.7.).8.8.=.8.b.z.V.x.x.c.`.1.7.(.R.E./.>.'.`.).8.8.=.8.N.+.t # ",
"  q.=X!.E.!.!.W.U.Y.{.R.W.W.K.z.z.8.).A.A.S.[.oXW.OXW.W.W.S.E.{.R.W.W.K.z.z.v.).b.A.S.[.oXW.OXW.W.W.S.E.|.R.E.W.K.Z.z.v.8.%.B # ",
"  : g.D.b.A.).8.6.).b.M.Z.C.K.z.z.D.K.I.I.P.P.I.D.b.A._.8.6.).b.M.Z.C.K.z.z.D.K.I.I.P.P.I.C.B.A._.).6.8.b.M.Z.C.K.C.z.V.V.b .   ",
"  & n z.V.M.v.=.B.8.6.8.v.b.S.V.z.z.z.z.P.!.R.P.z.V.M.v.8.B.8.6.8.b.v.S.V.z.z.z.z.P.Q.R.P.z.V.M.v.8.B.8.6.8.v.v.S.D.z.z.z.S 3 O ",
"  O.=Xz.V.V.V.z.z.V.V.K.Q.Q.W.R.G.z.z.z.T.I.I.R.P.V.V.V.C.z.V.M.K.Q.Q.W.R.P.z.z.z.I.I.I.!.P.V.V.V.V.z.V.M.C.Q.Q.W.R.P.F.x.f.o.@ ",
"  : m b.N.V.z.z.z.z.M.v.A.).8.[.[.A.).v.b.M.V.V.z.z.z.z.z.z.z.V.v.A.v.8._.[.A._.v.b.M.V.V.z.z.z.z.z.z.z.V.v.A.b.6._.[.A.b.h +   ",
"    j +XD.V.c.b.z.b.v.V.z.P.v.v.B.=.8.=.v.M.M.Z.z.z.z.M.b.z.M.v.V.z.P.b.=.B.=.8.=.v.B.M.x.z.z.z.V.b.z.V.v.V.z.P.B.=.B.8.V.k.,   ",
"  4 !.%XW.].}./.<.'.{.A.R.$XY.V.z.z.P.I.R.G.z.b.M.V.7.}.'.<./.{.b.T.$XT.V.z.z.P.I.R.I.z.c.b.V.7.'.'.<./.{.[.I.$XQ.C.V.8...X.=   ",
"  e.J.H.R.I.$X$XOX!.$XW.$X!.$XR.z.T.R.Q.T.b.7.'.<./.'.OX%X@XW.$X!.$X!.$XR.z.I.R.Q.R.b.7.'.1.1.'.oX%X@XW.%X!.!.!.$XQ.8.9.6.b X   ",
"  < - 7 Z.z.I.P.T.!.P.P.Y.).Q.!.R.z.z.I.S.{.oXQ.W.!.R.E.S.S.!.P.P.Y.).T.$XR.z.z.I.U.}.oXE.!.!.!.E.U..XQ.P.P.Y._.Y.U.9.4.>.>.$   ",
"    3 x.c.D.r.*.v.d.c.*.8.8.b.l.z.l.L.R.!.!.I.z.L.t.v.8.6.8.d.x.).$.8.B.Z.z.P.E.J.!.!.I.x.F w.%.8.,.$.V.V.v. X%. .D.n.b.#.$     ",
"    D *XD m , h B B $.b Z.o.V.m h.F.5 | z.z.f.x.8 F V.v.8.N.B h b 7 Z.%.x.r.=XG f.z.z.d.$.,.%  .D.a #.,.n v...r.* X.5 h.&X3     ",
"    @ 3 *       % $.} o : # @.3 : o.= X +.&X5 5 = @.D b B @. .X   3 m & 3 % 2 % r.5 z.o.* t o n 6 X > * : h., o     X m D &     ",
"                  # #       O o         * ,     X # @ o o @ O                   @ o , %                 o # o                   "
};
