/* XPM */
static char *_740071b692c4af888f9061761f369c6vLQf7o5DtIL3RVsn[] = {
/* columns rows colors chars-per-pixel */
"64 64 243 2 ",
"   c None",
".  c #0E142C",
"X  c #151B2E",
"o  c #191E2F",
"O  c #11162D",
"+  c #0B0E2B",
"@  c #1B222F",
"#  c #1D2431",
"$  c #1E2833",
"%  c #232C33",
"&  c #232832",
"*  c #2B3739",
"=  c #363B37",
"-  c #21282F",
";  c #463C3B",
":  c #364336",
">  c #39463A",
",  c #2F423D",
"<  c #48473C",
"1  c #48563B",
"2  c #59553D",
"3  c #51453D",
"4  c #53643D",
"5  c #5A683D",
"6  c #54683F",
"7  c #696838",
"8  c #72773A",
"9  c #66573E",
"0  c #2D3A45",
"q  c #353D44",
"w  c #34444C",
"e  c #3B4B4C",
"r  c #394845",
"t  c #3A4C52",
"y  c #354A53",
"u  c #3D545A",
"i  c #3E5257",
"p  c #394E49",
"a  c #3F5860",
"s  c #464945",
"d  c #465646",
"f  c #575844",
"g  c #435A5C",
"h  c #445756",
"j  c #55564E",
"k  c #6A5644",
"l  c #765C48",
"z  c #624D45",
"x  c #4B6549",
"c  c #566946",
"v  c #5B7549",
"b  c #4C6757",
"n  c #586457",
"m  c #5A7C53",
"M  c #557653",
"N  c #666746",
"B  c #776449",
"V  c #667845",
"C  c #777947",
"Z  c #696B58",
"A  c #667759",
"S  c #78775B",
"D  c #746C55",
"F  c #455D61",
"G  c #4A6265",
"H  c #4D6A6C",
"J  c #486469",
"K  c #536C6B",
"L  c #577569",
"P  c #4D6D73",
"I  c #4E7275",
"U  c #537374",
"Y  c #54767A",
"T  c #55797B",
"R  c #5A7B7B",
"E  c #516F72",
"W  c #687466",
"Q  c #757A65",
"!  c #617671",
"~  c #866A4A",
"^  c #987553",
"/  c #8D744E",
"(  c #A57B55",
")  c #807F68",
"_  c #7A863C",
"`  c #6C8343",
"'  c #68854B",
"]  c #738544",
"[  c #738B44",
"{  c #798749",
"}  c #7C9446",
"|  c #7B964A",
" . c #678955",
".. c #778854",
"X. c #6D945A",
"o. c #779956",
"O. c #7CA55B",
"+. c #7EAB5F",
"@. c #77A25C",
"#. c #5D826F",
"$. c #6C9668",
"%. c #769C69",
"&. c #658679",
"*. c #738E6F",
"=. c #75A563",
"-. c #7CA463",
";. c #7BA962",
":. c #78A566",
">. c #5F8256",
",. c #8B903A",
"<. c #A7AE3E",
"1. c #8A8A4D",
"2. c #85854A",
"3. c #958E4D",
"4. c #839D49",
"5. c #869849",
"6. c #97934B",
"7. c #868955",
"8. c #869754",
"9. c #979655",
"0. c #918D51",
"q. c #AC8355",
"w. c #B48859",
"e. c #B09451",
"r. c #86A34B",
"t. c #8BA54A",
"y. c #8DAA4B",
"u. c #88A247",
"i. c #92AC4C",
"p. c #94A54D",
"a. c #95B34D",
"s. c #9BB54D",
"d. c #9CB94E",
"f. c #8BAE54",
"g. c #84AD5C",
"h. c #8AAD5B",
"j. c #84A655",
"k. c #95AA59",
"l. c #8EB256",
"z. c #87B05B",
"x. c #8BB159",
"c. c #94B553",
"v. c #9BB652",
"b. c #9BB950",
"n. c #94B15B",
"m. c #9CB25D",
"M. c #96BA55",
"N. c #A5A647",
"B. c #A1BA4F",
"V. c #A5B94E",
"C. c #A8A955",
"Z. c #A4B653",
"A. c #A4BA51",
"S. c #ABBA54",
"D. c #A2B45C",
"F. c #ACB55C",
"G. c #ACB456",
"H. c #B4BA56",
"J. c #B4B55D",
"K. c #B9B65C",
"L. c #B5B959",
"P. c #BCBA5A",
"I. c #B6B857",
"U. c #B5A855",
"Y. c #849D6A",
"T. c #89997A",
"R. c #979976",
"E. c #908D69",
"W. c #B29763",
"Q. c #83AB61",
"!. c #8BAD61",
"~. c #8BA26B",
"^. c #86A366",
"/. c #9AA965",
"(. c #95A866",
"). c #8CAD6A",
"_. c #A6AE62",
"`. c #ABB362",
"'. c #AEAE6E",
"]. c #C2BB5B",
"[. c #C5B857",
"{. c #D0B155",
"}. c #C4BA69",
"|. c #C1975F",
" X c #A5C450",
".X c #B7C357",
"XX c #ADC148",
"oX c #B7C164",
"OX c #C9C45D",
"+X c #D5CE49",
"@X c #E2D64B",
"#X c #E7E945",
"$X c #EAEF4E",
"%X c #CECA78",
"&X c #ECF072",
"*X c #DDE446",
"=X c #BFC53F",
"-X c #567D82",
";X c #5B8284",
":X c #5E8B8C",
">X c #598488",
",X c #5F9092",
"<X c #638C8D",
"1X c #658886",
"2X c #68948B",
"3X c #769788",
"4X c #668E91",
"5X c #639394",
"6X c #6B9593",
"7X c #669C9B",
"8X c #6B9D9D",
"9X c #689897",
"0X c #759B96",
"qX c #728E85",
"wX c #6BA09F",
"eX c #78A39A",
"rX c #76A38F",
"tX c #6E9FA1",
"yX c #6CA2A3",
"uX c #73A5A3",
"iX c #74AAAB",
"pX c #7AACAD",
"aX c #78A8A6",
"sX c #7DB1AE",
"dX c #7DB3B4",
"fX c #7FB8B9",
"gX c #86A798",
"hX c #94AD90",
"jX c #ACB88A",
"kX c #81ADA7",
"lX c #84B3AC",
"zX c #8BB6AA",
"xX c #92BBAD",
"cX c #82B5B3",
"vX c #87BAB8",
"bX c #869E86",
"nX c #94C2BA",
"mX c #BBC68C",
"MX c #F2F692",
"NX c #F2F5AA",
"BX c #CFCE88",
"VX c #92C5C2",
"CX c #F9FBD3",
/* pixels */
"                  X # X                 # @ O #                   o # X X @ # O     & #         o o       # -                   ",
"    = [ > X #   o , %.* = < . N N X r * 0.C : 4.% < % 1 - x p   O 1.9.M x C 9.* p N I.0.O = 0.< 1 } # * O 0.C.@     X V 1       ",
"    :  X4.` t.: | { !.V J.9.f OX1.% %.o.C.C.r.t.V .X8.b.4.l.x C N 1.OXD.D.].2.V D.C.S.A.] N P.C.V d.' !.N C.1.N 0.= x  Xv.%     ",
"  * * x M.d. X[ i..XH.P.].p.G.P.9.1.V ].P.].S.i.s.d.M.c.d.d.p.H.].C.H.P.P.P.9.G.].].P.S.A.v.s.d.s.d.b.S.G.I.C.P.C.d O.y.4 &     ",
"  >.Q.j.c.d.d.d.d.d.d.d.S.d.S.B.d.A.A.P.L.L.L.P.H.A.Z.A.d.d.d.d.d.S.d.A.B.d.A.A.P.L.L.L.P.H.A.Z.A.d.d.d.d.d.S.B.[ [ ;.j.r.t.-   ",
"  r x | c.h.g.g.c.A.H.S.d.v.c.l.d.d.d.d.d.d.d.d.x.;.;.g.g.l.A.H.S.d.c.b.l.d.d.d.d.d.d.d.d.l.;.;.g.g.x.A.H.S.d.v.M.;.x.i.] c o   ",
"  * ` ' c.x.;.g.g.m.P.F.m.h.x.x.l.d.h.x.c.c.c.h.+.c.l.;.g.g.m.P.L.m.g.x.x.x.d.x.h.c.c.c.h.;.l.c.;.g.g.n.L.L.D.h.x.l.h.B.| X     ",
"  > y.t.d.t.y.b.h.g.c.g.z.z.l.g.h.l.;.h.;.g.c.d.c.c.c.c.d.h.g.c.g.h.h.l.g.g.c.;.h.;.g.c.d.c.c.c.c.d.h.;.c.g.h.h.l.h.:.z.j.%     ",
"  O = 2 1 N { ].K.Y.*./.^.!.;.g.g.;.x.c.c.d.c.h.~.^.^.!.P.K.~.$./.^.!.;.g.g.;.h.c.c.d.c.h.~.^.^.^.P.K.(.$.(.~.!.;.g.h.;.+.V >   ",
"# 1.C.F.k.].K.F.!.F._.S.P.P.S.d.d.g.!.m.m.D./.J.J.D.K.K.F.!.F._.S.H.P.F.d.d.g.Q.m.m.D./.J.J.D.K.K.J.!.F._.S.H.P.L.B.d.g.h.OX2.  ",
"o f V c.l.x.Q.;.=.;.g.h.c.l.n.b.d.v.A.A.A.A.B.B.c.x.x.g.=.=.@.O.j.f.f.h.c.d.v.A.A.A.A.B.d.c.l.x.g.;.=.:.Q.h.c.c.n.c.d.M.h.c -   ",
"  + 5 d.c.l.g.g.c.;.;.g.x.n.F.v.d.d.d.B.S.P.H.Z.i.r.o.o. .' >. . . .' 8.r.t.i.i.s.S.P.L.S.d.c.l.g.g.c.g.:.+.x.x.F.v.d.d.d.y.:   ",
"# ] C.v.d.d.d.d.d.c.c.Z.J.F.D.L.S.A.b.b.A.s.p.9...A A >.b t g T U H h h A ..8.o.| p.s.B.H.A.d.d.d.d.d.v.c.v.J.F.D.L.S.A.b. X[   ",
"# 1  .g.l.d.d.d.d.d.l.g.c.g.=.Q.!.Q.;.;.@. .M L T I -XyXyX5X:X7X7X8X9X;X>X*.T.qXH M  .j.l.a.d.d.d.d.d.d.c.g.c.h.=.Q.!.!.-.o.>   ",
"  4  Xb.c.c.g.Q.c.g.Q.c.B.S.h.z.c.j.o.o.v h I pXdX8XeXpXiXyX5X9XyXiXpXyXiX1X6XsXiXI h V 4.u.s.d.h.;.c.h.-.c.d.S.c.g.c.z.O., +   ",
"  6 [ V g.%._.(.%.(.`.k.L.].J.v.y.} x d * G <XcXvXgXR.gXdXiX<X9XcXVXvXdX9X;XwXcXcX<XG * e d ' $.(./.%.~.`./.S.].P.v.d.d..XC #   ",
"  # c 2.9./.K.].K.].P.P.].J.].C.V p Y G w F R aXxXjX'.*.yXyX9X5XuXfXpXcXP Y aXcXaXR g q J Y e A k.].P.].P.P.].P.P.P.A.d.S.C 0.# ",
"  `  XP.P.S.F.!.n.H.d.v.m.;.C.V Y u 2XQ h G Y 5X9X1XW U uXyXyXyX9X9X6XpX;X*.bXgX6XU g i U 9Xu Y A j.!.S.B.v.m.;.D.P.H.A.A.G.< O ",
"  : y.S.v.=.;.=.;.x.x.;.g.@.v w 5XJ T.'.W <XuXiX<XH g E iXdXdXaXR T uXdXR 9.%XjXkXuX4XE ;X:XH ,Xw M X.h.l.;.+.g.g.c.d.d.F.k.` @ ",
"  : c.z.;.x.l.g.h.;.;.g.f.` e i I h A D n <XcXvX8XP w H tXdXdXlXqXE yXyXH 1.%XmXzXdX8XH J G h U i e v @.;.g.l.d.c.c.d.d.d ' y.@ ",
"= y.B.S.Z.S.b.d.d.c.c.y.[ s g g g Z Z r F <XaXlX8XT t U 9XyXyXuX9XH 5XwXT n 7.T.aXiX5XG w e h F g g s [ j.d.c.d.d.x.g.x.M % *   ",
"* } a.].P.m.h.h.;.;.@.v p w w E <XjX9.s W 1X<X5X8X8X4X<X<X5X9X7X<Xu >XyX5X<XqX2X4X:X>XJ h F <X6XH w w i m O.g.g.Q.;.;.;.X.O.y.: ",
"  & 1.P.b.a.l.g.=.=.X.h h t q <XpXjX9.S E.*.U Y 8XdXcXaX0X6XY :XR w T uXaXkXkX0XT J J J T 5XdXcX;X0 w h b $.$.$.&.%.o.V d [ B.= ",
". 1.OXP.S.B.d.c.h.X.b h h w i 6XdXgXY.}.%X/ j J 5XiXcXvXzX2Xu ;XR P <X6X0XkXpX9XH n Z *.eXdXvXdX6Xi 0 g n b *.J.(.(.C.1.3.* :   ",
"O 2 0.Z.A.d.d.d.i.V r e 0 w H :X7XuXT.`.`.N h H :X9XyXuXaX1Xy 4XtXaXkX<XU :X3XqXW { I.%XjXyXyX9X:XH w j S s C C.P.P.P.OXG.f f o ",
"o 4 6 { S.A.A.a.4.d w w * i R <X>X5XrX..S s e P <X9X7X7X9XU h 6XiXdXlX;XH >X*.T.Q 2.OX%X`.5X5X>X<XR t s S t d } s.A.d.A.a.S.P.% ",
"# r.4.l.;.;.h.o.V s K j w Y iXiX:X5XiXY g 0 y T 5X9X7X9X:XQ Q ;X5XyXuX-X-X4X*.R.*.D 6.J.(.9X5X:XiXiXY e b G e c } l.d.d.i.} f O ",
"  X 5 b.l.h.=. .b n E./ g 6XVXVXpXpXvXtXH 0 F 5XtXtXyX8X1XE.R.U P 8XpX0XuXiX0XeX3XG j *.eXcXpXpXVXVX6Xu t G h d v j.x.c.l.c O   ",
"  , v h.h.s.r.V h S }.3.J yXvXvXVXVXnXaXY w F 6XpXcXxXzXgXbXbXJ w 1XiXpXpXuXyXwX4XF w Y aXnXVXVXnXvXuXP w t i h v o.j.l.;.m X   ",
"$ %.$.#.h.Y...N h j { D P yXyXiXcXxXkX&.K w t T 8XsXxXxXxXiX9XK w H 5X7X7X7X7X5XY i w K &.kXxXxXgXgX8X-Xw 0 w h x  .@.;.j.| ` X ",
"X , r V `.C.C d w q i Y -XyX8X7XwXwX9XU g q s K 1X6X0XeXeXqXR S D n R 1X4X<X1XR K j w g U 9XwX4XQ jX0X;XP t r r d V u.O.Q.k.V @ ",
"  V 5.| x.o.d q q 0 J ;X4XdXdXpXyX7X9XH w = k ^ ) Q Q R.R.Q D W.W.B D E.E.W Z S ^ B s w H 2XT.E.N mXeX4X;Xn S n r 1 } f.Z.S.V   ",
"  c d.d.s.| s 0 t G E L T.hXpXfXpX,X;XH i s B w.^ l B w.w.l B |.w.l B w.q.l l ^ w.B s i G W }.BX9.3X6X1XH n R.Z q 1 } a.4.} v   ",
"@ V a.d.t.[ d i Y tX6XR.%XI.L 0X0XY g G i q l ( / k l w.e.l k q.e.k l e.q.l k / q.l q i F j [.%XS.H U U ;X4XgXR i d ] p.V r > X ",
"X ` | j.X.c d Y yXvXeXoX&X{.< R.E.J U R u * 3 l z ; 3 / 2.7 9 ~ 6.7 7 6.B ; < 9 l 3 * i R ! R.'.Y.0 Y 0XlXvXvX8XY e c .. .+.i.# ",
"  o ] c.| x u :XyXiX6X!.OX0.> Y.7.1XkX6XH q = ; ; ; = 8 <.<.N.9.N.C.N.<.7 = = ; ; = q H 6XzXxXlX6X0 ;XlXxXcXpXyX:Xh 4 ' o.c =   ",
"  O 4 [ 4 * g 5XyX7X9X2X3XZ q &.1XaXlX9XR y s z l l k ,.#X&XNXNX&X&X$X#X,.2 z k z s t R 9XkXzXuX<Xw G 9XwXyXwXwX5Xg 1 ` 4.c X   ",
"X f 2.= < < u 5XiXyX8XyX0XR.s Y 9XwXwX7X;Xi s l ^ ^ ~ ,.$X&XCXCXNXMX$X$X_ / / / l s h 1X8X8XyX3XR.Z G 4XyXwXyXiX9Xu 1 V 5.1.C.- ",
"% I.H.3.N s J 9XpXcXsXdXzXjX2 J 7XyX8X5XT y q l ( q.6.8 $X&XNXNXCXMX$X#X7 N.e.q.~ s n bX6X7X7XW [./.1XiXdXsXcXpX9XJ s 4 [ 5.N o ",
"o c r.5.1 w Y 7XiXcXlXcXxXjXj -XuXiXiX6XR t q l ( q.N.8 #X$X&X&XNX&X$X*X2 N.e.q.l s Z jX0XiXiXW J.(.0XvXcXlXcXiX7XY e 1 { V 1 O ",
"  1 | ' r e H >X,XuXuXuXaX2X1XcXvXvXvXpX8XI t z ( e.U.8 *X#X#X$X&X$X#X+X5 U.w.( k e ! hXlXvXvX0XhXbX5XpXuXuXuX,X>XH e 1 ' | ` + ",
">  Xi.} c c x b L <X7X9X:XH 0XnXnXvXpXpXiX;Xu z ( |.U.8 +X@X@X+X+X+X#X=X7 e.w.^ z u ;XaXpXpXvXvXnX0XH :X9X7X<XL b x x c m c *   ",
": r.} C 1.V v c b #.5X<XY t &.zXlXaX8X8X5XT F j ^ |.e.8 +X@X@X{.{.{.#X<.7 q.w./ j g Y 5X8XwXaXlXzX&.y I <X5X#.c x x M M [ r.h.> ",
"  % # C i.} ' v M m #.L b w G 9X8X8X7X5XI b h j ~ q.^ 7 +X#X+X{.{.{.@X,.2 ^ q.~ s p h U <X8X8X8X9Xb * b L #.M b b x = , x V s.= ",
"# X. .d j.4.[ ' ' m m b A C b L &.2X*.&.n c c f k ^ / ~ XX*X[.U.U.{.{.8 f ~ ( l s f c c A *.2X#.L d 1 M M M A 7.A N 2.C 2.N % O ",
"# M j.c.h.j.r.t.t.8.2.7.0.3.2.2.2.7.1.1.2.2.V 1 < k B C _ V.S.G._.[.[.3.B N B B C 2.{ ] ` { ..` V V [ { { ..C.G.C.C.G.P.OXG.=   ",
"O : G.H.A.A.s.d.s.a.t.i.p.y.5.] [ [ { 1.1.1.{ C C V C 5.y.s.d.d.A.H.B.Z.5.] C ] 2.1.1.1.1.2.{ { { [ r.t.4.p.G.v.Z.Z.s.A.d..X2.  ",
"@ } V M.g.;.x.x.c.B.Z.s.a.s.y.} [ [ } 4.[ ] [ { ` '  .j.x.c.B.S.A.d.d.d.c.y.[ [ [ ] [ { 5.| ' X. .o.f.s.Z.B.d.d.d.c.d.d.d.` #   ",
"  @ M z.x.g.:.;.!.D.P.L.m.h.f.j.j.y.j.f.r.| } ' m ' o.=.;.Q.D.P.J.D.g.x.h.f.4.[ ' [ [ 4.j.@.O.j.=.;.;.m.K.P.D.h.x.h.x.d.c.a.4   ",
"  + , } s.b.l.d.h.h.v.h.l.x.c.x.f.c.;.+.O.O.| ` [ 4.a.c.d.h.h.v.h.l.x.c.x.h.y. .m  .X.f.c.c.d.d.l.d.h.h.v.n.l.x.c.l.h.c.;.l.4   ",
"  < 0.f 5 Y.n.I.`.%.%.~.:.Q.;.;.g.;.x.d.c.y.4.'  .%.-.!.H.`.%.%.~.:.Q.;.;.+.;.o.} | y.a.f.^.%.-.^.H.J.Y.$.~.^.Q.;.;.+.;.z.} r # ",
"  1..XP.J.P.P.K.D.F./.H.K.K.D.d.d.;.Q.h.j.8...7.C._.K.K.K.m.J./.H.K.K.D.b.d.g.O.o.| 8.8._.K.`.K.K.K.m.J.(.H.J.K.D.b.d.g.;.o.m # ",
"  : y.M.h.n.!.;.=.Q.h.l.b.v.D.d.d.M.Z.S.p.p.t.p.l.h.n.!.;.=.Q.h.l.b.v.m.b.d.M.Z.s.p.p.r.B.v.x.n.!.Q.=.;.h.l.b.v.D.v.d.c.c.x +   ",
"  & c d.c.l.g.+.x.;.=.;.h.h.m.c.d.d.d.d.v.G.G.s.d.c.l.g.;.x.;.=.;.h.g.m.c.d.d.d.s.s.G.G.s.d.v.l.g.;.x.;.=.;.g.g.m.M.d.d.d.V 1 o ",
"  { .Xd.c.c.c.d.d.c.c.Z.L.L.K.H.A.d.d.d.S.A.S.H.A.c.c.c.v.d.c.l.Z.L.L.K.H.A.B.d.d.S.S.A.H.A.c.c.c.c.d.c.l.v.L.L.J.H.A.B.s.t.[ @ ",
"  : v h.z.c.d.d.d.d.l.g.n.Q.;.!.(.n.!.g.h.l.c.c.d.d.d.d.d.d.d.c.g.n.g.;.!.(.n.!.g.h.l.c.c.d.d.d.d.d.d.d.c.g.n.h.=.!.(.n.h.d +   ",
"    f `.M.c.l.h.d.h.g.c.d.A.g.g.x.+.;.+.g.l.l.b.d.d.d.l.h.d.l.g.c.d.A.h.+.x.+.;.+.g.x.l.M.d.d.d.c.h.d.c.g.c.d.A.x.+.x.;.c.a.>   ",
"  2 P.].K.^.(.Y.%.~./.n.H.].F.c.d.d.A.S.H.V.d.h.l.c.-.(.~.%.Y./.h.S.].F.c.d.d.A.S.H.S.d.f.h.c.;.~.~.%.Y./.!.S.].L.v.c.;. .] =   ",
"  0.C.C.H.S.].].`.P.].K.].P.].H.d.S.H.L.S.h.-.~.%.Y.~.`.].J.K.].P.].P.].H.d.S.H.L.H.h.-.~.%.%.~._.].J.K.].P.P.P.].L.;.:.=.x O   ",
"  > * 5 b.d.S.A.F.I.A.A.F.Q.L.P.H.d.d.S.m./.`.L.K.P.H.J.m.m.P.A.A.F.Q.F.].H.d.d.S.D.(.`.J.P.P.I.J.D.m.L.A.A.F.!.F.D.:.$.$.$.$   ",
"    1 s.f.M.4.O.g.r.f.O.;.;.h.s.d.s.G.H.P.P.S.d.G.8.g.;.=.;.r.M.Q.X.;.x.b.d.A.J.C.P.P.S.b.V 2.o.;.%.X.M.c.g.g.o.' M.j.h. .$     ",
"    V  XV v > d M m X.x b.[ c.v i.B.4 ` d.d.t.s.5 V M.g.;.z.m d x 5 b.o.M.5..XC r.d.d.u.X.%.% ' M.p  .%.c g.' | * ] 4 i. X1     ",
"    @ 1 *       % X.>.X : # } 1 : [ = O }  X4 4 = } V x m } ' O   1 v - 1 % < % 4.4 d.[ * r X c 6 O , * : i.> X     O v V -     ",
"                  # #       o X         % >     O # @ X X @ o                   @ X > %                 X # X                   "
};
