/* XPM */
static char *_be916883dfc4ff9e4872c858ce2dda1Py18Vph8J1PSNUeA[] = {
/* columns rows colors chars-per-pixel */
"64 64 210 2 ",
"   c None",
".  c #0B0E2B",
"X  c #0E142C",
"o  c #11162D",
"O  c #151B2E",
"+  c #191E2F",
"@  c #1B222F",
"#  c #1D2431",
"$  c #1E2833",
"%  c #21282F",
"&  c #212632",
"*  c #232C33",
"=  c #282D33",
"-  c #243137",
";  c #2C3434",
":  c #2F3935",
">  c #293739",
",  c #2C3C3B",
"<  c #273739",
"1  c #323D35",
"2  c #393C37",
"3  c #3C3F39",
"4  c #363B38",
"5  c #2F423D",
"6  c #364336",
"7  c #384436",
"8  c #3D4A37",
"9  c #33433C",
"0  c #3C433A",
"q  c #3D4A39",
"w  c #4A4B3D",
"e  c #44453B",
"r  c #445339",
"t  c #4C543C",
"y  c #4B5B3C",
"u  c #53543E",
"i  c #53643D",
"p  c #5A633F",
"a  c #56683E",
"s  c #5B6D3E",
"d  c #5D703F",
"f  c #60743F",
"g  c #374B41",
"h  c #394D41",
"j  c #3E5544",
"k  c #415643",
"l  c #435C47",
"z  c #4A5942",
"x  c #5B5C41",
"c  c #555D44",
"v  c #4C6143",
"b  c #4A654A",
"n  c #4D6A4E",
"m  c #556544",
"M  c #5B6641",
"N  c #5B6D40",
"B  c #536F4D",
"V  c #566E46",
"C  c #5D7242",
"Z  c #50704D",
"A  c #547550",
"S  c #5A7B53",
"D  c #587852",
"F  c #646543",
"G  c #646943",
"H  c #6A6E45",
"J  c #637542",
"K  c #6A7646",
"L  c #667B43",
"P  c #6A7C44",
"I  c #64744A",
"U  c #7C7D49",
"Y  c #737647",
"T  c #5E8358",
"R  c #6C8243",
"E  c #66834B",
"W  c #6C894C",
"Q  c #6D8648",
"!  c #728644",
"~  c #738A45",
"^  c #738D4A",
"/  c #798548",
"(  c #7C9446",
")  c #7F9947",
"_  c #7E994A",
"`  c #779047",
"'  c #658C59",
"]  c #668754",
"[  c #6C955B",
"{  c #6F985A",
"}  c #739551",
"|  c #739D5D",
" . c #78985B",
".. c #7CA65B",
"X. c #7EAB5F",
"o. c #5E826A",
"O. c #6D976E",
"+. c #6D9B6D",
"@. c #689060",
"#. c #729E61",
"$. c #749B6B",
"%. c #7B9C6C",
"&. c #7A9F67",
"*. c #648F77",
"=. c #6C9671",
"-. c #6C9970",
";. c #659177",
":. c #759870",
">. c #76A664",
",. c #7CA464",
"<. c #77A863",
"1. c #7BA962",
"2. c #79A369",
"3. c #85834C",
"4. c #89874D",
"5. c #8B8A4D",
"6. c #838D48",
"7. c #918E4F",
"8. c #819B47",
"9. c #839D49",
"0. c #87984B",
"q. c #94914F",
"w. c #94984F",
"e. c #908F51",
"r. c #839357",
"t. c #939151",
"y. c #9A9651",
"u. c #9B9E51",
"i. c #949D5F",
"p. c #86A24A",
"a. c #89A54A",
"s. c #8DAA4C",
"d. c #92AD4C",
"f. c #96A64E",
"g. c #95B44E",
"h. c #9AB64E",
"j. c #97B84F",
"k. c #9CB94E",
"l. c #81A254",
"z. c #8DAE54",
"x. c #82A75F",
"c. c #84AD5C",
"v. c #8AAE5B",
"b. c #92AE5E",
"n. c #98A857",
"m. c #8DB256",
"M. c #87B05A",
"N. c #8AB159",
"B. c #94B553",
"V. c #9AB652",
"C. c #97B953",
"Z. c #9BB950",
"A. c #94B15C",
"S. c #9CB25C",
"D. c #93BA59",
"F. c #A1BA4F",
"G. c #A8BB4F",
"H. c #A5A354",
"J. c #AAA656",
"K. c #ABAB55",
"L. c #A4AD57",
"P. c #B0AE57",
"I. c #A2B755",
"U. c #ABB454",
"Y. c #A4B951",
"T. c #ABBA53",
"R. c #A3B45C",
"E. c #ACB55C",
"W. c #AFB85A",
"Q. c #B2B456",
"!. c #B3BA56",
"~. c #B9BB57",
"^. c #B4B65D",
"/. c #B9B75D",
"(. c #B5B959",
"). c #BDBA5A",
"_. c #BCBA5A",
"`. c #B8B157",
"'. c #839E6C",
"]. c #809A60",
"[. c #82A562",
"{. c #8AA564",
"}. c #83AB61",
"|. c #8BAD61",
" X c #83A169",
".X c #8CA26B",
"XX c #95A566",
"oX c #93AD61",
"OX c #9CAA65",
"+X c #94A569",
"@X c #9CA968",
"#X c #98A768",
"$X c #83B263",
"%X c #9BB260",
"&X c #A4AD63",
"*X c #A9AF63",
"=X c #A7B260",
"-X c #ACB161",
";X c #A6B861",
":X c #B2B360",
">X c #C2BB5B",
",X c #C8BE59",
"<X c #9EC155",
"1X c #A0C04F",
"2X c #A4C350",
"3X c #AACB52",
"4X c #B3C256",
"5X c #BDC459",
"6X c #CBC55E",
"7X c #C4C25C",
/* pixels */
"                  O # O                 # @ o #                   + # O O @ # o     * #         + +       # &                   ",
"    1 ^ q O #   + 5 #., 4 e X G G O h < 7.U 7 9.= w = r # n h   o 4.y.D b U y.> j F (.7.o 3 e.e y ) # , o t.J.@     O J y       ",
"    7 2X9.R a.6 ) / |.I `.y.x 6X5.* #. .J.J.p.a.K 5Xr.Z.9.m.b Y F 5.7XR.R.>X3.I R.J.T.Y.! F ).K.J k.E |.F J.5.H e.4 v 2XV.=     ",
"  > , v D.k.1X! d.4X!._.>Xf.K._.u.5.K >X_.>XT.d.h.k.B.C.k.k.f.~.>XJ.!._._._.u.Q.>X>X_.T.Y.V.k.k.j.k.C.T.U.`.J._.J.z ..s.i &     ",
"  S $Xl.B.k.k.k.k.k.k.k.T.k.T.F.k.Y.Y._.(.(.(._.~.Y.I.Y.k.k.k.k.k.T.k.Y.F.k.Y.Y._.(.(.(._.~.Y.I.Y.k.k.k.k.k.T.F.! ^ 1.l.p.a.&   ",
"  g b _ B.v.c.c.B.Y.!.T.k.V.C.m.k.k.k.k.k.k.k.k.N.1.1.c.c.m.Y.!.T.k.C.C.m.k.k.k.k.k.k.k.k.m.1.1.c.c.N.Y.!.W.k.V.C.1.N.d.! N @   ",
"  : R W B.N.1.c.c.S._.W.S.v.N.N.m.k.v.N.C.B.C.v.X.B.m.1.c.c.S._.(.S.c.N.N.N.k.N.v.C.B.C.v.1.m.B.1.c.c.A.(.(.I.v.N.m.v.F.) O     ",
"  q s.a.k.a.s.Z.v.x.B.x.M.M.m.c.v.m.1.v.1.c.B.k.B.C.C.B.k.v.x.B.x.v.v.m.c.c.B.1.v.1.c.B.k.B.C.C.B.k.z.,.B.x.v.M.m.v.1.M.l.-     ",
"  X 4 u t G / >X/.'.:.@X X|.1.c.c.1.N.C.C.k.B.v..X X X{.)./..X=.#X X|.1.c.c.1.v.C.C.k.C.v..X X X{._./.+X=.#X.X|.1.c.v.1.X.K 0   ",
"# 5.K.E.n.>X/.E.|.E.&XT._._.W.k.k.c.|.S.S.R.OX^.^.R././.E.|.E.&XT.(._.W.k.k.c.}.S.S.I.OX^.^.R././.^.|.E.&XT.!._.(.F.k.c.v.6X4.  ",
"+ x J C.m.N.}.1.>.1.c.v.B.m.A.C.k.V.Y.Y.Y.Y.F.F.C.N.A.}.1.>.1.x.v.B.B.A.C.k.V.Y.Y.Y.Y.F.k.C.m.N.c.1.>.1.}.v.B.B.A.C.k.B.v.m &   ",
"  X p k.C.m.c.c.B.1.1.c.N.A.E.V.k.k.k.F.W._.(.T.k.C.m.c.c.B.X.1.c.N.A.E.V.k.k.k.k.T._.(.T.k.C.m.c.c.B.c.1.X.N.N.E.V.k.k.k.s.6   ",
"# ~ L.V.k.k.k.k.k.C.C.I.^.E.R.(.T.Y.C.C.Y.F.F.!.Y.k.k.k.k.k.C.C.I.^.E.R.(.T.Y.C.V.Y.Y.F.!.Y.k.k.k.k.k.V.C.V.^.E.R.(.W.Y.Z.2X~   ",
"# r ] $Xm.k.k.k.k.k.m.c.B.c.<.}.|.}.1.1.X.N.m.B.k.k.k.k.k.k.k.m.c.B.c.<.}.|.}.}.1.X.v.m.m.k.k.k.k.k.k.k.B.c.B.v.<.}.|.|.,.} q   ",
"  i 2XZ.C.C.x.[.C.x.[.C.F.T.v.M.B.v.c.v.N.B.C.k.k.k.k.x.[.C.x.[.C.F.T.N.c.B.v.c.v.N.B.C.k.k.k.k.v.,.B.v.,.B.k.T.B.c.B.M...9 .   ",
"  a ! L x.$.&X#X$.+X*Xb.(.>X^.V.k.Y.W.!._.Y.j.[.x.x.$.@X#X%..X-XOX!.>X(.V.k.F.T.!._.T.k.x.x.v.$.+X@X%..X-XOXW.>X_.V.k.k.4XY #   ",
"  # p 4.i.@X/.,X/.>X_._.>X^.>X(.Y.T.W.W.Y.[.%.@X'..X@X-X,X/.>X_._.>X^.>X_.Y.Y.W.W.T.[.%.+X.X.X&X-X,X).>X_._.>X/.)._.Y.k.T.U t.# ",
"  R 2X).~.T.E.|.b.!.k.V.S.1.E._.W.k.k.W.R.*X/.W._._.T.E.|.|.W.F.V.S.1.E._.W.k.k.T.E.*X/.W._._.W.E.oX|.W.F.V.S.1.R._.!.Y.Y.U.e X ",
"  7 s.T.V.<.1.>.1.N.m.1.c.c.c.C.k.Y.!.Y.!.!.Y.k.Y.I.X.<.>.1.N.m.1.X.c.c.C.k.k.!.Y.!.!.Y.k.Y.I.X.<.>.1.v.m.1.X.c.c.C.k.k.E.n.R @ ",
"  6 B.M.1.N.m.c.v.1.1.c.B.k.C.C.k.k.N.C.k.k.k.C.N.1.v.B.c.N.1.1.c.m.k.C.V.k.k.N.B.k.k.k.j.N.X.c.B.c.N.1.1.c.m.k.C.C.k.k.z E s.@ ",
"1 s.F.W.I.W.Z.k.k.B.B.k.C.k.k.v.c.c.>.v.C.k.Y.!.T.I.W.Y.k.k.B.B.k.C.k.k.N.c.c.>.c.V.k.Z.!.W.I.W.Y.k.k.C.m.k.C.k.k.N.c.N.A - :   ",
": ) g.>X_.S.v.v.1.1.1.c.c.c.1.1.1.1.>.<.x.m.Y._.>X_.S.v.v.1.1.1.c.c.c.}.1.1.1.>.1.1.N.Y._.>X_.R.v.v.X.1.1.c.c.c.}.1.1.1.' ..s.6 ",
"  & 5.).C.j.B.x.>.1.1.>.+.=.*.$.,.[.%.+.B.T.(._._.Z.C.B.c.<.1.1.>.+.=.*.$.,.[.%.+.m.T.(._._.Z.C.B.c.1.1.1.>.+.-.*.$. .L k W F.1 ",
"X 4.6X_.T.F.k.B.N.1.<.=.+X/..X@X-X*X).@XE.Y.Y.!._.T.Y.k.B.N.1.1.=.+X/.+X+X:X*X>X@XR.T.F.W._.W.Y.k.C.m.1.1.-..X/.#X+XP.4.q.; 6   ",
"o u q.I.Y.k.k.k.k.I.E.-X>X_._._._._._.,X_._.Y.k.Y.Y.Y.k.k.k.I.E.-X>X_._._._.>X_.>X_._.T.k.T.Y.Y.k.k.k.I.E.-X>X_._._._.7XU.x x + ",
"+ a a / T.Y.Y.k.k.k.k.F.W.k.T.Y.k.Y.Y._._._.(._.!.Y.Y.Y.k.k.k.k.F.W.k.Y.Y.k.Y.Y._._._._._.!.Y.Y.Y.k.k.k.k.F.W.k.Y.Y.k.Y.g.W._.* ",
"# p.9.m.1.1.v.v.B.F.!.Y.k.k.C.B.k.k.k.F.k.k.Y.F.B.1.1.c.v.B.F.W.Y.k.k.k.B.k.k.k.F.k.k.Y.F.B.c.1.c.v.m.F.W.T.k.k.k.B.k.k.d.` x o ",
"  O s Z.m.v.1.X.c.R._.(.S.v.N.v.m.k.N.N.C.C.C.v.1.m.N.1.X.c.S._.(.I.c.N.N.N.k.m.N.V.C.C.M.1.N.m.1.X.c.S._.(.I.v.v.N.N.C.m.B X   ",
"  9 C v.z.j.B.k.v.c.V.c.N.N.B.v.N.B.1.c.1.c.B.C.B.k.k.B.k.v.x.V.v.N.N.B.v.v.B.1.c.1.c.B.C.B.j.k.B.k.z.x.C.v.N.M.B.N.c.m.1.S O   ",
"$ #.O.o.|. X|.).:X%.$.+X,.}.1.1.c.1.N.k.C.k.C.v..X'. X{.~.:X'.O.+X X}.1.1.c.1.v.j.C.k.C.z..X'. X[.!./..XO.+X X}.1.1.c.1.x.) R O ",
"O 9 h K ;X)./.^.A.E.OX!.(._.E.k.k.}.}.b.S.S.oX-X^.=X/././.A.E.@X!.(._.E.k.k.c.}.b.S.I.oX-X/.=X/./.^.A.E.@X!.(._.E.Z.k.c.}.A.L @ ",
"  J 8._ N.A.}.1.>.1.c.N.C.B.S.k.k.V.Y.T.Y.Y.F.Y.B.N.A.}.1.>.1.c.N.C.B.S.V.k.V.Y.T.T.Y.F.F.V.N.A.}.1.>.1.c.N.C.B.S.V.k.C.I.T.H   ",
"  N k.k.k.B.c.c.m.1.>.X.v.v.R.V.k.k.k.k.T._.!.Y.k.C.m.c.X.m.1.>.1.v.v.R.V.k.k.k.k.T._.(.Y.k.C.m.c.X.m.X.>.1.v.v.R.V.k.k.8.) C   ",
"@ J g.k.k.k.C.k.k.B.B.I.(.(.E.!.Y.F.k.k.T.Y.Y.!.Y.C.C.V.k.k.C.B.I.(.(.E.(.T.F.k.k.T.Y.Y.!.Y.C.C.V.k.k.C.B.V.(.(.E.(.T.Y.L g 9 O ",
"O R ) v.c.m.m.k.k.k.m.c.B.c.<.|.|.v.}.1.c.N.m.B.k.k.k.k.k.k.k.B.c.B.c.<.|.|.|.}.1.c.N.m.B.k.k.k.k.k.k.k.B.c.B.c.<.}.oX|.{ X.d.# ",
"  + Q Z.C.D.x.x.k.c.x.j.k.Y.v.v.m.X.X.c.v.m.B.k.k.k.k.v.x.V.v.[.C.k.Y.N.c.m.c.X.c.v.m.B.k.k.k.k.v.x.C.z.[.B.k.Y.N.c.m.c.c.V 1   ",
"  o a 8.! B XX.X$..X&Xb.!.>XE.C.k.F.T.W.~.T.k.x.v.z.$.+X+X$..X&Xb.!.>X^.B.k.k.T.W.~.T.k.v.v.z.&.+X+X%.'.&XoXT.>X(.B.k.k.Y.G O   ",
"o x 5.3 x 7.`.,X/.>X>X_.>X_.>X!.Z.W.!.!.T.[.%.+X%. X+X-X,X/.).>X_.>X_.>X(.Y.T.!.!.W.}.&..X'.'.+X*X,X/.).>X_.>X_.>X_.Y.Y.T.w.H.& ",
"* (.5X(._.(.^.oXS.!.F.Y.R.}.^._.W.k.k.T.R.&X:X!._._.!./.oXA.!.F.Z.R.}.E._.!.k.k.T.R.@X:XW._._.!./.S.oX!.Y.Z.R.}.R._.!.k.k.d.G + ",
"+ M g.T.I.1.1.>.1.m.B.1.X.1.c.C.k.Y.!.T.!.~.Y.k.T.I.X.1.>.1.m.B.1.X.X.c.C.k.k.!.T.!._.Y.k.Y.T.X.1.>.<.N.B.1.1.X.c.V.k.k.T.~ r o ",
"  y z.N.1.v.m.c.c.1.1.c.B.k.B.V.k.k.m.C.k.k.k.C.N.1.c.m.x.c.1.1.c.m.k.B.C.k.k.B.C.k.k.k.C.N.X.X.m.c.v.1.1.c.N.k.B.C.k.k.B.<XR X ",
"q 2XF.Z.I.T.k.k.k.B.C.k.C.k.k.N.v.v.>.M.k.k.k.!.Y.V.T.F.k.k.B.B.k.C.k.k.N.c.v.>.v.k.k.k.!.Y.V.T.F.k.k.C.B.k.C.k.k.m.c.N.1.T ,   ",
"6 p.) 0.>XR.v.v.c.1.1.N.c.v.x.1.1.1.1.1.x.N.T._.>X_.R.v.N.c.1.1.N.c.v.c.1.1.1.1.1.X.N.Y._.>X_.E.v.N.c.1.1.v.c.v.c.1.<.1.D.B.v.7 ",
"  * # 3.Y.C.m.x.>.1.1.>.+.=.*.$.,.[.$.+.B.Y.!._._.Z.B.B.c.>.1.1.>.+.=.*.$.,.}.$.+.m.Y.!._._.Y.B.B.c.1.1.1.>.+.-.;.T q h Z L j.1 ",
"# | ] v m.k.k.m.v.1.<.=..X-X'.+X*X&X/.+XR.T.Y.!._.T.F.k.B.v.1.<.+.'.-X.X.X*X@X).+XR.T.Y.!._.T.Y.k.B.N.1.1.+.'.-X+Xr.K.4.3.F * o ",
"# A l.B.v.B.k.k.k.I.E.*X>X_./.>X_.>X_.,X_.(.Y.k.T.T.Y.k.k.k.I.I.*X>X_._._._.>X_.,X_.(.Y.k.T.T.Y.k.k.k.I.I.&X).)._.).).>X7XP.3   ",
"X 7 Q.~.Y.Y.Y.k.k.k.k.Y.!.k.W.Y.k.Y.Y.>X_._.(._.!.Y.Y.Y.k.k.k.k.Y.!.k.T.T.k.Y.Y._._._.(._.!.Y.Y.Y.k.k.k.k.F.!.Y.Y.T.k.Y.k.4X3.  ",
"@ ` P B.c.1.N.N.C.F.T.Y.k.k.k.C.k.k.k.Y.k.k.Y.Y.B.c.1.N.N.B.F.T.Y.k.k.k.C.k.k.k.Y.k.k.Y.Y.V.c.1.v.N.B.k.T.Y.k.k.k.C.k.k.k.R #   ",
"  @ A $XN.c.<.1.}.R.).(.S.v.N.v.m.k.m.m.k.C.j.v.1.N.v.<.1.}.I.).(.I.c.N.c.m.k.B.m.k.C.k.N.1.v.N.1.1.1.S.)._.I.v.N.v.N.k.C.g.a   ",
"  . 9 ( j.C.m.k.v.v.V.z.m.N.B.N.N.C.1.X.1.c.B.C.C.k.k.m.k.v.v.V.z.m.N.B.N.v.C.1.X.1.c.m.C.C.k.k.m.k.v.v.V.A.m.N.B.m.v.C.1.m.i   ",
"  w 7.x p ].A.~.-X%.$..X,.}.1.1.X.1.N.k.B.j.j.z. X&.,.{.!.-X%.$..X,.}.1.1.X.1.v.k.B.j.j.z. X&.,.[.!.^.'.+..X X}.1.1.X.1.M.` h # ",
"  5.5X_.^._.)./.R.E.#X~././.I.k.k.1.}.b.A.S.oX*X/.-X/././.S.^.#X!././.I.C.k.x.}.v.A.S.oX*X/.-X/././.S.^.#X!.^./.I.Z.k.c.1.| S # ",
"  6 s.B.v.A.}.1.>.}.v.m.Z.V.I.k.k.B.I.T.T.Y.Y.Y.B.v.A.|.1.>.}.v.m.Z.V.I.C.k.B.I.T.T.Y.Y.T.V.N.A.|.}.>.1.v.m.C.V.I.V.k.B.C.v X   ",
"  & M k.C.m.c.X.N.1.>.1.c.v.S.C.k.k.k.k.Y._.!.Y.k.C.m.c.1.N.1.>.1.v.c.S.C.k.k.k.k.Y.(.!.Y.k.C.m.c.1.N.1.>.1.c.c.%XB.k.k.k.J y + ",
"  / 5Xk.C.C.C.k.k.B.B.I.(.(./.!.Y.k.k.k.W.T.T.!.Y.C.C.C.V.k.B.m.I.(.(./.!.Y.F.k.k.T.T.T.~.Y.C.C.C.C.k.C.m.V.(.(./.!.Y.F.j.a.! @ ",
"  6 C v.M.B.k.k.k.k.m.c.A.}.1.oXoXb.}.c.v.m.B.B.k.k.k.k.k.k.k.B.c.A.c.1.|.oXb.|.c.v.m.B.B.k.k.k.k.k.k.k.B.c.A.v.<.|.oXA.v.k .   ",
"    c ;XB.B.z.v.k.v.x.C.k.Y.c.c.N.X.1.X.c.m.m.C.k.k.k.m.v.k.m.x.C.k.Y.v.X.N.X.1.X.c.N.m.C.k.k.k.B.v.k.B.x.B.k.Y.N.X.N.<.B.g.q   ",
"  t _.,X/.{.#X'.$..X#Xb.!.>XE.C.k.k.Y.T.!.G.k.v.m.B.2.+X.X$.'.#Xb.W.>XE.B.k.k.Y.T.!.T.k.z.z.B.,..X.X$.'.#XoXT.>X(.V.C.1.W ! 1   ",
"  e.J.K.!.T.>X>X-X).>X/.>X_.>X!.k.W.!.(.W.v.2..X:.'..X-X,X:X/.>X).>X_.>X!.k.T.!.(.!.v.,..X%.%..X*X,X:X/.,X_._._.>X(.1.2.<.n o   ",
"  0 ; s C.k.T.Y.W.~.Y.Y.E.}.(._.!.k.k.T.S.#X*X(./.).!.^.S.S._.Y.Y.E.}.E.>X!.k.k.T.R.#X*X^.).)._.^.R.%X(.Y.Y.E.|.E.R.2.=.+.@.$   ",
"    r j.z.D.9...c.p.z...1.1.v.k.k.k.U.!._._.T.k.U.0.c.1.<.1.p.C.}.{ 1.N.Z.k.Y.Q.L._._.T.j.K 6.} 1.#.[ B.C.x.$X| E D.c.v.' $     ",
"    L 3XP C 8 l D S [ v C.! B.C d.F.a R k.k.a.j.f I B.c.1.M.S l b s Z.} C.8.4XY a.k.k.p.[ #.* E D.j ' #.B c.Q 8.; ! i d.2Xr     ",
"    @ t ;       * [ T O 7 # ) y 6 ~ 1 o ` 2Xi a 1 ) L b S ) E o   y C % r = w = 9.i k.~ < h O m a o 9 < 6 d.8 +     o d L &     ",
"                  # #       + O         ; q     o # @ O O @ +                   @ O q =                 O # O                   "
};
