/* XPM */
static char *_0dd599776f2434586dd174b9302c041vy1YkuD8JiJCxWVI[] = {
/* columns rows colors chars-per-pixel */
"64 64 229 2 ",
"   c None",
".  c #050C24",
"X  c #090F26",
"o  c #0A1126",
"O  c #0D152B",
"+  c #0D162B",
"@  c #11172C",
"#  c #151B2E",
"$  c #181D2E",
"%  c #131326",
"&  c #161D30",
"*  c #191E30",
"=  c #101730",
"-  c #1D222F",
";  c #1D2132",
":  c #23282E",
">  c #222533",
",  c #252935",
"<  c #2A2B35",
"1  c #252A3B",
"2  c #2D2E39",
"3  c #212638",
"4  c #312F36",
"5  c #2E3133",
"6  c #2F323C",
"7  c #323434",
"8  c #34333C",
"9  c #3A3539",
"0  c #3A3B37",
"q  c #2D312F",
"w  c #433B3C",
"e  c #493F3D",
"r  c #3A403B",
"t  c #4A4A35",
"y  c #4C423D",
"u  c #464638",
"i  c #52473E",
"p  c #59563A",
"a  c #665C3F",
"s  c #6B663B",
"d  c #726C3E",
"f  c #7D753E",
"g  c #3D3B41",
"h  c #363740",
"j  c #2C3143",
"k  c #433E43",
"l  c #454243",
"z  c #4A4345",
"x  c #4C4846",
"c  c #5C4D43",
"v  c #534B4A",
"b  c #554842",
"n  c #5C534D",
"m  c #57514A",
"M  c #545250",
"N  c #635344",
"B  c #6D5B45",
"V  c #6D5648",
"C  c #6F5A48",
"Z  c #665548",
"A  c #725C49",
"S  c #725F45",
"D  c #605351",
"F  c #645B52",
"G  c #6A5E53",
"H  c #6D5C58",
"J  c #5E6145",
"K  c #676648",
"L  c #7A6647",
"P  c #6A6459",
"I  c #76635B",
"U  c #79685C",
"Y  c #747548",
"T  c #686865",
"R  c #7E6960",
"E  c #767875",
"W  c #847C3F",
"Q  c #8B7B46",
"!  c #887549",
"~  c #82735E",
"^  c #8A7748",
"/  c #836C62",
"(  c #8B7A63",
")  c #8C7566",
"_  c #94796A",
"`  c #9A7D6D",
"'  c #907668",
"]  c #88803E",
"[  c #8A8546",
"{  c #938345",
"}  c #968C42",
"|  c #9A8B46",
" . c #988848",
".. c #9D9143",
"X. c #848853",
"o. c #9A9F5B",
"O. c #A59546",
"+. c #A99C44",
"@. c #A69B48",
"#. c #A29551",
"$. c #9EA15C",
"%. c #AEA144",
"&. c #A8A14B",
"*. c #B3A645",
"=. c #B5A945",
"-. c #B9AC46",
";. c #B8AC4B",
":. c #B6A94B",
">. c #BEB34B",
",. c #A8A859",
"<. c #BAAB51",
"1. c #BFAB5A",
"2. c #BEB551",
"3. c #BBB758",
"4. c #948166",
"5. c #9D826C",
"6. c #9A866A",
"7. c #8C8874",
"8. c #969279",
"9. c #938673",
"0. c #A48D6D",
"q. c #A1846F",
"w. c #A78971",
"e. c #AC9472",
"r. c #AA9979",
"t. c #B29476",
"y. c #B49A74",
"u. c #BA9F77",
"i. c #BB9D79",
"p. c #B69F78",
"a. c #AA936E",
"s. c #BABE65",
"d. c #BCA177",
"f. c #BCA279",
"g. c #B1A17C",
"h. c #BFA569",
"j. c #C1AE59",
"k. c #C2BB54",
"l. c #C2B759",
"z. c #C5AE66",
"x. c #C9B46C",
"c. c #C3A57C",
"v. c #C6A97D",
"b. c #CAAB7E",
"n. c #C4A976",
"m. c #D2B37C",
"M. c #D1B17C",
"N. c #C8C45D",
"B. c #D1CB5D",
"V. c #C8C965",
"C. c #D0CE63",
"Z. c #CED16C",
"A. c #D2D165",
"S. c #D4D56A",
"D. c #D9DA6D",
"F. c #D7D86A",
"G. c #D5C97B",
"H. c #DCDF71",
"J. c #DEDD7D",
"K. c #DEE172",
"L. c #DEE173",
"P. c #E1E473",
"I. c #E6E975",
"U. c #A89B8C",
"Y. c #AAA384",
"T. c #AFA889",
"R. c #B2A786",
"E. c #BDB68D",
"W. c #BDBA90",
"Q. c #A2A29F",
"!. c #9FA1A8",
"~. c #AFAFB2",
"^. c #98999A",
"/. c #C8AE81",
"(. c #CBB385",
"). c #D5B583",
"_. c #D8B784",
"`. c #DBBA86",
"'. c #DABC8A",
"]. c #D5B886",
"[. c #E0BE88",
"{. c #C2BFA6",
"}. c #DCC28D",
"|. c #CDC698",
" X c #C7C096",
".X c #D9C796",
"XX c #E4C38C",
"oX c #E2CB95",
"OX c #E4CB97",
"+X c #E6D29C",
"@X c #E5D198",
"#X c #E2DD89",
"$X c #E5E58F",
"%X c #CFCCBD",
"&X c #D8D0AB",
"*X c #E9D7A1",
"=X c #ECDCA5",
"-X c #E7D7A5",
";X c #E8D6B8",
":X c #F2DFA7",
">X c #EEE2AB",
",X c #EDE5AA",
"<X c #F2E4AC",
"1X c #F5E9AD",
"2X c #F2E4B3",
"3X c #F4E9B3",
"4X c #F2E7BA",
"5X c #FAEBB3",
"6X c #F6ECB8",
"7X c #D5D3D1",
"8X c #E9DDC9",
"9X c #DFE1D7",
"0X c #F5ECC4",
"qX c #F5EBC9",
"wX c #FBF3C8",
"eX c #F6EED3",
"rX c #F2E6D4",
"tX c #F9F4DD",
"yX c #F8F5D3",
"uX c #EBE2D3",
"iX c #DFE1E6",
"pX c #E5E5E8",
"aX c #FBF7E2",
"sX c #FCF9E7",
"dX c #FEFBF4",
"fX c #FFFFFD",
"gX c #FAF5F2",
"hX c #F0EFEE",
"jX c #D6D8E0",
/* pixels */
"                                                                                                                                ",
"                                # u p 7 # #                                                                                     ",
"                            * & # t } 0 - ; ; @ O                                                                               ",
"                          # # 5 d +.3.Z.Z.S.Z.J x ; #                                                                           ",
"                        # # t %.=.*.k.A.K.S.S.P.I.$., #                                                                         ",
"                      # * w { *.k.A.A.D.D.2.;.k.D.K.&.p #                                                                       ",
"                    # # 7 s +.*.*.A.K.H.H.K.N.D.K.H.K.K.Y &                                                                     ",
"                    # # W =.*.*.*.A.P.P.K.H.K.k.C.K.H.K.N.[ u                                                                   ",
"                  # > b L Q %.*.} ,.s.s.V.P.P.A.;.B.P.K.F.@.7 #                                                                 ",
"                  # * p O.*.*.s # @ @ O > X.V.L.C.3.,.K.K.I.K @                                                                 ",
"                  # < Q *.=.*.N c < & # # X 0 V.K.H.Y [ S.P.,.d >                                                               ",
"                  # > c { O.O.L A C c ; # # # o.K.P.s.5 X.K.K.J ;                                                               ",
"                    # w C | O.{ A C A c > # # ;  .S.I.,.< X.H.@.>                                                               ",
"                    # ; i S  .! A C A C < # # # $ } F.B.7 x 3.} >                                                               ",
"                      & # > e b A A C 7 & # # # @ d @.C.u Y #.N ;                                                               ",
"                        # # # * 4 7 < & #     # # < } { N { | N ;                                                               ",
"                              # # & # #         # - +.p * p L < *                                                               ",
"                                  *             # > ..a y *.p #                                                                 ",
"                                        @ + * * # < f < u W : + #                                                     XX        ",
"                                      O 2 8 H , > c y # ; 9 9 x 7 o #                                               ].XX        ",
"                                    # n i.b.w.z e Z - @ @ . ^.eX7X!.j &                                           '.].'.        ",
"                                $ & + , ~.uXrXpXpXpXpXpXpXiXhXgXuXT # # #                                       ).oXrXG         ",
"                                & * k , . < f.eXaXaXtXrXrXrX-XoXg.P F 2 #                                     _.'.gX7Xo         ",
"                              # # ; ' / 6.Y..X>X=X=X*X@X@X@X=X<X3X1XXXd.6 #                                 0.OXgXfX{.+         ",
"                              # # 8 ) _ b.oX<X>X>X4X0X0XdXfXfXfXaX-X}.'.n *                               X 9.dXfXdXW.+         ",
"                              # @ I _ e.(.).+X>X>X0XeXeXqXtXfXfXfXfX4X*Xv.;                             y.l 9XfXfXwXE.+         ",
"                            # # z ' _ i.).).+X<X<X:X=X=X=X>X0X&XM R.=X<X*X~ #                           `.(.sXfXuX>XW.+         ",
"                            # + D ` _ i.).).oX+X*X>X>X>X>X=XwX%X; P (.=X<X0.#                         ~ ].tXaXdXm.@XW.+         ",
"                            & # < U q.b.).).).].*X>X<X>X>X4XtX%X1 $ y.;XsXY.@ #                       X ~.aXtX;X}.XXE.+         ",
"                            & 2 R ' w.).).).).].`.+X*X=X2XdXfXjX1 @ v '.4XR.9 ;                     # , jXaX@XM.oX(.8 #         ",
"                            # 8 ' _ w.).).).).).).).].+X2XtXtX%X1 + l _.+X0XY.<                     . 7.yX,X'.).OXM +           ",
"        & ; & #           & # 8 ' ` c.).).).).).).).}.>X>X4XtX7X1 # * 6.XXwXT @                   + h .X1X+X).'.0.; #           ",
"      # O v I , +         & # 8 _ q.c._.].).`.[.[.'.OX5X5X6XdX~.1 # + F e.(.M # #                 # T ,X*X_.).].P +             ",
"      # # < 6.0.m ;       # # ; k x _ e.t.].( n n D F P P T E 3 # # # # + o @ & #               # ; -X3X}.).].u.O #             ",
"      # & O < a.).F ;     $ # # # D ' t.b.).d.4.6 O . . o o X # # # # # + # 6 * #               o 8.,XE e.).'.l #               ",
"      # > 7 @ , 0.).F ; # # & + n ` _ i.).)._.+X1X7.P 8 o o o o # # # # w 7.4X6 &             @ 6 |. XO 0.].e.> #               ",
"      @ 7 [ W 5 < 6.).F ; # # # < U q.b.).).).].}.:X5X|.Y.Y.T.^.1 # # # y.+X4X8.;             o P 5X9.n b.[.v o                 ",
"      @ 5 ..-.*.s t 4.y.0.z * + + D 5.q.5.5.c.).).].}.1X1XwXdXfX!.; o U _.2X3X|.;           # 6 -X-XD ~ XXe.# #                 ",
"      @ 5 } *.*.=.%.c H _ t.( v # # v / _ t.).).).).`.*X>X>XqXsX~.* > 0.;XdX0X X; #         # P 1Xr.< 0.].G #                   ",
"      @ 5 } *.*.*.*.:.h.u.v.).(.p.0.< 8 g 8 4.).).).).oX>X>X=XwX~.# k ].4X4X@Xy.* > , * #   ; (.T.H m ].d.; #                   ",
"      @ 5 } =.*.*.%.<.m.~ k # 8 Y.r.oX,X|., ; y.).).).).*X>X>XaXQ.% c @X<X>X1Xg o ,.I.X.- X ( ].P # d.[.x #                     ",
"      @ 5 } *.;.N.N.j.m.'.b.6.I @ # M r./.< ; y.).].).).*X>X>X<X&X~.8X*X<X5X8.* 0 K N.B.7 8 c.u.# v ).4., #                     ",
"      @ 5 } *.=.2.k.l.].'.'.[.).c.v X ~ d.< # z y.d.].].*X>X>X2XsXfXsX=X=X*Xl 5 N.t - d 7 F [.z $ U /.m +                       ",
"      @ 5 } *.*.2.N.J.,X,X@X].).].b.> 8./.< # # # ; U u.:X<X>X2XqXqX2X+X].G + r K.N.t O < ].e.; k 5.U $ #                       ",
"      @ 5 } *.*.*.k.D.$X,X*X}.).].v.> ( f.< # # # # o 2 P &X>X3X0XqX3X<XF < < 7 N.K.;.t # z > > / ` g # #                       ",
"      @ 7 | *.*.*.;.S.#X}.}.}.].].b.8 ~ d.< # < ; # # # @ ; U e..X1X|.P # Z c # t =.>.*.p : + , U I > ; O O                     ",
"      @ 8 e.x.:.*.*.2.G.@X+X,X'.).).I ( d.< $ N c y 9 # # # @ o 8 P ; + w C b w # 0 s -.-.L e ; + + < c s p @                   ",
"      @ 8 y._.m.z.<.*.x.'.].'.].).).I ( d.< $ [ Q L V c b > # # @ o @ w L O.! c # & ; q ] ..! N w ; # y ! f =                   ",
"      @ 8 y.].)..X,X#XG.].].).).).).` i.d., # B %.%.Q L V A y < # # 9 V @.O.c - > / R h # < i A A b # # # * #                   ",
"      @ 8 y.).`.*X,X,XG.z.m.].].).).` i.i., # B %.*.=.@.{ A A C b b V ^ +.! 4 + z ` q.b.4.* + < y b i b , &                     ",
"      & # m c.].}..X>XG.2.;.z.M.].c.m i.d., $ B | *.*.=.=.%.Q C C V ! =.{ y $ + k ` b._.[.6.2 # # > N w * #                     ",
"        + v c._.}.+X,X$XP.F.2.l.x.d.9 0.d.< $ Q =.=.*.*.*.*.*.{ Q Q @.| d $ # + z 5.).).).].c.2 # # # & #                       ",
"        # > 4.).).).'.x.A.S.2.C.=.@.: F y.< # N L O.*.=.=.=.=.-.-.-.*.p @ # # # ; I t.].].`.).8 &                               ",
"          # F b._.).].z.<.C.k.*.*.+.: D 0., $ N A A ! O.O.O.O.O.@.{ i $ # #   # + ; H U 6.e.v & #                               ",
"          * # F v.].).].1.*.*.*.*.+.: D / > # 7 9 9 9 8 8 8 8 8 8 * # & #   # > y > @ # + + # #                                 ",
"            # # P b._.).j.*.*.*.-...x / g $ # # # # # # # # # # # # &       # , C N ; # # &                                     ",
"              # # G b._.m.<.*.-...0 / g # # # # # # # # # # # # # # $       # # < i ;                                           ",
"                # # F v.m.<.=...5 x 8 # # # # # $         # # # # #           # # # #                                           ",
"                  # # G n.j.O.7 ; > # #     # # # #       # # # #                                                               ",
"                    # # K ..u n v # #     # # # # #     # # # # #                                                               ",
"                      # $ > ; H 2 #     # # # # # #     # # # # # #                                                             ",
"                        # & # * #                                                                                               ",
"                            # #                                                                                                 ",
"                                                                                                                                "
};
