/* XPM */
static char *_9c1705e120f40dbb4b55ee0155e62dfJNoWpNumB8eyykTF[] = {
/* columns rows colors chars-per-pixel */
"64 64 243 2 ",
"   c None",
".  c #0E142B",
"X  c #0C1327",
"o  c #11162C",
"O  c #151B2E",
"+  c #191E2F",
"@  c #131427",
"#  c #1A1F30",
"$  c #161D31",
"%  c #0A0E2A",
"&  c #1B222F",
"*  c #1D2331",
"=  c #1E2832",
"-  c #222632",
";  c #242B33",
":  c #2A2B35",
">  c #282B3A",
",  c #312E37",
"<  c #2B3334",
"1  c #2C333A",
"2  c #2D3C3A",
"3  c #2A3636",
"4  c #323434",
"5  c #343B36",
"6  c #3B3C35",
"7  c #33323B",
"8  c #3C3B3B",
"9  c #37393A",
"0  c #22272F",
"q  c #443C3C",
"w  c #364236",
"e  c #34423B",
"r  c #3B433A",
"t  c #3C4B3A",
"y  c #3A4839",
"u  c #2F423D",
"i  c #4C433D",
"p  c #444C3B",
"a  c #474839",
"s  c #51473E",
"d  c #44543A",
"f  c #4C5B3B",
"g  c #4B553C",
"h  c #56553C",
"j  c #655D3D",
"k  c #57673E",
"l  c #53663E",
"z  c #69653C",
"x  c #73713D",
"c  c #3A3A42",
"v  c #443E43",
"b  c #394D41",
"n  c #3E5443",
"m  c #3C4353",
"M  c #494546",
"N  c #524B4A",
"B  c #584A43",
"V  c #465944",
"C  c #5B534E",
"Z  c #595845",
"A  c #545256",
"S  c #695846",
"D  c #725D48",
"F  c #655953",
"G  c #69574F",
"H  c #4B6446",
"J  c #576844",
"K  c #597347",
"L  c #597A53",
"P  c #4B6B57",
"I  c #636542",
"U  c #666C43",
"Y  c #786646",
"T  c #657A42",
"R  c #677746",
"E  c #787947",
"W  c #6A6459",
"Q  c #78675B",
"!  c #677953",
"~  c #747E56",
"^  c #6A6865",
"/  c #7B6A63",
"(  c #75746D",
")  c #867F3F",
"_  c #897A45",
"`  c #817655",
"'  c #8A7765",
"]  c #967A6B",
"[  c #847166",
"{  c #5E8358",
"}  c #6A8549",
"|  c #738A45",
" . c #788748",
".. c #7B9346",
"X. c #7A964A",
"o. c #678955",
"O. c #6B955B",
"+. c #749A59",
"@. c #768855",
"#. c #7EAA5E",
"$. c #7CA55B",
"%. c #6B986A",
"&. c #779C69",
"*. c #6B9672",
"=. c #638E75",
"-. c #75A664",
";. c #7CA462",
":. c #7BA962",
">. c #76A665",
",. c #5E826A",
"<. c #87803F",
"1. c #8B8A4D",
"2. c #878649",
"3. c #978C42",
"4. c #9A8C45",
"5. c #958849",
"6. c #849A49",
"7. c #999449",
"8. c #979855",
"9. c #8A9054",
"0. c #A69946",
"q. c #A59B55",
"w. c #8AA54B",
"e. c #8DAA4C",
"r. c #85A14B",
"t. c #93A84C",
"y. c #94B34E",
"u. c #9AB54E",
"i. c #9CB94E",
"p. c #84AD5C",
"a. c #8BAD5B",
"s. c #86A857",
"d. c #97A759",
"f. c #8DB256",
"g. c #8BB159",
"h. c #87B15B",
"j. c #94B553",
"k. c #9AB652",
"l. c #9CB950",
"z. c #97B45A",
"x. c #B3A645",
"c. c #B6A945",
"v. c #B7AB49",
"b. c #A1BB4F",
"n. c #A7A856",
"m. c #BAAB55",
"M. c #A4BA51",
"N. c #ABBA54",
"B. c #A3B35D",
"V. c #ACB55C",
"C. c #A9B554",
"Z. c #B3BA56",
"A. c #B4B55C",
"S. c #BAB65C",
"D. c #B5B959",
"F. c #BCBA5A",
"G. c #BBB754",
"H. c #B6AB49",
"J. c #9A856A",
"K. c #849E69",
"L. c #8B8770",
"P. c #A28A6E",
"I. c #A9916F",
"U. c #A68971",
"Y. c #AD9473",
"T. c #A4987A",
"R. c #B79B76",
"E. c #B3996B",
"W. c #83AB62",
"Q. c #8BAD62",
"!. c #88A268",
"~. c #97A965",
"^. c #8BAF65",
"/. c #A5AD65",
"(. c #ABB261",
"). c #B4B763",
"_. c #BDA279",
"`. c #BAA177",
"'. c #B8A56E",
"]. c #C2BC5B",
"[. c #C2B756",
"{. c #C1AF5E",
"}. c #C4A67B",
"|. c #CAAB7E",
" X c #C4AA7E",
".X c #D2B67B",
"XX c #C9B26D",
"oX c #A5C551",
"OX c #B7C357",
"+X c #A0C04F",
"@X c #AFC25F",
"#X c #C8C35B",
"$X c #C8C865",
"%X c #D0CE64",
"&X c #D7D86B",
"*X c #DCDE71",
"=X c #D7D375",
"-X c #D0CD73",
";X c #DDE172",
":X c #E1E473",
">X c #93908F",
",X c #AB9D82",
"<X c #B8A885",
"1X c #B8B38C",
"2X c #B0AFAF",
"3X c #9A9BA1",
"4X c #CBAD80",
"5X c #CBB587",
"6X c #D5B583",
"7X c #DABA86",
"8X c #DBBC8A",
"9X c #D7B886",
"0X c #CDB58D",
"qX c #E1BE88",
"wX c #C1BEA3",
"eX c #DBC28C",
"rX c #DCC998",
"tX c #D0C992",
"yX c #E2C38D",
"uX c #E2CB97",
"iX c #E5D29C",
"pX c #E8D79E",
"aX c #E2DD8B",
"sX c #D6CEB1",
"dX c #ECDCA5",
"fX c #E8D7A5",
"gX c #E7D5B1",
"hX c #EEE1AA",
"jX c #EEE8AD",
"kX c #F2E3AC",
"lX c #F4E9AE",
"zX c #F4E8B6",
"xX c #F4E6B7",
"cX c #E7E595",
"vX c #D2D2D0",
"bX c #F4EAC8",
"nX c #F9F4DB",
"mX c #F3ECD2",
"MX c #E9E8E5",
"NX c #FCF8E8",
"BX c #FEFEFC",
"VX c #FCF9F3",
"CX c #E3D8C9",
/* pixels */
"                  O * O       o O a h 4 O O O *                   + * O O & * o     ; *         + +       * -                   ",
"    5 | t O *   + u &.2 9 6 $ $ O a 3.9 & * * 3 O 8 ; d * H n   o 1.8.L H E 8.3 n I S.1.o 6 9.a g ..* 2 O 9.n.&     O T f       ",
"    w oX6.} w.w X. .Q.R 1.4 O < x 0.F.%X-X&X-XJ M ; 5 w.6.f.H E I 1.#XB.B.].2.U B.n.N.M.| I F.n.R i.} Q.I n.1.U 9.5 H oXk.;     ",
"  3 2 H j.i.+X| t.OXZ.1.6 O a 0.x.x.[.%X;X&X&X*X;X8.; w w.i.t.Z.].n.Z.S.F.S.8.D.].].F.N.M.k.u.i.u.i.k.N.C.A.n.F.n.V $.e.k ;     ",
"  { W.r.j.i.i.i.i.u...5 # q _ x.[.%X%X&X&X[.v.#X*X*X7.h w w.i.i.i.N.i.M.b.i.M.M.S.D.D.S.S.Z.M.M.M.i.i.i.i.i.N.b.| | :.r.w.w.-   ",
"  b H X.j.p.p.p.j.u.a O 4 z 0.x.x.%X*X*X*X*X#X&X;X*X*X&X! e t.Z.N.i.j.k.f.i.i.i.i.i.i.i.i.f.:.:.p.p.g.M.Z.N.b.k.j.:.g.e.| J *   ",
"  5 } } j.g.:.p.p.R : O x x.x.x.c.%X:X:X;X*X*X#X%X;X*X;X]._ k n.D.z.p.g.g.g.i.g.p.j.j.j.p.:.f.j.:.p.p.z.D.D.B.a.g.f.p.b.X.O     ",
"  t e.w.i.w.e.l.a.t ; i Y 5.x.x.4.S.$X$X$X:X:X%Xv.%X:X;X&X0.5 p +.p.p.f.p.p.j.:.p.:.p.j.i.j.j.j.j.i.a.;.j.p.a.p.f.p.:.h.s.;     ",
"  . 9 g g I  .].S.b * h 4.x.x.x ; ; ; ; 9 9.$X;X%XG.(.;X;X;XZ = ~ K.Q.:.p.p.:.p.j.j.i.j.a.!.!.!.!.S.S.!.*.~.!.Q.:.p.p.:.#.R r   ",
"* 1.n.V.d.].S.V.Q.g : _ x.c.x.S s : + O O + p $X*X&XE 1.&X:Xn.z k n.F.Z.i.i.p.W.z.z.B.~.A.S.B.S.S.A.Q.V./.N.Z.F.D.b.i.p.a.#X2.  ",
"+ Z R j.g.g.W.:.-.y : S 5.0.0.D S S B * O O + d.;X:X).5 8.;X&XI t r.f.z.j.i.k.M.M.M.M.b.i.j.f.g.p.:.-.:.W.p.j.j.z.j.i.j.a.J -   ",
"  . k i.j.f.p.p.j.K ; q Y 4.0._ D D S M * O O r n.&X*X1.a 8.*X5.; } a.V.k.i.i.i.i.N.S.D.N.i.j.f.p.p.j.p.:.p.g.g.V.k.i.i.i.e.w   ",
"*  .n.k.i.i.i.i.i.w.w ; B Y 4._ D S D S : O O O 5 q.*X#X4 Z $X4.-  .V.B.D.N.M.l.k.M.M.b.Z.M.i.i.i.i.i.k.j.k.D.V.B.D.N.M.l.oX|   ",
"* d o.p.f.i.i.i.i.u.} 3 - 9 B S D D D q * * * O O E m.%Xr U q.Y * } #.>.W.Q.W.W.:.#.h.f.f.k.i.i.i.i.i.i.j.p.j.p.>.W.Q.Q.;.+.t   ",
"  l oXl.j.j.p.W.j.p.$.| 5 # * : q q 9 * * T T ; O 6 4.0.h _ 4.S *  .C.g.p.j.p.p.p.g.j.j.i.i.i.i.a.;.j.a.;.j.i.N.j.p.j.h.$.e %   ",
"  k | T p.&./.~.&.~.(.s.E I r ; ; - * ; h t.w.V * ; 4.x 8 Y _ i 1 8.].D.k.i.b.N.Z.F.N.i.p.p.a.&.~.~.&.!.(.~.N.].S.k.i.i.OXE *   ",
"  * J 2.8.~.S.].S.].F.F.S.A.7.E g w p R t.!.&.~ = - 0.j 4 2.j : I m.A.F.S.M.N.N.N.N.W.&.~.!.!./.(.].F.].F.F.].S.F.F.M.i.N.E 8.* ",
"  } oXF.F.N.V.Q.a.Z.i.k.z.:.V.S.t.| 6.C. .! E p + ; 2.i i 4.6 & f 9.;.B.S.N.i.i.N.V./.S.N.F.F.N.V.Q.Q.N.b.k.z.:.B.F.D.).M.C.a . ",
"  w e.N.k.:.:.-.:.g.f.:.p.p.p.k.i.M.n...p 5 M * O 4 z : 9 z : - 1 H o.$.j.i.i.Z.M.Z.Z.M.i.M.M.#.>.-.:.p.j.:.:.p.p.k.).eXA.d.} & ",
"  w j.h.:.g.f.p.p.:.:.p.j.i.j.k.i.w.V < N C Q , : B 8 O & : N / F c 3 | j.i.i.g.j.i.i.i.j.g.#.p.j.p.g.:.:.p.g.i.k.).6XyX! } e.& ",
"5 e.b.N.M.N.l.i.i.j.j.i.j.i.i.p.+.V O N <X0X<X^ ^ ' A A A m 2XnXCX3X> < } p.p.-.p.k.i.l.Z.N.M.N.M.i.i.j.j.i.j.l.).8XrX}.! < 5   ",
"5 ..y.].S.z.a.p.:.:.:.p.p.p.:.+.n * * ; >X2XCXMXMXMXMXMXMXMXMXmXsX^ > # < +.:.-.:.:.g.M.S.].F.B.a.p.p.:.:.p.W./.6XgXCXN L $.e.w ",
"  ; 1.F.k.u.j.p.-.:.:.-.%.*.=.L - # M 7 O 8 4XmXnXnXnXbXbXbXfXuX<X( Q v * L ;.&.*.f.N.D.F.F.l.j.j.p.:.:.:.-.!.6XrXVXvXX y } b.5 ",
". 1.#XS.N.b.i.j.g.:.;.*.~.S.K.M + - ' [ J.<XrXhXdXdXdXiXfXfXkXxXzXlXyX}.7 p d.].~.B.N.b.N.S.N.M.i.j.f.:.:.P P.iXNXBXwX. E 3 w   ",
"o h 7.M.M.i.i.i.i.C.V.(.].S.A.< O c ' ] |.yXdXhXhXxXbXbXNXBXBXBXNXgXrXyXW r n.Z.].F.S.N.i.N.M.M.i.i.i.M.n.& ,XVXBXNX1X. 1.Z Z + ",
"+ k k  .N.M.M.i.i.i.i.b.N.i.E ; O Q ] Y.6X6XiXhXhXbXbXbXbXnXVXVXMXVXxXdX4X> T u.F.S.S.S.S.Z.M.M.M.i.i.M.'.N MXBXBXbX1X. ..N.F.; ",
"* r.6.f.:.:.h.p.j.M.Z.M.i.i.f O M ' ] R.6X6XiXhXhXdXdXdXdXhXbXsXA ,XfXkXfX[ ; e.i.i.i.M.b.j.p.:.p.p.f.).9X0XNXBXbXhX1X. ....Z O ",
"  O k l.f.a.:.#.W.B.F.D.z.p.V O C ] ] R.6X6XrXiXfXhXhXhXhXhXmXsX= G 5XdXlXT.O K s.k.j.j.h.:.g.g.:.#.+.` 0XnXNXVX.XiX1Xo X.K o   ",
"  b K a.a.u.j.i.a.p.k.p.g.X.w + , / P.|.6X6X6X9XpXhXkXhXhXbXnXvX> + E.gXNX,XO ; $.#.p.j.j.j.u.i.j.i.} o 2XNXnXgXeXyX<XO O.L O   ",
"= &.%.,.p.K.a.F.(.&.&.~.!.! ; , / ' U.6X6X6X6X9X7XuXfXdXxXVXBXvX> o N 8XxX<Xv 5 y.j.i.u.a.!.K.!.!.Z.3 > vXnXuX.XuX<X1 H $.X.} O ",
"O e b R 9.E E n.z.V.~.Z.S.1.< , ' ] U.6X6X6X6X6X6X6X9XpXkXnXnXsX> . M 6XiXbX,Xr a.z.B.~.(.S.(.S.S.2.o L.nXjX8X6XuXN & o.W.z.T & ",
"  K 6.J ; * $ y O.:.p.g.e.p & 7 ' ] }.6X6X6X6X6X6X6XeXhXhXxXnXvX> O # J.yXmX^ O U M.M.b.b.k.g.z.p.2 c rXlXpX6X8XP.* w j.M.N.U   ",
"  J i.k & N Q - t O.>.#.+.2 O 7 ] U.}.9X9X6X7XqXqX8XuXlXlXzXVX2X> O . F Y.1XN $ d M.S.D.M.i.j.f.! * ^ jXfX9X6X9XW . e.i.6...K   ",
"& T y.k * : J.P.C r J t.n.9 O - v M ] Y.R.9X' C C F F W W ( ( - O O O O . X O $ g M.M.M.Z.M.u.e.y = iXlXeX6X9XR.. J M.M.T b e O ",
"O } X.H * o 7 I.|.C * H X.e * O O F ' Y.|.6XR.] 7 O % X o o . O O $ O $ . $ , # = o.h.f.j.i.i...O L.jXL.Y.6X7XN * o.Q.Q.O.$.y.* ",
"  + | J < < O 1 I.|.C * < d ; . N ] ] R.6X6X6XuXdXL.F 1 X X X X O $ $ O 8 ' gX1 $ } g.j.i.i.i.5 1 tXtXO P.7XY.; y #.f.p.p.K 5   ",
"  O k d 5 <.x < 7 P.|.F * + O O > / P.|.6X6X6X9XeXdXlX0XT.T.,X>X> O O O Y.uXxXL.* 1.N.i.a.a.K O W lXL.C |.qXN & 8.j.i.i.M.U O   ",
"O Z 1.; 4 3.c.0.z s J.Y.J.v # . O F J.U.P.P.}.6X6X7XyXkXkXxXVXBX3X* X Q 6XxXzXtX* 6.p.&.!.&.2 1 rXfXF Q yXY.O a S.S.M.M.N.8.n.- ",
"; S.OXI 9 3.c.x.x.0.S Q ] U.Q M O # C [ ] Y.6X9X6X6X7XfXkXkXbXNX2X# * P.gXNXxXtX* J ! 8.V.1.* W jX,X7 J.7XQ O O.B.F.Z.i.i.y.U + ",
"+ k y.k 5 3.x.x.x.x.0.E.R.}.|._.P.J.7 c M v J.6X9X6X6XuXhXhXhXmX2XO 8 6XxXbXpX`.# ; 4 5 g T ; 4X1XQ N 6X_.; V $.p.k.i.i.V. .d o ",
"  f f.H 5 3.x.x.x.x.m..X' N : M ,XY.0XrX1X> : R.6X6X6X9XfXhXhXnX3X@ B uXkXhXkXM . 8.-XE * O Q 9XQ - Y.8XC * } i.j.j.i.i.j.+X| . ",
"t oXb.k 5 3.x.H.#X#XG..X6XR.' F ; ; W <X5X; * R.6X9X6X6XfXhXhXlXsX3XsXfXkXlX,X* 4 E $X#X4 1 R._.* M 6XJ.> w y.i.i.f.p.g.:.{ 2   ",
"w w.X.g 9 3.x.v.[.[.[..X8X9X4X_.J.M * ' _.; O F `.}.7X9XfXhXdXkXmXMXnXdXdXdXC < q.h a 2.4 C 7XF O Q 4XF O } p.p.p.:.>.:.j.j.a.r ",
"  ; * a 5 3.x.x.G.#X=XpXdXuX7X6X6XY.# L._.; O - 8 M J.}.dXkXhXkXmXnXxXfXyX' * 9 &Xn.6 ; : _.`.: 9 ] ] : u +.%.*.=.{ t b K T u.5 ",
"* +.o.5 5 3.x.x.c.#X*XcXhXpXeX6X9X X- L._.: O O O O ; N ' fXhXzXbXbXzXhX[ 9 - 4 $X&X7.6 # W M * W ] M O y %.K.(.!.9.n.1.2.I ; o ",
"* L s.l 5 4.x.x.x.v.&XaXuXrXeX9X9X|.7 ' _.: O - * O O + ; N J.<XiXzXrXL.: B s & z G.v.3.a 4 O - Q Q : # * V S.].S.F.F.].#XV.8   ",
". w C.I 8 q.m.H.x.H.#XaXrXuXpX7X9X6XN ' `.: O q 8 : : O O # M C ' <X( c : S B : < x 3.c.) s : - v v : 8 6 p E k.N.N.i.M.i.OX2.  ",
"& ..T H c R..X{.m.v.v.XXeXrXiX7X6X6XQ ' `.: + Y Y S B 9 4 * O . - c O : S _ D i O : a x 0._ S q : O - B Y z ; e.i.j.i.i.i.} *   ",
"  & L H 8 R.9X6X.X-X$X.X9X9X9X9X6X6X' P._.: + E 4.5.Y D S i : * O . - B 5.0.Y 8 * M M 7 s j D S B 9 + : i a * +.g.p.g.i.j.y.k   ",
"  % e d 8 R.9X9XuXhXcX=X.X6X6X6X6X6X] R._.; O D x.x.5._ Y D B 8 - - q D 0.4.s + > [ [ C 7 - q B S B - - # * d s.j.f.p.j.:.f.l   ",
"  p 5.5 1 J.6X7XiXdXjX-X{.XX.X6X9X4X' R.R.; O D 0.x.c.0.4._ Y D B B D 5.0.Y : . M ] Y.4XI.8 O - 8 i B s - 2 &.W.:.:.#.:.h...b * ",
"  1.OXU * N }.7XeXuXhXaX].[.{.XX6X}.N R._.: + Y 0.x.x.c.x.x.5.Y Y Y _ x._ 8 + . M J.4X9X7XI.N * + - i 7 * R D.S.B.l.i.p.:.+.L * ",
"  w e.X.3 M R.6X8XuXfXaX*X&XG.].{.'.7 ] R.: + E 0.x.x.x.x.x.c.4.5.4.0._ h + O o c ] |.6X9X7X|.7 O ; 3 3 2 s.k.k.B.k.i.j.j.H .   ",
"  - J i.d ; ' 6X6X6X8XXX%X&XG.#Xc.0.0 F Y.: O S Y 4.0.x.x.x.x.c.c.c.0.s o O ; + * F I.|.6X6X}.7 * K | o.o.:.p.p.z.j.i.i.i.x f + ",
"   .OXi.6.5 C _.6X6X9XXXm.#XG.x.x.0.0 F P.; + B S S Y 5.4.4.4.4.4._ i + O < k ; O * F F ' J.M O d y.i.j.f.k.D.D.A.Z.M.b.u.w.| & ",
"  w K p.s.K ; C `.6X6X9X{.x.x.x.x.0.; F Q - O : 4 4 4 , , , , , , # O * < @.p - s : O O o O * 5 ..i.i.i.j.p.z.a.>.Q.~.z.a.V %   ",
"    Z (.j.f.J ; F _.6X6X{.H.x.x.x.3.B Q 9 + O O O O O O O O O O O O * K +.h.t ; S S * ; 5 w T w.f.a.k.j.p.j.i.M.g.#.g.:.j.y.t   ",
"  g ].].S.!.~.V * F }.9X.Xm.x.c.3.8 [ c # + O O O 3 2 e e 3 # O O & U B.j.i.d O : i * x s.a.j.;.!.!.&.&.~.Q.N.].D.k.j.:.o.| 5   ",
"  9.n.n.Z.N.].S.J - C }..Xm.c.3.: M 7 + h t * O O V ! 1.1.9 + O + h 7.8.8.u.6.4 - & 2 o.K.&.&.!./.].).S.].F.F.F.].D.:.-.-.P O   ",
"  r < k k.i.N.M.C.U = F _.m.4.5 - - & l  .@.r & O ; E 2.R = O * d  .!  .2.1...6.t.d.K.(.D.F.F.F.S.B.z.D.M.M.V.Q.V.B.-.*.%.%.=   ",
"    d u.s.k.6.$.p.6.l * S 5.a C N * g  . .Z < + O & K L n * O * n H L } | |  . . .C.F.N.k.R 2.+.:.&.O.j.j.#.p.+.} z.p.p.o.=     ",
"    T oXT K t V L L O.2 ; ; * F , f p l t & & * * * T } 3 * * $ O ; T K | k 1.h T ..i.r.O.&.; } z.n o.&.K p.} X.3 | l e.oXd     ",
"    0 g 3       ; O.{ O ; O O # ; k < o k | t t < k f b V k H O . w g & 5 - 6 ; x p u.| 3 t O H k o e 3 w y.y O     o K T -     ",
"                  * *     O $ O   .     ; 5     O * + O O & +       o       . O & O y ;                 O * O                   "
};
