/* XPM */
static char *_88eccefa4e8417aaada04114ecbe2a1rQ58EEYsNZe3zCAD[] = {
/* columns rows colors chars-per-pixel */
"64 64 101 2 ",
"   c #3F3851",
".  c #403751",
"X  c #473752",
"o  c #483752",
"O  c #423A52",
"+  c #493851",
"@  c #4F3B51",
"#  c #4F3C51",
"$  c #513C51",
"%  c #503F54",
"&  c #773659",
"*  c #514053",
"=  c #534154",
"-  c #544557",
";  c #554956",
":  c #584B57",
">  c #564959",
",  c #574E5E",
"<  c #564F60",
"1  c #575061",
"2  c #873A55",
"3  c #8F3A56",
"4  c #82365A",
"5  c #8E375A",
"6  c #933B55",
"7  c #9D3B56",
"8  c #913958",
"9  c #A13D54",
"0  c #93414E",
"q  c #9C404F",
"w  c #9E414F",
"e  c #A0424E",
"r  c #A1444E",
"t  c #A9424F",
"y  c #AC434E",
"u  c #AE444E",
"i  c #B0464E",
"p  c #A34750",
"a  c #A94150",
"s  c #A14F52",
"d  c #AF4E53",
"f  c #B14950",
"g  c #AD5152",
"h  c #B05654",
"j  c #BE5754",
"k  c #BE5854",
"l  c #AB655E",
"z  c #B7665E",
"x  c #B9685F",
"c  c #BB6B60",
"v  c #BD6C61",
"b  c #BB6E66",
"n  c #BE7063",
"m  c #C15656",
"M  c #C25D56",
"N  c #D55F59",
"B  c #C76A5E",
"V  c #CB6F61",
"C  c #CD7363",
"Z  c #CB7166",
"A  c #CB7468",
"S  c #CD7669",
"D  c #CE796B",
"F  c #D37A67",
"G  c #E07A6A",
"H  c #E27F6D",
"J  c #C48974",
"K  c #D38F76",
"L  c #D69077",
"P  c #D8997B",
"I  c #E3826E",
"U  c #E3846F",
"Y  c #E28670",
"T  c #E48771",
"R  c #E58872",
"E  c #EA997A",
"W  c #EB9D7C",
"Q  c #EAA07E",
"!  c #EDA27F",
"~  c #EEA782",
"^  c #F0AB84",
"/  c #E1B38B",
"(  c #E3B78E",
")  c #F6BC8F",
"_  c #E3BB91",
"`  c #E3BD95",
"'  c #F7C091",
"]  c #F9C594",
"[  c #FAC996",
"{  c #FBCD9A",
"}  c #FBCF9E",
"|  c #E6D0A6",
" . c #E7D3AA",
".. c #E7D5AD",
"X. c #E6DCBE",
"o. c #FEE2AF",
"O. c #FEE6B3",
"+. c #FEE7B6",
"@. c #E7E0C1",
"#. c #FEEEC7",
"$. c #FEF2CA",
/* pixels */
": ; O                                                                                                                     O ; : ",
"; ; - - > > , , 1 1 , , , , > > - = O O % = - - > > , , , , 1 1 , , , , > > > > - - = % O O = - > > , , , , 1 1 , , > > - - ; ; ",
"O - J P / _ | ..@.@... . .| _ / P J = % b D L P / _ |  . ...@.@... . .| _ ( ( / P L D b % = J P / _ |  . ...@.@...| _ / P J - O ",
"  - P ^ ] { o.+.$.$.+.O.O.o.{ ] ^ P - = S U ! ^ ] { o.O.O.+.$.$.+.O.O.o.{ [ [ ] ^ ! U S = - P ^ ] { o.O.O.+.$.$.+.o.{ ] ^ P -   ",
"  > / ] [ [ { { } } { { { { [ [ ] / > = S T ) ] [ [ { { { { } } { { { { [ [ [ [ ] ) T S = > / ] [ [ { { { { } } { { [ [ ] / >   ",
"  > ( [ [ [ [ [ [ [ [ [ [ [ [ [ [ ( > = S R ' [ [ [ [ [ [ [ [ [ [ [ [ [ [ [ [ [ [ ' R S = > ( [ [ [ [ [ [ [ [ [ [ [ [ [ [ ( >   ",
"  > ( [ [ [ [ [ [ [ [ [ [ [ [ [ [ ( > = S R ' [ [ [ [ [ [ [ [ [ [ [ [ [ [ [ [ [ [ ' R S = > ( [ [ [ [ [ [ [ [ [ [ [ [ [ [ ( >   ",
"  > ( [ [ [ [ [ [ [ [ [ [ [ [ [ [ ( > = S T ) ] [ [ [ [ [ [ [ [ [ [ [ [ [ [ [ [ ] ) T S = > ( [ [ [ [ [ [ [ [ [ [ [ [ [ [ ( >   ",
"  > ( [ [ [ [ [ [ [ [ [ [ [ [ [ [ ( > = S U ! ^ ] [ [ [ [ [ [ [ [ [ [ [ [ [ [ ] ^ ! U S = > ( [ [ [ [ [ [ [ [ [ [ [ [ [ [ ( >   ",
"  > / ] [ [ [ [ [ [ [ [ [ [ [ [ ] / > = S I E ! ' ] [ [ [ [ [ [ [ [ [ [ [ [ ] ' ! E I S = > / ] [ [ [ [ [ [ [ [ [ [ [ [ ] / >   ",
"  - P ^ ] [ [ [ [ [ [ [ [ [ [ ] ^ P - = S H I T ! ^ ] [ [ [ [ [ [ [ [ [ [ ] ^ ! T I H S = - P ^ ] [ [ [ [ [ [ [ [ [ [ ] ^ P -   ",
"  - L ! ' ] [ [ [ [ [ [ [ [ ] ' ! L - = S H H I E ! ) ' ' ' ' ' ' ' ' ' ' ) ! E I H H S = - L ! ' ] [ [ [ [ [ [ [ [ ] ' ! L -   ",
"  = D T ! ^ ] [ [ [ [ [ [ ] ^ ! T D = = S H H H I U T R R R R R R R R R R T U I H H H S = = D T ! ^ ] [ [ [ [ [ [ ] ^ ! T D =   ",
"  = S I E ! ) ' ' ' ' ' ' ) ! E I S = = Z G H H H H H H H H H H H H H H H H H H H H G Z = = S I E ! ) ' ' ' ' ' ' ) ! E I S =   ",
"  = S H I U T R R R R R R T U I H S = $ m N G H H H H H H H H H H H H H H H H H H G N m $ = S H I U T R R R R R R T U I H S =   ",
"  = Z G H H H H H H H H H H H H G Z = @ d m Z S S S S S S S S S S S S S S S S S S Z m d @ = Z G H H H H H H H H H H H H G Z =   ",
"  $ m N G H H H H H H H H H H G N m $ O @ $ = = = = = = = = = = = = = = = = = = = = $ @ O $ m N G H H H H H H H H H H G N m $   ",
"  @ d m Z S S S S S S S S S S Z m d @                                                     @ d m Z S S S S S S S S S S Z m d @   ",
"  O @ $ = = = = = = = = = = = = $ @ O                                                     O @ $ = = = = = = = = = = = = $ @ O   ",
"  O % = = = = = = = = = = = $ @ O         . X o + + @ @ + + o X . . X o + + @ @ + + o X .     O @ $ = = = = = = = = = = $ # O   ",
"  % b S S S S S S S S S S Z m d @         X & 4 3 6 w w 6 3 4 & X X & 4 3 6 w w 6 3 4 & X     @ d m Z S S S S S S S S A v l #   ",
"  = D U T R R T U I H H H G N m $         o 4 5 7 9 y y 9 7 5 4 o o 4 5 7 9 y y 9 7 5 4 o     $ m N G H H H I U T R R Y F n *   ",
"  - L ! ) ' ' ) ! E I H H H G Z =         + 3 7 a y y y y a 7 3 + + 3 7 a y y y y a 7 3 +     = Z G H H H I E ! ) ' ' ) Q K -   ",
"  - P ^ ] [ [ ] ^ ! T I H H H S =         + 2 6 w e e e e w 6 2 + + 2 6 w e w w e w 6 2 +     = S H H H I T ! ^ ] [ [ ] ^ P -   ",
"  > / ] [ [ [ [ ] ' ! E I H H S =         O + + @ @ @ @ @ @ + + O O + + @ @ @ @ @ @ + + O     = S H H I E ! ' ] [ [ [ [ ] / >   ",
"  > ( [ [ [ [ [ [ ] ~ W I H H S =             . X o @ @ @ # $ $ $ $ # @ @ @ o X .             = S H H I W ~ ] [ [ [ [ [ [ ( >   ",
"  > ( [ [ [ [ [ [ ] ~ W I H H S =             X & 4 w r g g x c c x h g r w 4 & X             = S H H I W ~ ] [ [ [ [ [ [ ( >   ",
"  > ` } [ [ [ [ [ ] ^ ! U H H S =             o 4 8 t i j M V C C V M j i t 8 4 o             = S H H U ! ^ ] [ [ [ [ [ } ` >   ",
"  < X.#.} [ [ [ [ [ ] ) T H H S =             @ w t y f B V C C C C V B f y t w @             = S H H T ) ] [ [ [ [ [ } #.X.<   ",
"  1 @.$.} [ [ [ [ [ [ ' R H H S =             @ w t y f B V C C C C V B f y t w @             = S H H R ' [ [ [ [ [ [ } $.@.1   ",
"  , ..+.{ [ [ [ [ [ [ ' R H H S =             o 4 8 t i j M V C C V M j i t 8 4 o             = S H H R ' [ [ [ [ [ [ { +...,   ",
"  , | o.{ [ [ [ [ [ [ ' R H H S =             X & 4 w r g h x c c x h g r w 4 & X             = S H H R ' [ [ [ [ [ [ { o.| ,   ",
"  > _ { [ [ [ [ [ [ [ ' R H H S =             . X o @ @ @ # $ $ $ $ # @ @ @ o X .             = S H H R ' [ [ [ [ [ [ [ { _ >   ",
"  > _ { [ [ [ [ [ [ [ ' R H H S =     . X o @ @ @ @ @ @ @ @ @ + O O @ @ @ @ @ @ @ @ X X .     = S H H R ' [ [ [ [ [ [ [ { _ >   ",
"  , | o.{ [ [ [ [ [ [ ' R H H S =     X & 4 w e e w e r g g r 0 + @ s g r e e e e w 4 & X     = S H H R ' [ [ [ [ [ [ { o.| ,   ",
"  , | o.{ [ [ [ [ [ ] ) T H H S =     o 4 8 t u u u u i j k f p @ # h j i u u u u t 8 4 o     = S H H T ) ] [ [ [ [ [ { o.| ,   ",
"  > _ { [ [ [ [ [ ] ^ ! U H H S =     @ w t y u u u u f B V V z $ $ x B f u u u u y t w @     = S H H U ! ^ ] [ [ [ [ [ { _ >   ",
"  > ( [ [ [ [ [ [ ] ~ W I H H S =     @ w t y u u u u f B V V z $ $ x B f u u u u y t w @     = S H H I W ~ ] [ [ [ [ [ [ ( >   ",
"  > ( [ [ [ [ [ [ ] ~ W I H H S =     o 4 8 t u u u u i j k f p @ # h j i u u u u t 8 4 o     = S H H I W ~ ] [ [ [ [ [ [ ( >   ",
"  > / ] [ [ [ [ ] ' ! E I H H S =     X & 4 w e e e e r g g r 0 + @ s g r e e e e w 4 & X     = S H H I E ! ' ] [ [ [ [ ] / >   ",
"  - P ^ ] [ [ ] ^ ! T I H H H S =     . X o @ @ @ @ + @ @ @ @ + O O @ @ @ @ @ @ @ @ o X .     = S H H H I T ! ^ ] [ [ ] ^ P -   ",
"  - L ! ) ' ' ) ! E I H H H G Z =             . X o + @ + @ @ @ @ + + + @ @ o X .             = Z G H H H I E ! ) ' ' ) Q K -   ",
"  = D U T R R T U I H H H G N m $             X & 4 w e e e e e e e e w e w 4 & X             $ m N G H H H I U T R R Y F n *   ",
"  % b S S S S S S S S S S Z m d @             X & 4 w e e e e e e e e e e w 4 & X             @ d m Z S S S S S S S S A v l #   ",
"  O % = = = = = = = = = = = $ @ O             . X o @ @ @ @ @ @ @ @ @ @ @ @ o X .             O @ $ = = = = = = = = = = $ # O   ",
"  O @ $ = = = = = = = = = = = = $ @ O                                                     O @ $ = = = = = = = = = = = = $ @ O   ",
"  @ d m Z S S S S S S S S S S Z m d @                                                     @ d m Z S S S S S S S S S S Z m d @   ",
"  $ m N G H H H H H H H H H H G N m $ O @ $ = = = = = = = = = = = = = = = = = = = = $ @ O $ m N G H H H H H H H H H H G N m $   ",
"  = Z G H H H H H H H H H H H H G Z = @ d m Z S S S S S S S S S S S S S S S S S S Z m d @ = Z G H H H H H H H H H H H H G Z =   ",
"  = S H I U T R R R R R R T U I H S = $ m N G H H H H H H H H H H H H H H H H H H G N m $ = S H I U T R R R R R R T U I H S =   ",
"  = S I E ! ) ' ' ' ' ' ' ) ! E I S = = Z G H H H H H H H H H H H H H H H H H H H H G Z = = S I E ! ) ' ' ' ' ' ' ) ! E I S =   ",
"  = D T ! ^ ] [ [ [ [ [ [ ] ^ ! T D = = S H H H I U T R R R R R R R R R R T U I H H H S = = D T ! ^ ] [ [ [ [ [ [ ] ^ ! T D =   ",
"  - L ! ' ] [ [ [ [ [ [ [ [ ] ' ! L - = S H H I E ! ) ' ' ' ' ' ' ' ' ' ' ) ! E I H H S = - L ! ' ] [ [ [ [ [ [ [ [ ] ' ! L -   ",
"  - P ^ ] [ [ [ [ [ [ [ [ [ [ ] ^ P - = S H I T ! ^ ] [ [ [ [ [ [ [ [ [ [ ] ^ ! T I H S = - P ^ ] [ [ [ [ [ [ [ [ [ [ ] ^ P -   ",
"  > / ] [ [ [ [ [ [ [ [ [ [ [ [ ] / > = S I E ! ' ] [ [ [ [ [ [ [ [ [ [ [ [ ] ' ! E I S = > / ] [ [ [ [ [ [ [ [ [ [ [ [ ] / >   ",
"  > ( [ [ [ [ [ [ [ [ [ [ [ [ [ [ ( > = S U ! ^ ] [ [ [ [ [ [ [ [ [ [ [ [ [ [ ] ^ ! U S = > ( [ [ [ [ [ [ [ [ [ [ [ [ [ [ ( >   ",
"  > ( [ [ [ [ [ [ [ [ [ [ [ [ [ [ ( > = S T ) ] [ [ [ [ [ [ [ [ [ [ [ [ [ [ [ [ ] ) T S = > ( [ [ [ [ [ [ [ [ [ [ [ [ [ [ ( >   ",
"  > ( [ [ [ [ [ [ [ [ [ [ [ [ [ [ ( > = S R ' [ [ [ [ [ [ [ [ [ [ [ [ [ [ [ [ [ [ ' R S = > ( [ [ [ [ [ [ [ [ [ [ [ [ [ [ ( >   ",
"  > ( [ [ [ [ [ [ [ [ [ [ [ [ [ [ ( > = S R ' [ [ [ [ [ [ [ [ [ [ [ [ [ [ [ [ [ [ ' R S = > ( [ [ [ [ [ [ [ [ [ [ [ [ [ [ ( >   ",
"  > / ] [ [ { { } } { { { { [ [ ] / > = S T ) ] [ [ { { [ [ { { } } { { { { [ [ ] ) T S = > / ] [ [ { { { { } } { { [ [ ] / >   ",
"  - P ^ ] { o.+.$.$.+.O.O.o.{ ] ^ P - = S U ! ^ ] { o.o.{ { o.+.$.$.+.O.O.o.{ ] ^ ! U S = - P ^ ] { o.O.O.+.$.$.+.o.{ ] ^ P -   ",
"O - J P / _ | ..@.@... . .| _ / P J = % b D L P / _ | | _ _ | ..@.@... . .| _ / P L D b % = J P / _ |  . ...@.@...| _ / P J - O ",
"; ; - - > > , , 1 1 , , , , > > - = O O % = - - > > , , > > , , 1 1 , , , , > > - - = % O O = - > > , , , , 1 1 , , > > - - ; ; ",
": ; O                                                                                                                     O ; : "
};
